LisuBosaMaster-Italic.ufo
<glyph name="exclam" format="2">
  <advance width="313"/>
  <unicode hex="0021"/>
  <outline>
    <contour>
      <point x="60" y="42" type="curve" smooth="yes"/>
      <point x="60" y="11"/>
      <point x="83" y="-11"/>
      <point x="116" y="-11" type="curve" smooth="yes"/>
      <point x="148" y="-11"/>
      <point x="179" y="16"/>
      <point x="179" y="52" type="curve" smooth="yes"/>
      <point x="179" y="82"/>
      <point x="158" y="107"/>
      <point x="124" y="107" type="curve" smooth="yes"/>
      <point x="91" y="107"/>
      <point x="60" y="78"/>
    </contour>
    <contour>
      <point x="192" y="506" type="curve" smooth="yes"/>
      <point x="199" y="539"/>
      <point x="202" y="551"/>
      <point x="207" y="559" type="curve" smooth="yes"/>
      <point x="212" y="567"/>
      <point x="223" y="570"/>
      <point x="239" y="570" type="curve" smooth="yes"/>
      <point x="261" y="570"/>
      <point x="300" y="558"/>
      <point x="300" y="537" type="curve" smooth="yes"/>
      <point x="300" y="525"/>
      <point x="286" y="483"/>
      <point x="284" y="477" type="curve" smooth="yes"/>
      <point x="243" y="352"/>
      <point x="227" y="293"/>
      <point x="187" y="172" type="curve" smooth="yes"/>
      <point x="184" y="162"/>
      <point x="174" y="156"/>
      <point x="158" y="156" type="curve" smooth="yes"/>
      <point x="142" y="156"/>
      <point x="118" y="160"/>
      <point x="118" y="175" type="curve" smooth="yes"/>
      <point x="118" y="182"/>
      <point x="119" y="187"/>
      <point x="123" y="205" type="curve" smooth="yes"/>
      <point x="149" y="323"/>
      <point x="169" y="404"/>
    </contour>
  </outline>
</glyph>
<glyph name="quotedbl" format="2">
  <advance width="349"/>
  <unicode hex="0022"/>
  <outline>
    <contour>
      <point x="149" y="582" type="line"/>
      <point x="241" y="582" type="line"/>
      <point x="183" y="359" type="line"/>
      <point x="119" y="359" type="line"/>
    </contour>
    <contour>
      <point x="301" y="582" type="line"/>
      <point x="394" y="582" type="line"/>
      <point x="335" y="359" type="line"/>
      <point x="271" y="359" type="line"/>
    </contour>
  </outline>
</glyph>
<glyph name="dollar" format="2">
  <advance width="474"/>
  <unicode hex="0024"/>
  <outline>
    <contour>
      <point x="442" y="449" type="curve" smooth="yes"/>
      <point x="442" y="461"/>
      <point x="429" y="481"/>
      <point x="412" y="496" type="curve" smooth="yes"/>
      <point x="389" y="517"/>
      <point x="349" y="538"/>
      <point x="295" y="538" type="curve" smooth="yes"/>
      <point x="177" y="538"/>
      <point x="121" y="463"/>
      <point x="121" y="400" type="curve" smooth="yes"/>
      <point x="121" y="275"/>
      <point x="318" y="229"/>
      <point x="318" y="127" type="curve" smooth="yes"/>
      <point x="318" y="85"/>
      <point x="272" y="61"/>
      <point x="216" y="61" type="curve" smooth="yes"/>
      <point x="167" y="61"/>
      <point x="137" y="91"/>
      <point x="117" y="125" type="curve" smooth="yes"/>
      <point x="109" y="138"/>
      <point x="105" y="140"/>
      <point x="95" y="140" type="curve" smooth="yes"/>
      <point x="81" y="140"/>
      <point x="48" y="127"/>
      <point x="48" y="107" type="curve" smooth="yes"/>
      <point x="48" y="93"/>
      <point x="56" y="79"/>
      <point x="65" y="66" type="curve" smooth="yes"/>
      <point x="82" y="41"/>
      <point x="139" y="-8"/>
      <point x="207" y="-8" type="curve" smooth="yes"/>
      <point x="325" y="-8"/>
      <point x="392" y="63"/>
      <point x="392" y="137" type="curve" smooth="yes"/>
      <point x="392" y="257"/>
      <point x="196" y="326"/>
      <point x="196" y="406" type="curve" smooth="yes"/>
      <point x="196" y="447"/>
      <point x="235" y="469"/>
      <point x="286" y="469" type="curve" smooth="yes"/>
      <point x="325" y="469"/>
      <point x="350" y="455"/>
      <point x="372" y="428" type="curve" smooth="yes"/>
      <point x="377" y="422"/>
      <point x="382" y="417"/>
      <point x="389" y="417" type="curve" smooth="yes"/>
      <point x="404" y="417"/>
      <point x="442" y="433"/>
    </contour>
    <contour>
      <point x="232" y="296" type="curve"/>
      <point x="281" y="260" type="line"/>
      <point x="294" y="311"/>
      <point x="308" y="362"/>
      <point x="319" y="401" type="curve" smooth="yes"/>
      <point x="331" y="444"/>
      <point x="347" y="487"/>
      <point x="358" y="528" type="curve" smooth="yes"/>
      <point x="360" y="536"/>
      <point x="362" y="548"/>
      <point x="362" y="551" type="curve" smooth="yes"/>
      <point x="362" y="562"/>
      <point x="346" y="573"/>
      <point x="326" y="573" type="curve" smooth="yes"/>
      <point x="314" y="573"/>
      <point x="306" y="569"/>
      <point x="302" y="563" type="curve" smooth="yes"/>
      <point x="298" y="557"/>
      <point x="293" y="542"/>
      <point x="291" y="535" type="curve" smooth="yes"/>
      <point x="283" y="504"/>
      <point x="276" y="471"/>
      <point x="268" y="438" type="curve" smooth="yes"/>
      <point x="260" y="404"/>
      <point x="247" y="353"/>
    </contour>
    <contour>
      <point x="279" y="260" type="curve"/>
      <point x="230" y="296" type="line"/>
      <point x="205" y="201"/>
      <point x="175" y="91"/>
      <point x="156" y="26" type="curve" smooth="yes"/>
      <point x="147" y="-3"/>
      <point x="144" y="-13"/>
      <point x="144" y="-21" type="curve" smooth="yes"/>
      <point x="144" y="-29"/>
      <point x="156" y="-41"/>
      <point x="179" y="-41" type="curve" smooth="yes"/>
      <point x="201" y="-41"/>
      <point x="212" y="-32"/>
      <point x="215" y="-15" type="curve" smooth="yes"/>
      <point x="218" y="1"/>
      <point x="225" y="36"/>
      <point x="233" y="72" type="curve" smooth="yes"/>
      <point x="243" y="115"/>
      <point x="261" y="188"/>
    </contour>
  </outline>
</glyph>
<glyph name="quotesingle" format="2">
  <advance width="199"/>
  <unicode hex="0027"/>
  <outline>
    <contour>
      <point x="148" y="577" type="line"/>
      <point x="119" y="364" type="line"/>
      <point x="184" y="364" type="line"/>
      <point x="240" y="577" type="line"/>
    </contour>
  </outline>
</glyph>
<glyph name="parenleft" format="2">
  <advance width="283"/>
  <unicode hex="0028"/>
  <guideline x="17" y="173" angle="259.0037"/>
  <guideline x="107" y="173" angle="259.0037"/>
  <outline>
    <contour>
      <point x="192" y="-77" type="line"/>
      <point x="82" y="-7"/>
      <point x="102" y="150"/>
      <point x="133" y="308" type="curve" smooth="yes"/>
      <point x="164" y="465"/>
      <point x="192" y="562"/>
      <point x="330" y="632" type="curve"/>
      <point x="343" y="697" type="line"/>
      <point x="154" y="609"/>
      <point x="84" y="517"/>
      <point x="43" y="308" type="curve" smooth="yes"/>
      <point x="2" y="97"/>
      <point x="26" y="-51"/>
      <point x="179" y="-142" type="curve"/>
    </contour>
  </outline>
</glyph>
<glyph name="parenright" format="2">
  <advance width="284"/>
  <unicode hex="0029"/>
  <outline>
    <contour>
      <point x="286" y="248" type="curve" smooth="yes"/>
      <point x="327" y="459"/>
      <point x="302" y="606"/>
      <point x="149" y="697" type="curve"/>
      <point x="136" y="632" type="line"/>
      <point x="246" y="562"/>
      <point x="227" y="405"/>
      <point x="196" y="248" type="curve" smooth="yes"/>
      <point x="165" y="90"/>
      <point x="136" y="-7"/>
      <point x="-2" y="-77" type="curve"/>
      <point x="-15" y="-142" type="line"/>
      <point x="174" y="-51"/>
      <point x="245" y="37"/>
    </contour>
  </outline>
</glyph>
<glyph name="asterisk" format="2">
  <advance width="358"/>
  <unicode hex="002A"/>
  <outline>
    <contour>
      <point x="281" y="553" type="curve" smooth="yes"/>
      <point x="260" y="553"/>
      <point x="248" y="547"/>
      <point x="245" y="536" type="curve" smooth="yes"/>
      <point x="243" y="528"/>
      <point x="240" y="513"/>
      <point x="236" y="495" type="curve" smooth="yes"/>
      <point x="226" y="452"/>
      <point x="223" y="426"/>
      <point x="214" y="397" type="curve" smooth="yes"/>
      <point x="212" y="391"/>
      <point x="208" y="376"/>
      <point x="208" y="369" type="curve" smooth="yes"/>
      <point x="208" y="365"/>
      <point x="209" y="363"/>
      <point x="210" y="363" type="curve" smooth="yes"/>
      <point x="215" y="363"/>
      <point x="255" y="405"/>
      <point x="264" y="418" type="curve" smooth="yes"/>
      <point x="290" y="453"/>
      <point x="318" y="496"/>
      <point x="318" y="527" type="curve" smooth="yes"/>
      <point x="318" y="541"/>
      <point x="301" y="553"/>
    </contour>
    <contour>
      <point x="388" y="390" type="curve" smooth="yes"/>
      <point x="388" y="409"/>
      <point x="376" y="434"/>
      <point x="358" y="434" type="curve" smooth="yes"/>
      <point x="349" y="434"/>
      <point x="335" y="431"/>
      <point x="319" y="430" type="curve" smooth="yes"/>
      <point x="273" y="427"/>
      <point x="246" y="421"/>
      <point x="216" y="421" type="curve" smooth="yes"/>
      <point x="210" y="421"/>
      <point x="194" y="420"/>
      <point x="187" y="418" type="curve" smooth="yes"/>
      <point x="184" y="417"/>
      <point x="182" y="415"/>
      <point x="182" y="413" type="curve" smooth="yes"/>
      <point x="182" y="409"/>
      <point x="239" y="384"/>
      <point x="251" y="380" type="curve" smooth="yes"/>
      <point x="283" y="369"/>
      <point x="319" y="359"/>
      <point x="348" y="359" type="curve" smooth="yes"/>
      <point x="375" y="359"/>
      <point x="388" y="367"/>
    </contour>
    <contour>
      <point x="285" y="265" type="curve" smooth="yes"/>
      <point x="299" y="275"/>
      <point x="305" y="284"/>
      <point x="305" y="293" type="curve" smooth="yes"/>
      <point x="305" y="296"/>
      <point x="304" y="300"/>
      <point x="303" y="303" type="curve" smooth="yes"/>
      <point x="302" y="307"/>
      <point x="294" y="320"/>
      <point x="288" y="335" type="curve" smooth="yes"/>
      <point x="270" y="378"/>
      <point x="257" y="402"/>
      <point x="248" y="430" type="curve" smooth="yes"/>
      <point x="246" y="436"/>
      <point x="240" y="451"/>
      <point x="236" y="457" type="curve" smooth="yes"/>
      <point x="234" y="460"/>
      <point x="232" y="460"/>
      <point x="231" y="460" type="curve" smooth="yes"/>
      <point x="228" y="460"/>
      <point x="220" y="400"/>
      <point x="220" y="384" type="curve" smooth="yes"/>
      <point x="220" y="340"/>
      <point x="222" y="289"/>
      <point x="240" y="264" type="curve" smooth="yes"/>
      <point x="244" y="259"/>
      <point x="251" y="256"/>
      <point x="259" y="256" type="curve" smooth="yes"/>
      <point x="267" y="256"/>
      <point x="277" y="259"/>
    </contour>
    <contour>
      <point x="108" y="309" type="curve" smooth="yes"/>
      <point x="118" y="300"/>
      <point x="128" y="297"/>
      <point x="135" y="297" type="curve" smooth="yes"/>
      <point x="142" y="297"/>
      <point x="146" y="300"/>
      <point x="152" y="305" type="curve" smooth="yes"/>
      <point x="158" y="310"/>
      <point x="164" y="317"/>
      <point x="176" y="327" type="curve" smooth="yes"/>
      <point x="211" y="357"/>
      <point x="229" y="377"/>
      <point x="254" y="396" type="curve" smooth="yes"/>
      <point x="258" y="399"/>
      <point x="274" y="412"/>
      <point x="274" y="415" type="curve" smooth="yes"/>
      <point x="274" y="418"/>
      <point x="272" y="421"/>
      <point x="269" y="421" type="curve" smooth="yes"/>
      <point x="265" y="421"/>
      <point x="216" y="413"/>
      <point x="201" y="408" type="curve" smooth="yes"/>
      <point x="159" y="395"/>
      <point x="111" y="377"/>
      <point x="93" y="352" type="curve" smooth="yes"/>
      <point x="91" y="349"/>
      <point x="90" y="345"/>
      <point x="90" y="340" type="curve" smooth="yes"/>
      <point x="90" y="330"/>
      <point x="98" y="318"/>
    </contour>
    <contour>
      <point x="110" y="484" type="curve" smooth="yes"/>
      <point x="108" y="477"/>
      <point x="107" y="470"/>
      <point x="107" y="464" type="curve" smooth="yes"/>
      <point x="107" y="455"/>
      <point x="109" y="449"/>
      <point x="115" y="445" type="curve" smooth="yes"/>
      <point x="122" y="441"/>
      <point x="135" y="435"/>
      <point x="149" y="426" type="curve" smooth="yes"/>
      <point x="188" y="401"/>
      <point x="213" y="390"/>
      <point x="238" y="373" type="curve" smooth="yes"/>
      <point x="243" y="369"/>
      <point x="259" y="358"/>
      <point x="263" y="358" type="curve" smooth="yes"/>
      <point x="266" y="358"/>
      <point x="269" y="360"/>
      <point x="269" y="362" type="curve" smooth="yes"/>
      <point x="269" y="365"/>
      <point x="242" y="414"/>
      <point x="233" y="427" type="curve" smooth="yes"/>
      <point x="217" y="450"/>
      <point x="169" y="513"/>
      <point x="141" y="513" type="curve" smooth="yes"/>
      <point x="129" y="513"/>
      <point x="115" y="501"/>
    </contour>
  </outline>
</glyph>
<glyph name="slash" format="2">
  <advance width="279"/>
  <unicode hex="002F"/>
  <outline>
    <contour>
      <point x="245" y="650" type="line"/>
      <point x="295" y="650" type="line"/>
      <point x="36" y="-100" type="line"/>
      <point x="-15" y="-100" type="line"/>
    </contour>
  </outline>
</glyph>
<glyph name="one" format="2">
  <advance width="474"/>
  <unicode hex="0031"/>
  <outline>
    <contour>
      <point x="241" y="17" type="curve" smooth="yes"/>
      <point x="237" y="0"/>
      <point x="221" y="-9"/>
      <point x="198" y="-9" type="curve" smooth="yes"/>
      <point x="166" y="-9"/>
      <point x="158" y="6"/>
      <point x="158" y="14" type="curve" smooth="yes"/>
      <point x="158" y="24"/>
      <point x="183" y="97"/>
      <point x="193" y="131" type="curve" smooth="yes"/>
      <point x="219" y="218"/>
      <point x="244" y="306"/>
      <point x="265" y="393" type="curve"/>
      <point x="232" y="371"/>
      <point x="208" y="358"/>
      <point x="182" y="344" type="curve" smooth="yes"/>
      <point x="171" y="338"/>
      <point x="162" y="334"/>
      <point x="157" y="334" type="curve" smooth="yes"/>
      <point x="145" y="334"/>
      <point x="133" y="346"/>
      <point x="128" y="352" type="curve" smooth="yes"/>
      <point x="123" y="359"/>
      <point x="118" y="367"/>
      <point x="118" y="374" type="curve" smooth="yes"/>
      <point x="118" y="380"/>
      <point x="127" y="388"/>
      <point x="146" y="399" type="curve" smooth="yes"/>
      <point x="202" y="432"/>
      <point x="256" y="472"/>
      <point x="290" y="506" type="curve" smooth="yes"/>
      <point x="299" y="515"/>
      <point x="307" y="523"/>
      <point x="310" y="525" type="curve" smooth="yes"/>
      <point x="314" y="528"/>
      <point x="325" y="532"/>
      <point x="344" y="532" type="curve" smooth="yes"/>
      <point x="364" y="532"/>
      <point x="376" y="524"/>
      <point x="376" y="516" type="curve" smooth="yes"/>
      <point x="376" y="506"/>
      <point x="372" y="490"/>
      <point x="368" y="475" type="curve" smooth="yes"/>
      <point x="334" y="352"/>
      <point x="298" y="230"/>
      <point x="266" y="113" type="curve" smooth="yes"/>
      <point x="257" y="80"/>
      <point x="249" y="49"/>
    </contour>
  </outline>
</glyph>
<glyph name="three" format="2">
  <advance width="474"/>
  <unicode hex="0033"/>
  <outline>
    <contour>
      <point x="392" y="179" type="curve" smooth="yes"/>
      <point x="392" y="74"/>
      <point x="304" y="-8"/>
      <point x="195" y="-8" type="curve" smooth="yes"/>
      <point x="134" y="-8"/>
      <point x="86" y="31"/>
      <point x="69" y="54" type="curve" smooth="yes"/>
      <point x="51" y="78"/>
      <point x="34" y="113"/>
      <point x="34" y="131" type="curve" smooth="yes"/>
      <point x="34" y="149"/>
      <point x="61" y="165"/>
      <point x="85" y="165" type="curve" smooth="yes"/>
      <point x="98" y="165"/>
      <point x="103" y="153"/>
      <point x="110" y="136" type="curve" smooth="yes"/>
      <point x="129" y="88"/>
      <point x="162" y="65"/>
      <point x="204" y="65" type="curve" smooth="yes"/>
      <point x="261" y="65"/>
      <point x="317" y="110"/>
      <point x="317" y="170" type="curve" smooth="yes"/>
      <point x="317" y="204"/>
      <point x="286" y="241"/>
      <point x="241" y="241" type="curve" smooth="yes"/>
      <point x="226" y="241"/>
      <point x="209" y="243"/>
      <point x="202" y="249" type="curve" smooth="yes"/>
      <point x="195" y="255"/>
      <point x="192" y="266"/>
      <point x="192" y="276" type="curve" smooth="yes"/>
      <point x="192" y="285"/>
      <point x="194" y="296"/>
      <point x="201" y="301" type="curve" smooth="yes"/>
      <point x="209" y="306"/>
      <point x="223" y="308"/>
      <point x="248" y="308" type="curve" smooth="yes"/>
      <point x="307" y="308"/>
      <point x="353" y="363"/>
      <point x="353" y="403" type="curve" smooth="yes"/>
      <point x="353" y="442"/>
      <point x="316" y="465"/>
      <point x="273" y="465" type="curve" smooth="yes"/>
      <point x="248" y="465"/>
      <point x="229" y="459"/>
      <point x="210" y="446" type="curve" smooth="yes"/>
      <point x="185" y="429"/>
      <point x="173" y="403"/>
      <point x="160" y="403" type="curve" smooth="yes"/>
      <point x="144" y="403"/>
      <point x="113" y="418"/>
      <point x="113" y="437" type="curve" smooth="yes"/>
      <point x="113" y="451"/>
      <point x="142" y="490"/>
      <point x="178" y="512" type="curve" smooth="yes"/>
      <point x="210" y="531"/>
      <point x="243" y="538"/>
      <point x="281" y="538" type="curve" smooth="yes"/>
      <point x="367" y="538"/>
      <point x="428" y="479"/>
      <point x="428" y="414" type="curve" smooth="yes"/>
      <point x="428" y="358"/>
      <point x="385" y="302"/>
      <point x="332" y="276" type="curve"/>
      <point x="365" y="255"/>
      <point x="392" y="217"/>
    </contour>
  </outline>
</glyph>
<glyph name="five" format="2">
  <advance width="474"/>
  <unicode hex="0035"/>
  <outline>
    <contour>
      <point x="397" y="214" type="curve" smooth="yes"/>
      <point x="397" y="290"/>
      <point x="348" y="351"/>
      <point x="267" y="351" type="curve" smooth="yes"/>
      <point x="244" y="351"/>
      <point x="205" y="342"/>
      <point x="188" y="331" type="curve"/>
      <point x="199" y="356"/>
      <point x="212" y="393"/>
      <point x="226" y="425" type="curve" smooth="yes"/>
      <point x="239" y="455"/>
      <point x="254" y="490"/>
      <point x="254" y="500" type="curve" smooth="yes"/>
      <point x="254" y="516"/>
      <point x="248" y="522"/>
      <point x="225" y="522" type="curve" smooth="yes"/>
      <point x="197" y="522"/>
      <point x="188" y="509"/>
      <point x="176" y="488" type="curve" smooth="yes"/>
      <point x="149" y="439"/>
      <point x="95" y="287"/>
      <point x="95" y="271" type="curve" smooth="yes"/>
      <point x="95" y="254"/>
      <point x="122" y="243"/>
      <point x="144" y="243" type="curve" smooth="yes"/>
      <point x="166" y="243"/>
      <point x="194" y="281"/>
      <point x="251" y="281" type="curve" smooth="yes"/>
      <point x="300" y="281"/>
      <point x="322" y="255"/>
      <point x="322" y="200" type="curve" smooth="yes"/>
      <point x="322" y="136"/>
      <point x="278" y="65"/>
      <point x="199" y="65" type="curve" smooth="yes"/>
      <point x="161" y="65"/>
      <point x="127" y="90"/>
      <point x="111" y="119" type="curve" smooth="yes"/>
      <point x="107" y="127"/>
      <point x="102" y="132"/>
      <point x="92" y="132" type="curve" smooth="yes"/>
      <point x="67" y="132"/>
      <point x="44" y="108"/>
      <point x="44" y="94" type="curve" smooth="yes"/>
      <point x="44" y="79"/>
      <point x="61" y="53"/>
      <point x="89" y="29" type="curve" smooth="yes"/>
      <point x="113" y="9"/>
      <point x="156" y="-8"/>
      <point x="189" y="-8" type="curve" smooth="yes"/>
      <point x="333" y="-8"/>
      <point x="397" y="115"/>
    </contour>
    <contour>
      <point x="227" y="531" type="curve" smooth="yes"/>
      <point x="190" y="531"/>
      <point x="172" y="532"/>
      <point x="150" y="532" type="curve" smooth="yes"/>
      <point x="134" y="532"/>
      <point x="124" y="523"/>
      <point x="124" y="509" type="curve" smooth="yes"/>
      <point x="124" y="499"/>
      <point x="127" y="486"/>
      <point x="137" y="477" type="curve" smooth="yes"/>
      <point x="148" y="468"/>
      <point x="198" y="463"/>
      <point x="238" y="463" type="curve" smooth="yes"/>
      <point x="281" y="463"/>
      <point x="330" y="464"/>
      <point x="357" y="464" type="curve" smooth="yes"/>
      <point x="373" y="464"/>
      <point x="400" y="463"/>
      <point x="415" y="463" type="curve" smooth="yes"/>
      <point x="427" y="463"/>
      <point x="444" y="464"/>
      <point x="450" y="468" type="curve" smooth="yes"/>
      <point x="457" y="472"/>
      <point x="463" y="480"/>
      <point x="463" y="493" type="curve" smooth="yes"/>
      <point x="463" y="520"/>
      <point x="441" y="533"/>
      <point x="394" y="533" type="curve" smooth="yes"/>
      <point x="332" y="533"/>
      <point x="291" y="531"/>
    </contour>
  </outline>
</glyph>
<glyph name="eight" format="2">
  <advance width="474"/>
  <unicode hex="0038"/>
  <outline>
    <contour>
      <point x="389" y="77"/>
      <point x="290" y="-10"/>
      <point x="179" y="-10" type="curve" smooth="yes"/>
      <point x="99" y="-10"/>
      <point x="30" y="51"/>
      <point x="30" y="134" type="curve" smooth="yes"/>
      <point x="30" y="205"/>
      <point x="93" y="278"/>
      <point x="164" y="292" type="curve"/>
      <point x="141" y="312"/>
      <point x="115" y="346"/>
      <point x="115" y="388" type="curve" smooth="yes"/>
      <point x="115" y="462"/>
      <point x="186" y="538"/>
      <point x="295" y="538" type="curve" smooth="yes"/>
      <point x="370" y="538"/>
      <point x="432" y="484"/>
      <point x="432" y="420" type="curve" smooth="yes"/>
      <point x="432" y="356"/>
      <point x="386" y="303"/>
      <point x="328" y="279" type="curve"/>
      <point x="368" y="255"/>
      <point x="389" y="220"/>
      <point x="389" y="181" type="curve" smooth="yes"/>
    </contour>
    <contour>
      <point x="315" y="317"/>
      <point x="358" y="354"/>
      <point x="358" y="402" type="curve" smooth="yes"/>
      <point x="358" y="442"/>
      <point x="328" y="465"/>
      <point x="284" y="465" type="curve" smooth="yes"/>
      <point x="235" y="465"/>
      <point x="190" y="434"/>
      <point x="190" y="391" type="curve" smooth="yes"/>
      <point x="190" y="347"/>
      <point x="224" y="317"/>
      <point x="261" y="317" type="curve" smooth="yes"/>
    </contour>
    <contour>
      <point x="255" y="62"/>
      <point x="314" y="115"/>
      <point x="314" y="172" type="curve" smooth="yes"/>
      <point x="314" y="215"/>
      <point x="280" y="250"/>
      <point x="229" y="250" type="curve" smooth="yes"/>
      <point x="165" y="250"/>
      <point x="104" y="201"/>
      <point x="104" y="145" type="curve" smooth="yes"/>
      <point x="104" y="90"/>
      <point x="142" y="62"/>
      <point x="190" y="62" type="curve" smooth="yes"/>
    </contour>
  </outline>
</glyph>
<glyph name="nine" format="2">
  <advance width="474"/>
  <unicode hex="0039"/>
  <outline>
    <contour>
      <point x="456" y="293"/>
      <point x="430" y="168"/>
      <point x="365" y="84" type="curve" smooth="yes"/>
      <point x="322" y="29"/>
      <point x="262" y="-8"/>
      <point x="185" y="-8" type="curve" smooth="yes"/>
      <point x="106" y="-8"/>
      <point x="59" y="59"/>
      <point x="59" y="86" type="curve" smooth="yes"/>
      <point x="59" y="101"/>
      <point x="87" y="123"/>
      <point x="106" y="123" type="curve" smooth="yes"/>
      <point x="122" y="123"/>
      <point x="128" y="114"/>
      <point x="136" y="102" type="curve" smooth="yes"/>
      <point x="146" y="86"/>
      <point x="172" y="64"/>
      <point x="199" y="64" type="curve" smooth="yes"/>
      <point x="274" y="64"/>
      <point x="331" y="134"/>
      <point x="357" y="236" type="curve"/>
      <point x="323" y="205"/>
      <point x="284" y="193"/>
      <point x="245" y="193" type="curve" smooth="yes"/>
      <point x="166" y="193"/>
      <point x="114" y="258"/>
      <point x="114" y="331" type="curve" smooth="yes"/>
      <point x="114" y="432"/>
      <point x="195" y="538"/>
      <point x="316" y="538" type="curve" smooth="yes"/>
      <point x="406" y="538"/>
      <point x="456" y="464"/>
      <point x="456" y="372" type="curve" smooth="yes"/>
    </contour>
    <contour>
      <point x="326" y="259"/>
      <point x="381" y="324"/>
      <point x="381" y="387" type="curve" smooth="yes"/>
      <point x="381" y="432"/>
      <point x="352" y="466"/>
      <point x="306" y="466" type="curve" smooth="yes"/>
      <point x="238" y="466"/>
      <point x="189" y="396"/>
      <point x="189" y="337" type="curve" smooth="yes"/>
      <point x="189" y="294"/>
      <point x="218" y="259"/>
      <point x="263" y="259" type="curve" smooth="yes"/>
    </contour>
  </outline>
</glyph>
<glyph name="equal" format="2">
  <advance width="489"/>
  <unicode hex="003D"/>
  <outline>
    <contour>
      <point x="464" y="184" type="line"/>
      <point x="464" y="235" type="line"/>
      <point x="54" y="235" type="line"/>
      <point x="54" y="184" type="line"/>
    </contour>
    <contour>
      <point x="464" y="369" type="line"/>
      <point x="464" y="421" type="line"/>
      <point x="54" y="421" type="line"/>
      <point x="54" y="369" type="line"/>
    </contour>
  </outline>
</glyph>
<glyph name="greater" format="2">
  <advance width="489"/>
  <unicode hex="003E"/>
  <outline>
    <contour>
      <point x="442" y="324" type="line"/>
      <point x="105" y="517" type="line"/>
      <point x="78" y="468" type="line"/>
      <point x="392" y="295" type="line"/>
      <point x="392" y="310" type="line"/>
      <point x="78" y="137" type="line"/>
      <point x="105" y="87" type="line"/>
      <point x="442" y="280" type="line"/>
    </contour>
  </outline>
</glyph>
<glyph name="J" format="2">
  <advance width="372"/>
  <unicode hex="004A"/>
  <anchor x="298" y="634" name="aboveUC"/>
  <anchor x="87" y="-58" name="belowLC"/>
  <outline>
    <contour>
      <point x="-27" y="6" type="curve"/>
      <point x="-22" y="-26"/>
      <point x="15" y="-41"/>
      <point x="57" y="-41" type="curve" smooth="yes"/>
      <point x="122" y="-41"/>
      <point x="198" y="3"/>
      <point x="238" y="90" type="curve" smooth="yes"/>
      <point x="255" y="126"/>
      <point x="268" y="175"/>
      <point x="281" y="252" type="curve" smooth="yes"/>
      <point x="343" y="614" type="line"/>
      <point x="253" y="614" type="line"/>
      <point x="239" y="516"/>
      <point x="224" y="421"/>
      <point x="210" y="330" type="curve" smooth="yes"/>
      <point x="193" y="219"/>
      <point x="187" y="175"/>
      <point x="178" y="129" type="curve" smooth="yes"/>
      <point x="164" y="61"/>
      <point x="131" y="16"/>
      <point x="85" y="-8" type="curve"/>
      <point x="127" y="0" type="line"/>
      <point x="77" y="38"/>
      <point x="57" y="50"/>
      <point x="35" y="50" type="curve" smooth="yes"/>
      <point x="4" y="50"/>
      <point x="-20" y="35"/>
    </contour>
    <contour>
      <point x="159" y="575" type="line"/>
      <point x="276" y="562" type="line"/>
      <point x="296" y="562" type="line"/>
      <point x="416" y="575" type="line"/>
      <point x="424" y="614" type="line"/>
      <point x="166" y="614" type="line"/>
    </contour>
  </outline>
</glyph>
<glyph name="M" format="2">
  <advance width="851"/>
  <unicode hex="004D"/>
  <anchor x="495" y="609" name="aboveUC"/>
  <anchor x="367" y="-20" name="belowLC"/>
  <outline>
    <contour>
      <point x="-7" y="0" type="line"/>
      <point x="205" y="0" type="line"/>
      <point x="213" y="38" type="line"/>
      <point x="115" y="52" type="line"/>
      <point x="93" y="52" type="line"/>
      <point x="0" y="38" type="line"/>
    </contour>
    <contour>
      <point x="73" y="0" type="line"/>
      <point x="117" y="0" type="line"/>
      <point x="256" y="593" type="line"/>
      <point x="212" y="593" type="line"/>
    </contour>
    <contour>
      <point x="355" y="0" type="line"/>
      <point x="384" y="0" type="line"/>
      <point x="742" y="614" type="line"/>
      <point x="700" y="614" type="line"/>
      <point x="389" y="86" type="line"/>
      <point x="418" y="100" type="line"/>
      <point x="310" y="614" type="line"/>
      <point x="136" y="614" type="line"/>
      <point x="128" y="575" type="line"/>
      <point x="253" y="562" type="line"/>
      <point x="218" y="602" type="line"/>
    </contour>
    <contour>
      <point x="538" y="0" type="line"/>
      <point x="781" y="0" type="line"/>
      <point x="786" y="40" type="line"/>
      <point x="675" y="54" type="line"/>
      <point x="657" y="54" type="line"/>
      <point x="542" y="40" type="line"/>
    </contour>
    <contour>
      <point x="610" y="0" type="line"/>
      <point x="699" y="0" type="line"/>
      <point x="711" y="94"/>
      <point x="724" y="192"/>
      <point x="736" y="287" type="curve" smooth="yes"/>
      <point x="784" y="614" type="line"/>
      <point x="718" y="614" type="line"/>
      <point x="696" y="580" type="line"/>
    </contour>
    <contour>
      <point x="732" y="562" type="line"/>
      <point x="750" y="562" type="line"/>
      <point x="862" y="575" type="line"/>
      <point x="867" y="614" type="line"/>
      <point x="733" y="614" type="line"/>
    </contour>
  </outline>
</glyph>
<glyph name="Z" format="2">
  <advance width="494"/>
  <unicode hex="005A"/>
  <anchor x="325" y="634" name="aboveUC"/>
  <anchor x="237" y="-20" name="belowLC"/>
  <outline>
    <contour>
      <point x="0" y="0" type="line"/>
      <point x="75" y="0" type="line"/>
      <point x="536" y="581" type="line"/>
      <point x="542" y="614" type="line"/>
      <point x="467" y="614" type="line"/>
      <point x="6" y="33" type="line"/>
    </contour>
    <contour>
      <point x="80" y="449" type="line"/>
      <point x="135" y="449" type="line"/>
      <point x="194" y="614" type="line"/>
      <point x="134" y="567" type="line"/>
      <point x="495" y="567" type="line"/>
      <point x="506" y="614" type="line"/>
      <point x="112" y="614" type="line"/>
    </contour>
    <contour>
      <point x="46" y="0" type="line"/>
      <point x="446" y="0" type="line"/>
      <point x="479" y="164" type="line"/>
      <point x="422" y="164" type="line"/>
      <point x="364" y="0" type="line"/>
      <point x="424" y="46" type="line"/>
      <point x="55" y="46" type="line"/>
    </contour>
  </outline>
</glyph>
<glyph name="bracketleft" format="2">
  <advance width="294"/>
  <unicode hex="005B"/>
  <outline>
    <contour>
      <point x="140" y="647" type="line"/>
      <point x="332" y="647" type="line"/>
      <point x="319" y="584" type="line"/>
      <point x="208" y="584" type="line"/>
      <point x="82" y="-67" type="line"/>
      <point x="189" y="-67" type="line"/>
      <point x="176" y="-130" type="line"/>
      <point x="-12" y="-130" type="line"/>
    </contour>
  </outline>
</glyph>
<glyph name="backslash" format="2">
  <advance width="294"/>
  <unicode hex="005C"/>
  <outline>
    <contour>
      <point x="242" y="-147" type="line"/>
      <point x="161" y="653" type="line"/>
      <point x="103" y="653" type="line"/>
      <point x="185" y="-147" type="line"/>
    </contour>
  </outline>
</glyph>
<glyph name="bracketright" format="2">
  <advance width="298"/>
  <unicode hex="005D"/>
  <outline>
    <contour>
      <point x="345" y="667" type="line"/>
      <point x="153" y="667" type="line"/>
      <point x="140" y="603" type="line"/>
      <point x="251" y="603" type="line"/>
      <point x="122" y="-66" type="line"/>
      <point x="11" y="-66" type="line"/>
      <point x="-2" y="-130" type="line"/>
      <point x="190" y="-130" type="line"/>
    </contour>
  </outline>
</glyph>
<glyph name="c" format="2">
  <advance width="380"/>
  <unicode hex="0063"/>
  <anchor x="293" y="465" name="aboveLC"/>
  <anchor x="171" y="0" name="baseLC"/>
  <anchor x="167" y="-20" name="belowLC"/>
  <outline>
    <contour>
      <point x="189" y="-11" type="curve" smooth="yes"/>
      <point x="256" y="-11"/>
      <point x="323" y="39"/>
      <point x="361" y="104" type="curve"/>
      <point x="339" y="122" type="line"/>
      <point x="313" y="89"/>
      <point x="275" y="55"/>
      <point x="226" y="55" type="curve" smooth="yes"/>
      <point x="166" y="55"/>
      <point x="125" y="92"/>
      <point x="125" y="172" type="curve" smooth="yes"/>
      <point x="125" y="293"/>
      <point x="203" y="402"/>
      <point x="293" y="420" type="curve"/>
      <point x="253" y="429" type="line"/>
      <point x="295" y="379" type="line" smooth="yes"/>
      <point x="310" y="360"/>
      <point x="328" y="345"/>
      <point x="350" y="345" type="curve"/>
      <point x="369" y="345"/>
      <point x="388" y="356"/>
      <point x="391" y="379" type="curve"/>
      <point x="380" y="421"/>
      <point x="346" y="449"/>
      <point x="289" y="449" type="curve" smooth="yes"/>
      <point x="169" y="449"/>
      <point x="48" y="315"/>
      <point x="48" y="160" type="curve" smooth="yes"/>
      <point x="48" y="46"/>
      <point x="107" y="-11"/>
    </contour>
  </outline>
</glyph>
<glyph name="e" format="2">
  <advance width="380"/>
  <unicode hex="0065"/>
  <anchor x="297" y="466" name="aboveLC"/>
  <anchor x="180" y="-20" name="belowLC"/>
  <anchor x="227" y="0" name="ogonek"/>
  <outline>
    <contour>
      <point x="190" y="-11" type="curve" smooth="yes"/>
      <point x="262" y="-11"/>
      <point x="322" y="41"/>
      <point x="361" y="104" type="curve"/>
      <point x="339" y="122" type="line"/>
      <point x="313" y="90"/>
      <point x="272" y="55"/>
      <point x="215" y="55" type="curve" smooth="yes"/>
      <point x="155" y="55"/>
      <point x="120" y="91"/>
      <point x="120" y="180" type="curve" smooth="yes"/>
      <point x="120" y="301"/>
      <point x="214" y="408"/>
      <point x="273" y="408" type="curve" smooth="yes"/>
      <point x="302" y="408"/>
      <point x="322" y="389"/>
      <point x="322" y="355" type="curve" smooth="yes"/>
      <point x="322" y="302"/>
      <point x="264" y="234"/>
      <point x="92" y="190" type="curve"/>
      <point x="95" y="155" type="line"/>
      <point x="322" y="213"/>
      <point x="389" y="299"/>
      <point x="389" y="362" type="curve" smooth="yes"/>
      <point x="389" y="417"/>
      <point x="355" y="449"/>
      <point x="292" y="449" type="curve" smooth="yes"/>
      <point x="161" y="449"/>
      <point x="48" y="309"/>
      <point x="48" y="159" type="curve" smooth="yes"/>
      <point x="48" y="42"/>
      <point x="107" y="-11"/>
    </contour>
  </outline>
</glyph>
<glyph name="g" format="2">
  <advance width="451"/>
  <unicode hex="0067"/>
  <anchor x="276" y="466" name="aboveLC"/>
  <anchor x="144" y="-222" name="belowLC"/>
  <outline>
    <contour>
      <point x="50" y="72" type="curve" smooth="yes"/>
      <point x="50" y="45"/>
      <point x="68" y="7"/>
      <point x="136" y="0" type="curve" smooth="yes"/>
      <point x="216" y="-9" type="line" smooth="yes"/>
      <point x="307" y="-20"/>
      <point x="329" y="-48"/>
      <point x="329" y="-82" type="curve" smooth="yes"/>
      <point x="329" y="-138"/>
      <point x="266" y="-176"/>
      <point x="170" y="-176" type="curve" smooth="yes"/>
      <point x="95" y="-176"/>
      <point x="51" y="-145"/>
      <point x="51" y="-93" type="curve" smooth="yes"/>
      <point x="51" y="-52"/>
      <point x="80" y="-23"/>
      <point x="138" y="12" type="curve"/>
      <point x="120" y="23" type="line"/>
      <point x="46" y="-1"/>
      <point x="-23" y="-61"/>
      <point x="-23" y="-124" type="curve" smooth="yes"/>
      <point x="-23" y="-189"/>
      <point x="40" y="-220"/>
      <point x="128" y="-220" type="curve" smooth="yes"/>
      <point x="284" y="-220"/>
      <point x="398" y="-142"/>
      <point x="398" y="-45" type="curve" smooth="yes"/>
      <point x="398" y="8"/>
      <point x="362" y="43"/>
      <point x="263" y="56" type="curve" smooth="yes"/>
      <point x="168" y="68" type="line" smooth="yes"/>
      <point x="131" y="71"/>
      <point x="120" y="92"/>
      <point x="120" y="108" type="curve" smooth="yes"/>
      <point x="120" y="124"/>
      <point x="124" y="138"/>
      <point x="161" y="176" type="curve"/>
      <point x="149" y="186" type="line"/>
      <point x="88" y="149"/>
      <point x="50" y="115"/>
    </contour>
    <contour>
      <point x="222" y="172" type="curve" smooth="yes"/>
      <point x="175" y="172"/>
      <point x="152" y="208"/>
      <point x="152" y="273" type="curve" smooth="yes"/>
      <point x="152" y="357"/>
      <point x="183" y="416"/>
      <point x="244" y="418" type="curve" smooth="yes"/>
      <point x="282" y="419"/>
      <point x="313" y="382"/>
      <point x="313" y="322" type="curve" smooth="yes"/>
      <point x="313" y="225"/>
      <point x="278" y="173"/>
    </contour>
    <contour>
      <point x="75" y="267" type="curve" smooth="yes"/>
      <point x="75" y="193"/>
      <point x="126" y="141"/>
      <point x="213" y="141" type="curve" smooth="yes"/>
      <point x="292" y="141"/>
      <point x="356" y="196"/>
      <point x="384" y="314" type="curve" smooth="yes"/>
      <point x="391" y="345"/>
      <point x="397" y="367"/>
      <point x="407" y="389" type="curve"/>
      <point x="386" y="363" type="line"/>
      <point x="454" y="382"/>
      <point x="492" y="392"/>
      <point x="492" y="435" type="curve" smooth="yes"/>
      <point x="492" y="443"/>
      <point x="488" y="448"/>
      <point x="483" y="454" type="curve"/>
      <point x="476" y="458"/>
      <point x="467" y="460"/>
      <point x="455" y="460" type="curve" smooth="yes"/>
      <point x="417" y="460"/>
      <point x="380" y="432"/>
      <point x="364" y="344" type="curve"/>
      <point x="371" y="345" type="line"/>
      <point x="366" y="409"/>
      <point x="319" y="449"/>
      <point x="252" y="449" type="curve" smooth="yes"/>
      <point x="155" y="449"/>
      <point x="75" y="368"/>
    </contour>
  </outline>
</glyph>
<glyph name="j" format="2">
  <advance width="233"/>
  <unicode hex="006A"/>
  <anchor x="223" y="677" name="aboveLC"/>
  <anchor x="-14" y="-230" name="belowLC"/>
  <outline>
    <contour>
      <point x="219" y="570" type="curve" smooth="yes"/>
      <point x="249" y="570"/>
      <point x="276" y="599"/>
      <point x="276" y="630" type="curve" smooth="yes"/>
      <point x="276" y="664"/>
      <point x="254" y="685"/>
      <point x="224" y="685" type="curve" smooth="yes"/>
      <point x="195" y="685"/>
      <point x="167" y="657"/>
      <point x="167" y="625" type="curve" smooth="yes"/>
      <point x="167" y="590"/>
      <point x="189" y="570"/>
    </contour>
    <contour>
      <point x="-56" y="-226" type="line"/>
      <point x="-20" y="-221"/>
      <point x="13" y="-205"/>
      <point x="44" y="-178" type="curve" smooth="yes"/>
      <point x="99" y="-130"/>
      <point x="135" y="-61"/>
      <point x="152" y="25" type="curve" smooth="yes"/>
      <point x="232" y="439" type="line"/>
      <point x="220" y="449" type="line"/>
      <point x="60" y="402" type="line"/>
      <point x="57" y="374" type="line"/>
      <point x="169" y="366" type="line"/>
      <point x="148" y="381" type="line"/>
      <point x="83" y="44" type="line" smooth="yes"/>
      <point x="63" y="-65"/>
      <point x="39" y="-112"/>
      <point x="10" y="-150" type="curve" smooth="yes"/>
      <point x="-8" y="-173"/>
      <point x="-31" y="-186"/>
      <point x="-63" y="-200" type="curve"/>
    </contour>
  </outline>
</glyph>
<glyph name="l" format="2">
  <advance width="259"/>
  <unicode hex="006C"/>
  <anchor x="220" y="677" name="aboveLC"/>
  <anchor x="119" y="-20" name="belowLC"/>
  <outline>
    <contour>
      <point x="120" y="-11" type="curve" smooth="yes"/>
      <point x="186" y="-11"/>
      <point x="234" y="46"/>
      <point x="273" y="101" type="curve"/>
      <point x="251" y="118" type="line"/>
      <point x="215" y="77"/>
      <point x="185" y="53"/>
      <point x="166" y="53" type="curve" smooth="yes"/>
      <point x="155" y="53"/>
      <point x="144" y="60"/>
      <point x="144" y="74" type="curve" smooth="yes"/>
      <point x="144" y="83"/>
      <point x="147" y="102"/>
      <point x="152" y="126" type="curve" smooth="yes"/>
      <point x="263" y="670" type="line"/>
      <point x="253" y="678" type="line"/>
      <point x="90" y="632" type="line"/>
      <point x="86" y="604" type="line"/>
      <point x="195" y="595" type="line"/>
      <point x="173" y="624" type="line"/>
      <point x="165" y="560"/>
      <point x="153" y="496"/>
      <point x="139" y="433" type="curve" smooth="yes"/>
      <point x="75" y="109" type="line" smooth="yes"/>
      <point x="69" y="74"/>
      <point x="66" y="56"/>
      <point x="66" y="42" type="curve" smooth="yes"/>
      <point x="66" y="5"/>
      <point x="90" y="-11"/>
    </contour>
  </outline>
</glyph>
<glyph name="t" format="2">
  <advance width="304"/>
  <unicode hex="0074"/>
  <anchor x="233" y="578" name="aboveLC"/>
  <anchor x="130" y="0" name="baseLC"/>
  <anchor x="124" y="-20" name="belowLC"/>
  <outline>
    <contour>
      <point x="59" y="391" type="line"/>
      <point x="185" y="391" type="line"/>
      <point x="340" y="386" type="line"/>
      <point x="347" y="437" type="line"/>
      <point x="189" y="437" type="line"/>
      <point x="189" y="440" type="line"/>
      <point x="66" y="428" type="line"/>
    </contour>
    <contour>
      <point x="89" y="106" type="line" smooth="yes"/>
      <point x="82" y="69"/>
      <point x="80" y="51"/>
      <point x="80" y="36" type="curve" smooth="yes"/>
      <point x="80" y="4"/>
      <point x="104" y="-11"/>
      <point x="133" y="-11" type="curve" smooth="yes"/>
      <point x="197" y="-11"/>
      <point x="253" y="45"/>
      <point x="292" y="101" type="curve"/>
      <point x="269" y="118" type="line"/>
      <point x="232" y="75"/>
      <point x="205" y="53"/>
      <point x="181" y="53" type="curve" smooth="yes"/>
      <point x="171" y="53"/>
      <point x="160" y="60"/>
      <point x="160" y="74" type="curve" smooth="yes"/>
      <point x="160" y="83"/>
      <point x="162" y="102"/>
      <point x="168" y="126" type="curve" smooth="yes"/>
      <point x="260" y="562" type="line"/>
      <point x="208" y="562" type="line"/>
      <point x="156" y="417" type="line"/>
    </contour>
  </outline>
</glyph>
<glyph name="braceleft" format="2">
  <advance width="345"/>
  <unicode hex="007B"/>
  <outline>
    <contour>
      <point x="59" y="236" type="line"/>
      <point x="124" y="228"/>
      <point x="149" y="205"/>
      <point x="149" y="169" type="curve" smooth="yes"/>
      <point x="149" y="107"/>
      <point x="87" y="20"/>
      <point x="87" y="-61" type="curve" smooth="yes"/>
      <point x="87" y="-117"/>
      <point x="130" y="-146"/>
      <point x="207" y="-146" type="curve" smooth="yes"/>
      <point x="253" y="-146" type="line"/>
      <point x="261" y="-108" type="line"/>
      <point x="230" y="-105" type="line" smooth="yes"/>
      <point x="180" y="-101"/>
      <point x="157" y="-88"/>
      <point x="157" y="-53" type="curve" smooth="yes"/>
      <point x="157" y="1"/>
      <point x="201" y="123"/>
      <point x="201" y="175" type="curve" smooth="yes"/>
      <point x="201" y="226"/>
      <point x="170" y="258"/>
      <point x="97" y="260" type="curve"/>
      <point x="95" y="251" type="line"/>
      <point x="184" y="253"/>
      <point x="244" y="303"/>
      <point x="244" y="382" type="curve" smooth="yes"/>
      <point x="244" y="411"/>
      <point x="241" y="467"/>
      <point x="241" y="503" type="curve" smooth="yes"/>
      <point x="241" y="584"/>
      <point x="264" y="614"/>
      <point x="359" y="619" type="curve" smooth="yes"/>
      <point x="381" y="620" type="line"/>
      <point x="388" y="657" type="line"/>
      <point x="353" y="657" type="line" smooth="yes"/>
      <point x="228" y="657"/>
      <point x="172" y="607"/>
      <point x="172" y="507" type="curve" smooth="yes"/>
      <point x="172" y="462"/>
      <point x="187" y="417"/>
      <point x="187" y="386" type="curve" smooth="yes"/>
      <point x="187" y="324"/>
      <point x="156" y="286"/>
      <point x="68" y="275" type="curve"/>
    </contour>
  </outline>
</glyph>
<glyph name="sterling" format="2">
  <advance width="473"/>
  <unicode hex="00A3"/>
  <outline>
    <contour>
      <point x="4" y="0" type="line"/>
      <point x="383" y="0" type="line"/>
      <point x="400" y="79" type="line"/>
      <point x="75" y="79" type="line"/>
      <point x="75" y="63" type="line"/>
      <point x="165" y="118"/>
      <point x="230" y="201"/>
      <point x="230" y="284" type="curve" smooth="yes"/>
      <point x="230" y="333"/>
      <point x="206" y="362"/>
      <point x="206" y="436" type="curve" smooth="yes"/>
      <point x="206" y="502"/>
      <point x="249" y="563"/>
      <point x="328" y="563" type="curve" smooth="yes"/>
      <point x="356" y="563"/>
      <point x="385" y="559"/>
      <point x="419" y="544" type="curve"/>
      <point x="366" y="572" type="line"/>
      <point x="368" y="545"/>
      <point x="370" y="518"/>
      <point x="372" y="492" type="curve" smooth="yes"/>
      <point x="375" y="443"/>
      <point x="390" y="428"/>
      <point x="419" y="428" type="curve" smooth="yes"/>
      <point x="436" y="428"/>
      <point x="451" y="437"/>
      <point x="462" y="459" type="curve"/>
      <point x="462" y="556"/>
      <point x="408" y="605"/>
      <point x="309" y="605" type="curve" smooth="yes"/>
      <point x="198" y="605"/>
      <point x="119" y="529"/>
      <point x="119" y="439" type="curve" smooth="yes"/>
      <point x="119" y="371"/>
      <point x="165" y="332"/>
      <point x="165" y="279" type="curve" smooth="yes"/>
      <point x="165" y="189"/>
      <point x="105" y="114"/>
      <point x="16" y="57" type="curve"/>
    </contour>
    <contour>
      <point x="63" y="258" type="line"/>
      <point x="348" y="258" type="line"/>
      <point x="357" y="305" type="line"/>
      <point x="73" y="305" type="line"/>
    </contour>
  </outline>
</glyph>
<glyph name="copyright" format="2">
  <advance width="712"/>
  <unicode hex="00A9"/>
  <outline>
    <contour>
      <point x="362" y="-13" type="curve" smooth="yes"/>
      <point x="542" y="-13"/>
      <point x="711" y="119"/>
      <point x="711" y="343" type="curve" smooth="yes"/>
      <point x="711" y="522"/>
      <point x="586" y="629"/>
      <point x="416" y="629" type="curve" smooth="yes"/>
      <point x="236" y="629"/>
      <point x="68" y="494"/>
      <point x="68" y="270" type="curve" smooth="yes"/>
      <point x="68" y="91"/>
      <point x="192" y="-13"/>
    </contour>
    <contour>
      <point x="359" y="23" type="curve" smooth="yes"/>
      <point x="218" y="23"/>
      <point x="115" y="115"/>
      <point x="115" y="275" type="curve" smooth="yes"/>
      <point x="115" y="471"/>
      <point x="260" y="591"/>
      <point x="419" y="591" type="curve" smooth="yes"/>
      <point x="560" y="591"/>
      <point x="663" y="497"/>
      <point x="663" y="339" type="curve" smooth="yes"/>
      <point x="663" y="141"/>
      <point x="519" y="23"/>
    </contour>
    <contour>
      <point x="385" y="123" type="curve" smooth="yes"/>
      <point x="424" y="123"/>
      <point x="453" y="134"/>
      <point x="482" y="147" type="curve"/>
      <point x="496" y="232" type="line"/>
      <point x="456" y="232" type="line"/>
      <point x="429" y="147" type="line"/>
      <point x="469" y="177" type="line"/>
      <point x="446" y="165"/>
      <point x="421" y="157"/>
      <point x="396" y="157" type="curve" smooth="yes"/>
      <point x="338" y="157"/>
      <point x="287" y="202"/>
      <point x="287" y="292" type="curve" smooth="yes"/>
      <point x="287" y="384"/>
      <point x="338" y="462"/>
      <point x="426" y="462" type="curve" smooth="yes"/>
      <point x="458" y="462"/>
      <point x="486" y="453"/>
      <point x="505" y="437" type="curve"/>
      <point x="474" y="468" type="line"/>
      <point x="474" y="385" type="line"/>
      <point x="514" y="385" type="line"/>
      <point x="526" y="469" type="line"/>
      <point x="493" y="490"/>
      <point x="465" y="497"/>
      <point x="430" y="497" type="curve" smooth="yes"/>
      <point x="312" y="497"/>
      <point x="227" y="406"/>
      <point x="227" y="287" type="curve" smooth="yes"/>
      <point x="227" y="187"/>
      <point x="293" y="123"/>
    </contour>
  </outline>
</glyph>
<glyph name="registered" format="2">
  <advance width="426"/>
  <unicode hex="00AE"/>
  <outline>
    <contour>
      <point x="264" y="290" type="curve" smooth="yes"/>
      <point x="367" y="290"/>
      <point x="462" y="367"/>
      <point x="462" y="494" type="curve" smooth="yes"/>
      <point x="462" y="595"/>
      <point x="391" y="655"/>
      <point x="296" y="655" type="curve" smooth="yes"/>
      <point x="193" y="655"/>
      <point x="98" y="578"/>
      <point x="98" y="452" type="curve" smooth="yes"/>
      <point x="98" y="350"/>
      <point x="168" y="290"/>
    </contour>
    <contour>
      <point x="264" y="320" type="curve" smooth="yes"/>
      <point x="189" y="320"/>
      <point x="134" y="369"/>
      <point x="134" y="454" type="curve" smooth="yes"/>
      <point x="134" y="561"/>
      <point x="211" y="626"/>
      <point x="298" y="626" type="curve" smooth="yes"/>
      <point x="370" y="626"/>
      <point x="425" y="575"/>
      <point x="425" y="491" type="curve" smooth="yes"/>
      <point x="425" y="384"/>
      <point x="349" y="320"/>
    </contour>
    <contour>
      <point x="367" y="385" type="curve"/>
      <point x="369" y="400" type="line"/>
      <point x="330" y="404" type="line"/>
      <point x="349" y="392" type="line"/>
      <point x="332" y="440" type="line" smooth="yes"/>
      <point x="323" y="464"/>
      <point x="312" y="475"/>
      <point x="288" y="475" type="curve"/>
      <point x="280" y="471" type="line"/>
      <point x="336" y="471"/>
      <point x="360" y="492"/>
      <point x="360" y="523" type="curve" smooth="yes"/>
      <point x="360" y="553"/>
      <point x="338" y="569"/>
      <point x="303" y="569" type="curve" smooth="yes"/>
      <point x="271" y="569" type="line"/>
      <point x="268" y="553" type="line"/>
      <point x="300" y="553" type="line" smooth="yes"/>
      <point x="316" y="553"/>
      <point x="323" y="545"/>
      <point x="323" y="524" type="curve" smooth="yes"/>
      <point x="323" y="499"/>
      <point x="310" y="483"/>
      <point x="282" y="483" type="curve" smooth="yes"/>
      <point x="253" y="483" type="line"/>
      <point x="252" y="467" type="line"/>
      <point x="271" y="467" type="line" smooth="yes"/>
      <point x="284" y="467"/>
      <point x="287" y="461"/>
      <point x="292" y="443" type="curve" smooth="yes"/>
      <point x="304" y="406" type="line" smooth="yes"/>
      <point x="310" y="387"/>
      <point x="317" y="382"/>
      <point x="337" y="382" type="curve" smooth="yes"/>
      <point x="347" y="382"/>
      <point x="355" y="382"/>
    </contour>
    <contour>
      <point x="207" y="385" type="line"/>
      <point x="247" y="385" type="line"/>
      <point x="285" y="569" type="line"/>
      <point x="245" y="569" type="line"/>
    </contour>
    <contour>
      <point x="218" y="555" type="line"/>
      <point x="256" y="551" type="line"/>
      <point x="261" y="551" type="line"/>
      <point x="264" y="569" type="line"/>
      <point x="221" y="569" type="line"/>
    </contour>
    <contour>
      <point x="184" y="385" type="line"/>
      <point x="270" y="385" type="line"/>
      <point x="273" y="400" type="line"/>
      <point x="234" y="403" type="line"/>
      <point x="227" y="403" type="line"/>
      <point x="187" y="400" type="line"/>
    </contour>
  </outline>
</glyph>
<glyph name="degree" format="2">
  <advance width="301"/>
  <unicode hex="00B0"/>
  <outline>
    <contour>
      <point x="225" y="425" type="curve" smooth="yes"/>
      <point x="181" y="425"/>
      <point x="147" y="461"/>
      <point x="147" y="509" type="curve" smooth="yes"/>
      <point x="147" y="557"/>
      <point x="181" y="595"/>
      <point x="225" y="595" type="curve" smooth="yes"/>
      <point x="268" y="595"/>
      <point x="302" y="557"/>
      <point x="302" y="509" type="curve" smooth="yes"/>
      <point x="302" y="461"/>
      <point x="268" y="425"/>
    </contour>
    <contour>
      <point x="225" y="391" type="curve" smooth="yes"/>
      <point x="288" y="391"/>
      <point x="342" y="437"/>
      <point x="342" y="509" type="curve" smooth="yes"/>
      <point x="342" y="582"/>
      <point x="288" y="629"/>
      <point x="225" y="629" type="curve" smooth="yes"/>
      <point x="161" y="629"/>
      <point x="107" y="582"/>
      <point x="107" y="509" type="curve" smooth="yes"/>
      <point x="107" y="437"/>
      <point x="161" y="391"/>
    </contour>
  </outline>
</glyph>
<glyph name="two.sups" format="2">
  <advance width="321"/>
  <unicode hex="00B2"/>
  <outline>
    <contour>
      <point x="92" y="390" type="line"/>
      <point x="327" y="390" type="line"/>
      <point x="339" y="449" type="line"/>
      <point x="144" y="449" type="line"/>
      <point x="149" y="443" type="line"/>
      <point x="318" y="580"/>
      <point x="369" y="616"/>
      <point x="369" y="676" type="curve" smooth="yes"/>
      <point x="369" y="725"/>
      <point x="338" y="762"/>
      <point x="269" y="762" type="curve" smooth="yes"/>
      <point x="202" y="762"/>
      <point x="153" y="736"/>
      <point x="137" y="665" type="curve"/>
      <point x="138" y="644"/>
      <point x="149" y="633"/>
      <point x="166" y="633" type="curve" smooth="yes"/>
      <point x="187" y="633"/>
      <point x="200" y="645"/>
      <point x="203" y="684" type="curve" smooth="yes"/>
      <point x="207" y="743" type="line"/>
      <point x="179" y="706" type="line"/>
      <point x="197" y="724"/>
      <point x="220" y="732"/>
      <point x="244" y="732" type="curve" smooth="yes"/>
      <point x="280" y="732"/>
      <point x="301" y="712"/>
      <point x="301" y="673" type="curve" smooth="yes"/>
      <point x="301" y="628"/>
      <point x="271" y="587"/>
      <point x="101" y="435" type="curve"/>
    </contour>
  </outline>
</glyph>
<glyph name="three.sups" format="2">
  <advance width="321"/>
  <unicode hex="00B3"/>
  <outline>
    <contour>
      <point x="206" y="381" type="curve" smooth="yes"/>
      <point x="287" y="381"/>
      <point x="349" y="423"/>
      <point x="349" y="488" type="curve" smooth="yes"/>
      <point x="349" y="541"/>
      <point x="317" y="571"/>
      <point x="245" y="578" type="curve"/>
      <point x="243" y="570" type="line"/>
      <point x="322" y="581"/>
      <point x="367" y="622"/>
      <point x="367" y="677" type="curve" smooth="yes"/>
      <point x="367" y="724"/>
      <point x="333" y="762"/>
      <point x="262" y="762" type="curve" smooth="yes"/>
      <point x="196" y="762"/>
      <point x="152" y="730"/>
      <point x="146" y="673" type="curve"/>
      <point x="150" y="662"/>
      <point x="162" y="655"/>
      <point x="174" y="655" type="curve" smooth="yes"/>
      <point x="192" y="655"/>
      <point x="206" y="667"/>
      <point x="208" y="691" type="curve" smooth="yes"/>
      <point x="216" y="745" type="line"/>
      <point x="192" y="721" type="line"/>
      <point x="209" y="729"/>
      <point x="229" y="734"/>
      <point x="246" y="734" type="curve" smooth="yes"/>
      <point x="279" y="734"/>
      <point x="302" y="715"/>
      <point x="302" y="674" type="curve" smooth="yes"/>
      <point x="302" y="616"/>
      <point x="261" y="587"/>
      <point x="196" y="587" type="curve"/>
      <point x="191" y="559" type="line"/>
      <point x="253" y="559"/>
      <point x="278" y="538"/>
      <point x="278" y="493" type="curve" smooth="yes"/>
      <point x="278" y="437"/>
      <point x="239" y="410"/>
      <point x="195" y="410" type="curve" smooth="yes"/>
      <point x="172" y="410"/>
      <point x="154" y="415"/>
      <point x="137" y="426" type="curve"/>
      <point x="162" y="402" type="line"/>
      <point x="161" y="457" type="line" smooth="yes"/>
      <point x="160" y="488"/>
      <point x="149" y="500"/>
      <point x="130" y="500" type="curve" smooth="yes"/>
      <point x="117" y="500"/>
      <point x="106" y="493"/>
      <point x="100" y="478" type="curve"/>
      <point x="100" y="411"/>
      <point x="141" y="381"/>
    </contour>
  </outline>
</glyph>
<glyph name="mu" format="2">
  <advance width="490"/>
  <unicode hex="00B5"/>
  <outline>
    <contour>
      <point x="10" y="-173" type="line"/>
      <point x="89" y="-160" type="line"/>
      <point x="116" y="75" type="line"/>
      <point x="138" y="94" type="line"/>
      <point x="152" y="170"/>
      <point x="170" y="244"/>
      <point x="218" y="439" type="curve"/>
      <point x="210" y="449" type="line"/>
      <point x="127" y="432" type="line"/>
      <point x="73" y="95" type="line"/>
      <point x="0" y="-165" type="line"/>
    </contour>
    <contour>
      <point x="188" y="-11" type="curve" smooth="yes"/>
      <point x="234" y="-11"/>
      <point x="299" y="33"/>
      <point x="345" y="123" type="curve"/>
      <point x="340" y="149" type="line"/>
      <point x="298" y="89"/>
      <point x="250" y="61"/>
      <point x="206" y="61" type="curve" smooth="yes"/>
      <point x="171" y="61"/>
      <point x="142" y="81"/>
      <point x="131" y="131" type="curve"/>
      <point x="102" y="84" type="line"/>
      <point x="110" y="24"/>
      <point x="141" y="-11"/>
    </contour>
    <contour>
      <point x="384" y="-11" type="curve" smooth="yes"/>
      <point x="418" y="-11"/>
      <point x="453" y="12"/>
      <point x="488" y="57" type="curve"/>
      <point x="472" y="79" type="line"/>
      <point x="453" y="63"/>
      <point x="437" y="52"/>
      <point x="421" y="52" type="curve" smooth="yes"/>
      <point x="402" y="52"/>
      <point x="394" y="62"/>
      <point x="394" y="88" type="curve" smooth="yes"/>
      <point x="394" y="125"/>
      <point x="409" y="193"/>
      <point x="447" y="328" type="curve" smooth="yes"/>
      <point x="477" y="439" type="line"/>
      <point x="470" y="449" type="line"/>
      <point x="388" y="432" type="line"/>
      <point x="348" y="226" type="line" smooth="yes"/>
      <point x="325" y="106"/>
      <point x="322" y="81"/>
      <point x="322" y="61" type="curve" smooth="yes"/>
      <point x="322" y="14"/>
      <point x="345" y="-11"/>
    </contour>
  </outline>
</glyph>
<glyph name="guillemotright" format="2">
  <advance width="514"/>
  <unicode hex="00BB"/>
  <outline>
    <contour>
      <point x="311" y="420" type="line"/>
      <point x="284" y="394" type="line"/>
      <point x="420" y="212" type="line"/>
      <point x="427" y="252" type="line"/>
      <point x="236" y="72" type="line"/>
      <point x="257" y="44" type="line"/>
      <point x="468" y="207" type="line"/>
      <point x="477" y="257" type="line"/>
    </contour>
    <contour>
      <point x="122" y="420" type="line"/>
      <point x="94" y="394" type="line"/>
      <point x="230" y="212" type="line"/>
      <point x="238" y="252" type="line"/>
      <point x="46" y="72" type="line"/>
      <point x="68" y="44" type="line"/>
      <point x="279" y="207" type="line"/>
      <point x="287" y="257" type="line"/>
    </contour>
  </outline>
</glyph>
<glyph name="Atilde" format="2">
  <advance width="623"/>
  <unicode hex="00C3"/>
  <anchor x="431" y="802" name="aboveUC"/>
  <anchor x="257" y="-20" name="belowLC"/>
  <anchor x="484" y="0" name="ogonek"/>
  <outline>
    <contour>
      <point x="-26" y="0" type="line"/>
      <point x="179" y="0" type="line"/>
      <point x="187" y="38" type="line"/>
      <point x="96" y="52" type="line"/>
      <point x="79" y="52" type="line"/>
      <point x="-19" y="38" type="line"/>
    </contour>
    <contour>
      <point x="30" y="0" type="line"/>
      <point x="81" y="0" type="line"/>
      <point x="368" y="546" type="line"/>
      <point x="353" y="541" type="line"/>
      <point x="426" y="0" type="line"/>
      <point x="516" y="0" type="line"/>
      <point x="427" y="614" type="line"/>
      <point x="369" y="614" type="line"/>
    </contour>
    <contour>
      <point x="177" y="218" type="line"/>
      <point x="441" y="218" type="line"/>
      <point x="451" y="262" type="line"/>
      <point x="191" y="262" type="line"/>
    </contour>
    <contour>
      <point x="333" y="0" type="line"/>
      <point x="582" y="0" type="line"/>
      <point x="589" y="38" type="line"/>
      <point x="478" y="52" type="line"/>
      <point x="460" y="52" type="line"/>
      <point x="341" y="38" type="line"/>
    </contour>
    <contour>
      <point x="239" y="674" type="curve"/>
      <point x="265" y="665" type="line"/>
      <point x="288" y="719"/>
      <point x="311" y="737"/>
      <point x="341" y="737" type="curve" smooth="yes"/>
      <point x="368" y="737"/>
      <point x="384" y="713"/>
      <point x="402" y="694" type="curve" smooth="yes"/>
      <point x="420" y="678"/>
      <point x="439" y="663"/>
      <point x="473" y="663" type="curve" smooth="yes"/>
      <point x="529" y="663"/>
      <point x="565" y="701"/>
      <point x="591" y="782" type="curve"/>
      <point x="564" y="792" type="line"/>
      <point x="541" y="737"/>
      <point x="519" y="718"/>
      <point x="488" y="718" type="curve" smooth="yes"/>
      <point x="461" y="718"/>
      <point x="448" y="743"/>
      <point x="427" y="761" type="curve" smooth="yes"/>
      <point x="410" y="778"/>
      <point x="392" y="793"/>
      <point x="357" y="793" type="curve" smooth="yes"/>
      <point x="302" y="793"/>
      <point x="264" y="755"/>
    </contour>
  </outline>
</glyph>
<glyph name="Eacute" format="2">
  <advance width="540"/>
  <unicode hex="00C9"/>
  <anchor x="431" y="798" name="aboveUC"/>
  <anchor x="280" y="-20" name="belowLC"/>
  <anchor x="391" y="0" name="ogonek"/>
  <outline>
    <contour>
      <point x="12" y="0" type="line"/>
      <point x="131" y="0" type="line"/>
      <point x="140" y="52" type="line"/>
      <point x="134" y="52" type="line"/>
      <point x="20" y="38" type="line"/>
    </contour>
    <contour>
      <point x="90" y="0" type="line"/>
      <point x="178" y="0" type="line"/>
      <point x="194" y="94"/>
      <point x="210" y="190"/>
      <point x="228" y="285" type="curve" smooth="yes"/>
      <point x="289" y="614" type="line"/>
      <point x="200" y="614" type="line"/>
      <point x="185" y="519"/>
      <point x="169" y="424"/>
      <point x="151" y="329" type="curve" smooth="yes"/>
    </contour>
    <contour>
      <point x="110" y="575" type="line"/>
      <point x="223" y="562" type="line"/>
      <point x="235" y="562" type="line"/>
      <point x="245" y="614" type="line"/>
      <point x="118" y="614" type="line"/>
    </contour>
    <contour>
      <point x="131" y="0" type="line"/>
      <point x="473" y="0" type="line"/>
      <point x="510" y="162" type="line"/>
      <point x="460" y="162" type="line"/>
      <point x="402" y="0" type="line"/>
      <point x="456" y="46" type="line"/>
      <point x="140" y="46" type="line"/>
    </contour>
    <contour>
      <point x="188" y="292" type="line"/>
      <point x="393" y="292" type="line"/>
      <point x="402" y="335" type="line"/>
      <point x="196" y="335" type="line"/>
    </contour>
    <contour>
      <point x="236" y="567" type="line"/>
      <point x="507" y="567" type="line"/>
      <point x="474" y="614" type="line"/>
      <point x="474" y="451" type="line"/>
      <point x="524" y="451" type="line"/>
      <point x="546" y="614" type="line"/>
      <point x="245" y="614" type="line"/>
    </contour>
    <contour>
      <point x="365" y="207" type="line"/>
      <point x="404" y="207" type="line"/>
      <point x="446" y="422" type="line"/>
      <point x="405" y="422" type="line"/>
      <point x="371" y="326" type="line"/>
      <point x="368" y="308" type="line"/>
    </contour>
    <contour>
      <point x="336" y="675" type="curve"/>
      <point x="349" y="654" type="line"/>
      <point x="396" y="674"/>
      <point x="442" y="693"/>
      <point x="489" y="713" type="curve" smooth="yes"/>
      <point x="533" y="734"/>
      <point x="540" y="748"/>
      <point x="540" y="765" type="curve" smooth="yes"/>
      <point x="540" y="785"/>
      <point x="524" y="798"/>
      <point x="505" y="798" type="curve" smooth="yes"/>
      <point x="482" y="798"/>
      <point x="471" y="789"/>
      <point x="440" y="764" type="curve" smooth="yes"/>
      <point x="405" y="735"/>
      <point x="371" y="705"/>
    </contour>
  </outline>
</glyph>
<glyph name="Edieresis" format="2">
  <advance width="540"/>
  <unicode hex="00CB"/>
  <anchor x="392" y="792" name="aboveUC"/>
  <anchor x="280" y="-20" name="belowLC"/>
  <anchor x="391" y="0" name="ogonek"/>
  <outline>
    <contour>
      <point x="12" y="0" type="line"/>
      <point x="131" y="0" type="line"/>
      <point x="140" y="52" type="line"/>
      <point x="134" y="52" type="line"/>
      <point x="20" y="38" type="line"/>
    </contour>
    <contour>
      <point x="90" y="0" type="line"/>
      <point x="178" y="0" type="line"/>
      <point x="194" y="94"/>
      <point x="210" y="190"/>
      <point x="228" y="285" type="curve" smooth="yes"/>
      <point x="289" y="614" type="line"/>
      <point x="200" y="614" type="line"/>
      <point x="185" y="519"/>
      <point x="169" y="424"/>
      <point x="151" y="329" type="curve" smooth="yes"/>
    </contour>
    <contour>
      <point x="110" y="575" type="line"/>
      <point x="223" y="562" type="line"/>
      <point x="235" y="562" type="line"/>
      <point x="245" y="614" type="line"/>
      <point x="118" y="614" type="line"/>
    </contour>
    <contour>
      <point x="131" y="0" type="line"/>
      <point x="473" y="0" type="line"/>
      <point x="510" y="162" type="line"/>
      <point x="460" y="162" type="line"/>
      <point x="402" y="0" type="line"/>
      <point x="456" y="46" type="line"/>
      <point x="140" y="46" type="line"/>
    </contour>
    <contour>
      <point x="188" y="292" type="line"/>
      <point x="393" y="292" type="line"/>
      <point x="402" y="335" type="line"/>
      <point x="196" y="335" type="line"/>
    </contour>
    <contour>
      <point x="236" y="567" type="line"/>
      <point x="507" y="567" type="line"/>
      <point x="474" y="614" type="line"/>
      <point x="474" y="451" type="line"/>
      <point x="524" y="451" type="line"/>
      <point x="546" y="614" type="line"/>
      <point x="245" y="614" type="line"/>
    </contour>
    <contour>
      <point x="365" y="207" type="line"/>
      <point x="404" y="207" type="line"/>
      <point x="446" y="422" type="line"/>
      <point x="405" y="422" type="line"/>
      <point x="371" y="326" type="line"/>
      <point x="368" y="308" type="line"/>
    </contour>
    <contour>
      <point x="270" y="684" type="curve" smooth="yes"/>
      <point x="299" y="684"/>
      <point x="322" y="707"/>
      <point x="322" y="740" type="curve" smooth="yes"/>
      <point x="322" y="764"/>
      <point x="304" y="782"/>
      <point x="279" y="782" type="curve" smooth="yes"/>
      <point x="253" y="782"/>
      <point x="227" y="760"/>
      <point x="227" y="727" type="curve" smooth="yes"/>
      <point x="227" y="701"/>
      <point x="247" y="684"/>
    </contour>
    <contour>
      <point x="472" y="684" type="curve" smooth="yes"/>
      <point x="502" y="684"/>
      <point x="526" y="707"/>
      <point x="526" y="740" type="curve" smooth="yes"/>
      <point x="526" y="764"/>
      <point x="507" y="782"/>
      <point x="483" y="782" type="curve" smooth="yes"/>
      <point x="456" y="782"/>
      <point x="430" y="760"/>
      <point x="430" y="727" type="curve" smooth="yes"/>
      <point x="430" y="701"/>
      <point x="451" y="684"/>
    </contour>
  </outline>
</glyph>
<glyph name="Oacute" format="2">
  <advance width="608"/>
  <unicode hex="00D3"/>
  <anchor x="461" y="799" name="aboveUC"/>
  <anchor x="279" y="-19" name="belowLC"/>
  <anchor x="523" y="621" name="hornLC"/>
  <anchor x="362" y="0" name="ogonek"/>
  <outline>
    <contour>
      <point x="279" y="-13" type="curve" smooth="yes"/>
      <point x="475" y="-13"/>
      <point x="603" y="164"/>
      <point x="603" y="375" type="curve" smooth="yes"/>
      <point x="603" y="529"/>
      <point x="517" y="628"/>
      <point x="379" y="628" type="curve" smooth="yes"/>
      <point x="188" y="628"/>
      <point x="58" y="449"/>
      <point x="58" y="238" type="curve" smooth="yes"/>
      <point x="58" y="80"/>
      <point x="147" y="-13"/>
    </contour>
    <contour>
      <point x="292" y="33" type="curve" smooth="yes"/>
      <point x="192" y="33"/>
      <point x="147" y="113"/>
      <point x="147" y="233" type="curve" smooth="yes"/>
      <point x="147" y="430"/>
      <point x="238" y="581"/>
      <point x="369" y="581" type="curve" smooth="yes"/>
      <point x="471" y="581"/>
      <point x="515" y="504"/>
      <point x="515" y="379" type="curve" smooth="yes"/>
      <point x="515" y="184"/>
      <point x="424" y="33"/>
    </contour>
    <contour>
      <point x="368" y="676" type="curve"/>
      <point x="380" y="655" type="line"/>
      <point x="426" y="675"/>
      <point x="473" y="694"/>
      <point x="520" y="714" type="curve" smooth="yes"/>
      <point x="564" y="735"/>
      <point x="571" y="749"/>
      <point x="571" y="766" type="curve" smooth="yes"/>
      <point x="571" y="786"/>
      <point x="555" y="799"/>
      <point x="536" y="799" type="curve" smooth="yes"/>
      <point x="512" y="799"/>
      <point x="502" y="790"/>
      <point x="471" y="765" type="curve" smooth="yes"/>
      <point x="437" y="736"/>
      <point x="402" y="706"/>
    </contour>
  </outline>
</glyph>
<glyph name="Odieresis" format="2">
  <advance width="608"/>
  <unicode hex="00D6"/>
  <anchor x="407" y="792" name="aboveUC"/>
  <anchor x="279" y="-19" name="belowLC"/>
  <anchor x="523" y="621" name="hornLC"/>
  <anchor x="362" y="0" name="ogonek"/>
  <outline>
    <contour>
      <point x="279" y="-13" type="curve" smooth="yes"/>
      <point x="475" y="-13"/>
      <point x="603" y="164"/>
      <point x="603" y="375" type="curve" smooth="yes"/>
      <point x="603" y="529"/>
      <point x="517" y="628"/>
      <point x="379" y="628" type="curve" smooth="yes"/>
      <point x="188" y="628"/>
      <point x="58" y="449"/>
      <point x="58" y="238" type="curve" smooth="yes"/>
      <point x="58" y="80"/>
      <point x="147" y="-13"/>
    </contour>
    <contour>
      <point x="292" y="33" type="curve" smooth="yes"/>
      <point x="192" y="33"/>
      <point x="147" y="113"/>
      <point x="147" y="233" type="curve" smooth="yes"/>
      <point x="147" y="430"/>
      <point x="238" y="581"/>
      <point x="369" y="581" type="curve" smooth="yes"/>
      <point x="471" y="581"/>
      <point x="515" y="504"/>
      <point x="515" y="379" type="curve" smooth="yes"/>
      <point x="515" y="184"/>
      <point x="424" y="33"/>
    </contour>
    <contour>
      <point x="285" y="684" type="curve" smooth="yes"/>
      <point x="313" y="684"/>
      <point x="337" y="707"/>
      <point x="337" y="740" type="curve" smooth="yes"/>
      <point x="337" y="764"/>
      <point x="319" y="782"/>
      <point x="294" y="782" type="curve" smooth="yes"/>
      <point x="267" y="782"/>
      <point x="241" y="760"/>
      <point x="241" y="727" type="curve" smooth="yes"/>
      <point x="241" y="701"/>
      <point x="262" y="684"/>
    </contour>
    <contour>
      <point x="487" y="684" type="curve" smooth="yes"/>
      <point x="517" y="684"/>
      <point x="540" y="707"/>
      <point x="540" y="740" type="curve" smooth="yes"/>
      <point x="540" y="764"/>
      <point x="522" y="782"/>
      <point x="497" y="782" type="curve" smooth="yes"/>
      <point x="471" y="782"/>
      <point x="446" y="760"/>
      <point x="446" y="727" type="curve" smooth="yes"/>
      <point x="446" y="701"/>
      <point x="466" y="684"/>
    </contour>
  </outline>
</glyph>
<glyph name="Thorn" format="2">
  <advance width="520"/>
  <unicode hex="00DE"/>
  <outline>
    <contour>
      <point x="158" y="140" type="line"/>
      <point x="253" y="140" type="line" smooth="yes"/>
      <point x="425" y="140"/>
      <point x="523" y="220"/>
      <point x="523" y="333" type="curve" smooth="yes"/>
      <point x="523" y="430"/>
      <point x="452" y="492"/>
      <point x="305" y="492" type="curve" smooth="yes"/>
      <point x="228" y="492" type="line"/>
      <point x="218" y="448" type="line"/>
      <point x="298" y="448" type="line" smooth="yes"/>
      <point x="391" y="448"/>
      <point x="433" y="409"/>
      <point x="433" y="333" type="curve" smooth="yes"/>
      <point x="433" y="244"/>
      <point x="375" y="184"/>
      <point x="260" y="184" type="curve" smooth="yes"/>
      <point x="167" y="184" type="line"/>
    </contour>
    <contour>
      <point x="12" y="0" type="line"/>
      <point x="261" y="0" type="line"/>
      <point x="268" y="38" type="line"/>
      <point x="157" y="52" type="line"/>
      <point x="138" y="52" type="line"/>
      <point x="20" y="38" type="line"/>
    </contour>
    <contour>
      <point x="90" y="0" type="line"/>
      <point x="178" y="0" type="line"/>
      <point x="194" y="94"/>
      <point x="210" y="190"/>
      <point x="228" y="285" type="curve" smooth="yes"/>
      <point x="289" y="614" type="line"/>
      <point x="200" y="614" type="line"/>
      <point x="185" y="519"/>
      <point x="169" y="424"/>
      <point x="151" y="329" type="curve" smooth="yes"/>
    </contour>
    <contour>
      <point x="110" y="575" type="line"/>
      <point x="224" y="562" type="line"/>
      <point x="242" y="562" type="line"/>
      <point x="358" y="575" type="line"/>
      <point x="367" y="614" type="line"/>
      <point x="118" y="614" type="line"/>
    </contour>
  </outline>
</glyph>
<glyph name="germandbls" format="2">
  <advance width="472"/>
  <unicode hex="00DF"/>
  <outline>
    <contour>
      <point x="74" y="34" type="curve" smooth="yes"/>
      <point x="57" y="-58"/>
      <point x="43" y="-110"/>
      <point x="20" y="-145" type="curve" smooth="yes"/>
      <point x="0" y="-174"/>
      <point x="-18" y="-189"/>
      <point x="-36" y="-200" type="curve"/>
      <point x="-5" y="-197" type="line"/>
      <point x="-28" y="-173" type="line" smooth="yes"/>
      <point x="-48" y="-151"/>
      <point x="-69" y="-134"/>
      <point x="-95" y="-134" type="curve" smooth="yes"/>
      <point x="-117" y="-134"/>
      <point x="-136" y="-149"/>
      <point x="-139" y="-170" type="curve"/>
      <point x="-129" y="-207"/>
      <point x="-92" y="-228"/>
      <point x="-49" y="-228" type="curve" smooth="yes"/>
      <point x="-19" y="-228"/>
      <point x="13" y="-217"/>
      <point x="51" y="-182" type="curve" smooth="yes"/>
      <point x="102" y="-136"/>
      <point x="126" y="-64"/>
      <point x="145" y="34" type="curve" smooth="yes"/>
      <point x="171" y="167"/>
      <point x="191" y="314"/>
      <point x="215" y="448" type="curve" smooth="yes"/>
      <point x="239" y="587"/>
      <point x="279" y="657"/>
      <point x="361" y="657" type="curve" smooth="yes"/>
      <point x="400" y="657"/>
      <point x="431" y="630"/>
      <point x="431" y="579" type="curve" smooth="yes"/>
      <point x="431" y="543"/>
      <point x="416" y="509"/>
      <point x="368" y="468" type="curve" smooth="yes"/>
      <point x="308" y="415"/>
      <point x="267" y="373"/>
      <point x="267" y="312" type="curve" smooth="yes"/>
      <point x="267" y="264"/>
      <point x="295" y="223"/>
      <point x="340" y="189" type="curve" smooth="yes"/>
      <point x="389" y="153"/>
      <point x="399" y="131"/>
      <point x="399" y="102" type="curve" smooth="yes"/>
      <point x="399" y="53"/>
      <point x="360" y="20"/>
      <point x="299" y="20" type="curve" smooth="yes"/>
      <point x="282" y="20"/>
      <point x="274" y="22"/>
      <point x="254" y="28" type="curve"/>
      <point x="290" y="-1" type="line"/>
      <point x="276" y="60" type="line" smooth="yes"/>
      <point x="270" y="87"/>
      <point x="257" y="102"/>
      <point x="231" y="102" type="curve" smooth="yes"/>
      <point x="214" y="102"/>
      <point x="200" y="91"/>
      <point x="195" y="74" type="curve"/>
      <point x="203" y="18"/>
      <point x="240" y="-11"/>
      <point x="312" y="-11" type="curve" smooth="yes"/>
      <point x="404" y="-11"/>
      <point x="468" y="43"/>
      <point x="468" y="115" type="curve" smooth="yes"/>
      <point x="468" y="172"/>
      <point x="448" y="200"/>
      <point x="392" y="243" type="curve" smooth="yes"/>
      <point x="350" y="276"/>
      <point x="332" y="302"/>
      <point x="332" y="342" type="curve" smooth="yes"/>
      <point x="332" y="382"/>
      <point x="353" y="412"/>
      <point x="396" y="443" type="curve" smooth="yes"/>
      <point x="455" y="484"/>
      <point x="498" y="525"/>
      <point x="498" y="586" type="curve" smooth="yes"/>
      <point x="498" y="647"/>
      <point x="451" y="689"/>
      <point x="370" y="689" type="curve" smooth="yes"/>
      <point x="256" y="689"/>
      <point x="168" y="613"/>
      <point x="140" y="441" type="curve" smooth="yes"/>
      <point x="117" y="299"/>
      <point x="99" y="171"/>
    </contour>
  </outline>
</glyph>
<glyph name="aacute" format="2">
  <advance width="485"/>
  <unicode hex="00E1"/>
  <anchor x="368" y="701" name="aboveLC"/>
  <anchor x="207" y="-20" name="belowLC"/>
  <anchor x="375" y="0" name="ogonek"/>
  <outline>
    <contour>
      <point x="130" y="-11" type="curve" smooth="yes"/>
      <point x="195" y="-11"/>
      <point x="276" y="58"/>
      <point x="339" y="151" type="curve"/>
      <point x="331" y="172" type="line"/>
      <point x="256" y="84"/>
      <point x="211" y="54"/>
      <point x="174" y="54" type="curve" smooth="yes"/>
      <point x="141" y="54"/>
      <point x="120" y="80"/>
      <point x="120" y="137" type="curve" smooth="yes"/>
      <point x="120" y="217"/>
      <point x="154" y="291"/>
      <point x="198" y="336" type="curve" smooth="yes"/>
      <point x="230" y="369"/>
      <point x="266" y="387"/>
      <point x="295" y="387" type="curve" smooth="yes"/>
      <point x="326" y="387"/>
      <point x="356" y="369"/>
      <point x="379" y="350" type="curve"/>
      <point x="416" y="377" type="line"/>
      <point x="392" y="417"/>
      <point x="368" y="449"/>
      <point x="328" y="449" type="curve" smooth="yes"/>
      <point x="208" y="449"/>
      <point x="41" y="258"/>
      <point x="41" y="98" type="curve" smooth="yes"/>
      <point x="41" y="20"/>
      <point x="85" y="-11"/>
    </contour>
    <contour>
      <point x="338" y="-11" type="curve" smooth="yes"/>
      <point x="401" y="-11"/>
      <point x="459" y="47"/>
      <point x="495" y="101" type="curve"/>
      <point x="472" y="118" type="line"/>
      <point x="440" y="80"/>
      <point x="407" y="53"/>
      <point x="384" y="53" type="curve" smooth="yes"/>
      <point x="373" y="53"/>
      <point x="363" y="60"/>
      <point x="363" y="73" type="curve" smooth="yes"/>
      <point x="363" y="83"/>
      <point x="366" y="102"/>
      <point x="371" y="125" type="curve" smooth="yes"/>
      <point x="445" y="448" type="line"/>
      <point x="428" y="458" type="line"/>
      <point x="358" y="405" type="line"/>
      <point x="297" y="120" type="line" smooth="yes"/>
      <point x="290" y="90"/>
      <point x="287" y="70"/>
      <point x="287" y="44" type="curve" smooth="yes"/>
      <point x="287" y="5"/>
      <point x="310" y="-11"/>
    </contour>
    <contour>
      <point x="311" y="506" type="curve"/>
      <point x="334" y="491" type="line"/>
      <point x="370" y="534"/>
      <point x="406" y="575"/>
      <point x="442" y="618" type="curve" smooth="yes"/>
      <point x="459" y="636"/>
      <point x="465" y="651"/>
      <point x="465" y="667" type="curve" smooth="yes"/>
      <point x="465" y="690"/>
      <point x="448" y="701"/>
      <point x="427" y="701" type="curve" smooth="yes"/>
      <point x="406" y="701"/>
      <point x="390" y="686"/>
      <point x="378" y="658" type="curve" smooth="yes"/>
      <point x="356" y="608"/>
      <point x="333" y="556"/>
    </contour>
  </outline>
</glyph>
<glyph name="aring" format="2">
  <advance width="485"/>
  <unicode hex="00E5"/>
  <anchor x="383" y="703" name="aboveLC"/>
  <anchor x="207" y="-20" name="belowLC"/>
  <anchor x="375" y="0" name="ogonek"/>
  <outline>
    <contour>
      <point x="130" y="-11" type="curve" smooth="yes"/>
      <point x="195" y="-11"/>
      <point x="276" y="58"/>
      <point x="339" y="151" type="curve"/>
      <point x="331" y="172" type="line"/>
      <point x="256" y="84"/>
      <point x="211" y="54"/>
      <point x="174" y="54" type="curve" smooth="yes"/>
      <point x="141" y="54"/>
      <point x="120" y="80"/>
      <point x="120" y="137" type="curve" smooth="yes"/>
      <point x="120" y="217"/>
      <point x="154" y="291"/>
      <point x="198" y="336" type="curve" smooth="yes"/>
      <point x="230" y="369"/>
      <point x="266" y="387"/>
      <point x="295" y="387" type="curve" smooth="yes"/>
      <point x="326" y="387"/>
      <point x="356" y="369"/>
      <point x="379" y="350" type="curve"/>
      <point x="416" y="377" type="line"/>
      <point x="392" y="417"/>
      <point x="368" y="449"/>
      <point x="328" y="449" type="curve" smooth="yes"/>
      <point x="208" y="449"/>
      <point x="41" y="258"/>
      <point x="41" y="98" type="curve" smooth="yes"/>
      <point x="41" y="20"/>
      <point x="85" y="-11"/>
    </contour>
    <contour>
      <point x="338" y="-11" type="curve" smooth="yes"/>
      <point x="401" y="-11"/>
      <point x="459" y="47"/>
      <point x="495" y="101" type="curve"/>
      <point x="472" y="118" type="line"/>
      <point x="440" y="80"/>
      <point x="407" y="53"/>
      <point x="384" y="53" type="curve" smooth="yes"/>
      <point x="373" y="53"/>
      <point x="363" y="60"/>
      <point x="363" y="73" type="curve" smooth="yes"/>
      <point x="363" y="83"/>
      <point x="366" y="102"/>
      <point x="371" y="125" type="curve" smooth="yes"/>
      <point x="445" y="448" type="line"/>
      <point x="428" y="458" type="line"/>
      <point x="358" y="405" type="line"/>
      <point x="297" y="120" type="line" smooth="yes"/>
      <point x="290" y="90"/>
      <point x="287" y="70"/>
      <point x="287" y="44" type="curve" smooth="yes"/>
      <point x="287" y="5"/>
      <point x="310" y="-11"/>
    </contour>
    <contour>
      <point x="354" y="505" type="curve" smooth="yes"/>
      <point x="405" y="505"/>
      <point x="460" y="542"/>
      <point x="460" y="611" type="curve" smooth="yes"/>
      <point x="460" y="663"/>
      <point x="417" y="694"/>
      <point x="369" y="694" type="curve" smooth="yes"/>
      <point x="319" y="694"/>
      <point x="263" y="656"/>
      <point x="263" y="590" type="curve" smooth="yes"/>
      <point x="263" y="538"/>
      <point x="303" y="505"/>
    </contour>
    <contour>
      <point x="356" y="540" type="curve" smooth="yes"/>
      <point x="321" y="540"/>
      <point x="306" y="567"/>
      <point x="306" y="592" type="curve" smooth="yes"/>
      <point x="306" y="625"/>
      <point x="330" y="659"/>
      <point x="368" y="659" type="curve" smooth="yes"/>
      <point x="401" y="659"/>
      <point x="416" y="633"/>
      <point x="416" y="608" type="curve" smooth="yes"/>
      <point x="416" y="572"/>
      <point x="390" y="540"/>
    </contour>
  </outline>
</glyph>
<glyph name="ae" format="2">
  <advance width="622"/>
  <unicode hex="00E6"/>
  <anchor x="420" y="466" name="aboveLC"/>
  <anchor x="305" y="-20" name="belowLC"/>
  <anchor x="469" y="0" name="ogonek"/>
  <outline>
    <contour>
      <point x="130" y="-11" type="curve" smooth="yes"/>
      <point x="186" y="-11"/>
      <point x="256" y="41"/>
      <point x="314" y="116" type="curve"/>
      <point x="310" y="149" type="line"/>
      <point x="248" y="80"/>
      <point x="208" y="54"/>
      <point x="174" y="54" type="curve" smooth="yes"/>
      <point x="141" y="54"/>
      <point x="120" y="80"/>
      <point x="120" y="137" type="curve" smooth="yes"/>
      <point x="120" y="217"/>
      <point x="154" y="291"/>
      <point x="198" y="336" type="curve" smooth="yes"/>
      <point x="230" y="369"/>
      <point x="266" y="387"/>
      <point x="295" y="387" type="curve" smooth="yes"/>
      <point x="326" y="387"/>
      <point x="356" y="375"/>
      <point x="381" y="349" type="curve"/>
      <point x="423" y="383" type="line"/>
      <point x="400" y="422"/>
      <point x="369" y="449"/>
      <point x="328" y="449" type="curve" smooth="yes"/>
      <point x="208" y="449"/>
      <point x="41" y="258"/>
      <point x="41" y="98" type="curve" smooth="yes"/>
      <point x="41" y="20"/>
      <point x="85" y="-11"/>
    </contour>
    <contour>
      <point x="432" y="-11" type="curve" smooth="yes"/>
      <point x="504" y="-11"/>
      <point x="564" y="41"/>
      <point x="603" y="104" type="curve"/>
      <point x="582" y="122" type="line"/>
      <point x="556" y="90"/>
      <point x="515" y="55"/>
      <point x="457" y="55" type="curve" smooth="yes"/>
      <point x="398" y="55"/>
      <point x="362" y="91"/>
      <point x="362" y="180" type="curve" smooth="yes"/>
      <point x="362" y="301"/>
      <point x="457" y="408"/>
      <point x="516" y="408" type="curve" smooth="yes"/>
      <point x="544" y="408"/>
      <point x="564" y="389"/>
      <point x="564" y="355" type="curve" smooth="yes"/>
      <point x="564" y="302"/>
      <point x="506" y="234"/>
      <point x="334" y="190" type="curve"/>
      <point x="338" y="155" type="line"/>
      <point x="564" y="213"/>
      <point x="631" y="299"/>
      <point x="631" y="362" type="curve" smooth="yes"/>
      <point x="631" y="417"/>
      <point x="597" y="449"/>
      <point x="535" y="449" type="curve" smooth="yes"/>
      <point x="403" y="449"/>
      <point x="291" y="309"/>
      <point x="291" y="159" type="curve" smooth="yes"/>
      <point x="291" y="42"/>
      <point x="350" y="-11"/>
    </contour>
  </outline>
</glyph>
<glyph name="edieresis" format="2">
  <advance width="380"/>
  <unicode hex="00EB"/>
  <anchor x="326" y="648" name="aboveLC"/>
  <anchor x="180" y="-20" name="belowLC"/>
  <anchor x="227" y="0" name="ogonek"/>
  <outline>
    <contour>
      <point x="190" y="-11" type="curve" smooth="yes"/>
      <point x="262" y="-11"/>
      <point x="322" y="41"/>
      <point x="361" y="104" type="curve"/>
      <point x="339" y="122" type="line"/>
      <point x="313" y="90"/>
      <point x="272" y="55"/>
      <point x="215" y="55" type="curve" smooth="yes"/>
      <point x="155" y="55"/>
      <point x="120" y="91"/>
      <point x="120" y="180" type="curve" smooth="yes"/>
      <point x="120" y="301"/>
      <point x="214" y="408"/>
      <point x="273" y="408" type="curve" smooth="yes"/>
      <point x="302" y="408"/>
      <point x="322" y="389"/>
      <point x="322" y="355" type="curve" smooth="yes"/>
      <point x="322" y="302"/>
      <point x="264" y="234"/>
      <point x="92" y="190" type="curve"/>
      <point x="95" y="155" type="line"/>
      <point x="322" y="213"/>
      <point x="389" y="299"/>
      <point x="389" y="362" type="curve" smooth="yes"/>
      <point x="389" y="417"/>
      <point x="355" y="449"/>
      <point x="292" y="449" type="curve" smooth="yes"/>
      <point x="161" y="449"/>
      <point x="48" y="309"/>
      <point x="48" y="159" type="curve" smooth="yes"/>
      <point x="48" y="42"/>
      <point x="107" y="-11"/>
    </contour>
    <contour>
      <point x="220" y="571" type="curve" smooth="yes"/>
      <point x="250" y="571"/>
      <point x="275" y="594"/>
      <point x="275" y="627" type="curve" smooth="yes"/>
      <point x="275" y="652"/>
      <point x="255" y="669"/>
      <point x="230" y="669" type="curve" smooth="yes"/>
      <point x="203" y="669"/>
      <point x="177" y="647"/>
      <point x="177" y="614" type="curve" smooth="yes"/>
      <point x="177" y="587"/>
      <point x="197" y="571"/>
    </contour>
    <contour>
      <point x="402" y="571" type="curve" smooth="yes"/>
      <point x="431" y="571"/>
      <point x="456" y="594"/>
      <point x="456" y="627" type="curve" smooth="yes"/>
      <point x="456" y="652"/>
      <point x="437" y="669"/>
      <point x="412" y="669" type="curve" smooth="yes"/>
      <point x="385" y="669"/>
      <point x="358" y="647"/>
      <point x="358" y="614" type="curve" smooth="yes"/>
      <point x="358" y="587"/>
      <point x="379" y="571"/>
    </contour>
  </outline>
</glyph>
<glyph name="icircumflex" format="2">
  <advance width="282"/>
  <unicode hex="00EE"/>
  <anchor x="231" y="677" name="aboveLC"/>
  <anchor x="127" y="-20" name="belowLC"/>
  <anchor x="168" y="0" name="ogonek"/>
  <outline>
    <contour>
      <point x="80" y="36" type="curve" smooth="yes"/>
      <point x="80" y="4"/>
      <point x="104" y="-11"/>
      <point x="132" y="-11" type="curve" smooth="yes"/>
      <point x="199" y="-11"/>
      <point x="248" y="45"/>
      <point x="288" y="101" type="curve"/>
      <point x="265" y="118" type="line"/>
      <point x="229" y="75"/>
      <point x="201" y="53"/>
      <point x="180" y="53" type="curve" smooth="yes"/>
      <point x="170" y="53"/>
      <point x="160" y="60"/>
      <point x="160" y="73" type="curve" smooth="yes"/>
      <point x="160" y="83"/>
      <point x="163" y="102"/>
      <point x="168" y="125" type="curve" smooth="yes"/>
      <point x="234" y="439" type="line"/>
      <point x="221" y="449" type="line"/>
      <point x="60" y="402" type="line"/>
      <point x="57" y="374" type="line"/>
      <point x="164" y="366" type="line"/>
      <point x="148" y="380" type="line"/>
      <point x="90" y="105" type="line" smooth="yes"/>
      <point x="82" y="69"/>
      <point x="80" y="51"/>
    </contour>
    <contour>
      <point x="314" y="502" type="line"/>
      <point x="340" y="521" type="line"/>
      <point x="248" y="684" type="line"/>
      <point x="214" y="684" type="line"/>
      <point x="70" y="522" type="line"/>
      <point x="89" y="502" type="line"/>
      <point x="245" y="634" type="line"/>
      <point x="198" y="634" type="line"/>
    </contour>
  </outline>
</glyph>
<glyph name="idieresis" format="2">
  <advance width="282"/>
  <unicode hex="00EF"/>
  <anchor x="198" y="466" name="aboveLC"/>
  <anchor x="127" y="-20" name="belowLC"/>
  <anchor x="168" y="0" name="ogonek"/>
  <outline>
    <contour>
      <point x="154" y="571" type="curve" smooth="yes"/>
      <point x="183" y="571"/>
      <point x="207" y="594"/>
      <point x="207" y="627" type="curve" smooth="yes"/>
      <point x="207" y="652"/>
      <point x="188" y="669"/>
      <point x="163" y="669" type="curve" smooth="yes"/>
      <point x="137" y="669"/>
      <point x="110" y="647"/>
      <point x="110" y="614" type="curve" smooth="yes"/>
      <point x="110" y="587"/>
      <point x="130" y="571"/>
    </contour>
    <contour>
      <point x="308" y="571" type="curve" smooth="yes"/>
      <point x="336" y="571"/>
      <point x="361" y="594"/>
      <point x="361" y="627" type="curve" smooth="yes"/>
      <point x="361" y="652"/>
      <point x="342" y="669"/>
      <point x="317" y="669" type="curve" smooth="yes"/>
      <point x="290" y="669"/>
      <point x="264" y="647"/>
      <point x="264" y="614" type="curve" smooth="yes"/>
      <point x="264" y="587"/>
      <point x="285" y="571"/>
    </contour>
    <contour>
      <point x="80" y="36" type="curve" smooth="yes"/>
      <point x="80" y="4"/>
      <point x="104" y="-11"/>
      <point x="132" y="-11" type="curve" smooth="yes"/>
      <point x="199" y="-11"/>
      <point x="248" y="45"/>
      <point x="288" y="101" type="curve"/>
      <point x="265" y="118" type="line"/>
      <point x="229" y="75"/>
      <point x="201" y="53"/>
      <point x="180" y="53" type="curve" smooth="yes"/>
      <point x="170" y="53"/>
      <point x="160" y="60"/>
      <point x="160" y="73" type="curve" smooth="yes"/>
      <point x="160" y="83"/>
      <point x="163" y="102"/>
      <point x="168" y="125" type="curve" smooth="yes"/>
      <point x="234" y="439" type="line"/>
      <point x="221" y="449" type="line"/>
      <point x="60" y="402" type="line"/>
      <point x="57" y="374" type="line"/>
      <point x="164" y="366" type="line"/>
      <point x="148" y="380" type="line"/>
      <point x="90" y="105" type="line" smooth="yes"/>
      <point x="82" y="69"/>
      <point x="80" y="51"/>
    </contour>
  </outline>
</glyph>
<glyph name="eth" format="2">
  <advance width="452"/>
  <unicode hex="00F0"/>
  <outline>
    <contour>
      <point x="209" y="-11" type="curve" smooth="yes"/>
      <point x="329" y="-11"/>
      <point x="444" y="106"/>
      <point x="444" y="308" type="curve" smooth="yes"/>
      <point x="444" y="475"/>
      <point x="363" y="617"/>
      <point x="215" y="687" type="curve"/>
      <point x="190" y="656" type="line"/>
      <point x="319" y="578"/>
      <point x="368" y="483"/>
      <point x="375" y="315" type="curve"/>
      <point x="404" y="346" type="line"/>
      <point x="383" y="407"/>
      <point x="348" y="445"/>
      <point x="284" y="445" type="curve" smooth="yes"/>
      <point x="164" y="445"/>
      <point x="48" y="326"/>
      <point x="48" y="160" type="curve" smooth="yes"/>
      <point x="48" y="50"/>
      <point x="114" y="-11"/>
    </contour>
    <contour>
      <point x="216" y="26" type="curve" smooth="yes"/>
      <point x="163" y="26"/>
      <point x="130" y="69"/>
      <point x="130" y="167" type="curve" smooth="yes"/>
      <point x="130" y="299"/>
      <point x="198" y="404"/>
      <point x="285" y="404" type="curve" smooth="yes"/>
      <point x="333" y="404"/>
      <point x="367" y="374"/>
      <point x="367" y="287" type="curve" smooth="yes"/>
      <point x="367" y="136"/>
      <point x="299" y="26"/>
    </contour>
    <contour>
      <point x="179" y="498" type="line"/>
      <point x="442" y="639" type="line"/>
      <point x="425" y="672" type="line"/>
      <point x="163" y="530" type="line"/>
    </contour>
  </outline>
</glyph>
<glyph name="ntilde" format="2">
  <advance width="520"/>
  <unicode hex="00F1"/>
  <anchor x="356" y="667" name="aboveLC"/>
  <anchor x="226" y="-11" name="belowLC"/>
  <outline>
    <contour>
      <point x="317" y="29" type="curve" smooth="yes"/>
      <point x="317" y="4"/>
      <point x="335" y="-11"/>
      <point x="366" y="-11" type="curve" smooth="yes"/>
      <point x="431" y="-11"/>
      <point x="491" y="46"/>
      <point x="527" y="101" type="curve"/>
      <point x="504" y="118" type="line"/>
      <point x="471" y="78"/>
      <point x="438" y="53"/>
      <point x="416" y="53" type="curve" smooth="yes"/>
      <point x="405" y="53"/>
      <point x="398" y="59"/>
      <point x="398" y="72" type="curve" smooth="yes"/>
      <point x="398" y="81"/>
      <point x="403" y="100"/>
      <point x="410" y="125" type="curve" smooth="yes"/>
      <point x="451" y="295" type="line" smooth="yes"/>
      <point x="459" y="325"/>
      <point x="466" y="355"/>
      <point x="466" y="384" type="curve" smooth="yes"/>
      <point x="466" y="427"/>
      <point x="445" y="449"/>
      <point x="406" y="449" type="curve" smooth="yes"/>
      <point x="345" y="449"/>
      <point x="262" y="395"/>
      <point x="199" y="331" type="curve"/>
      <point x="195" y="296" type="line"/>
      <point x="265" y="355"/>
      <point x="320" y="384"/>
      <point x="354" y="384" type="curve" smooth="yes"/>
      <point x="373" y="384"/>
      <point x="385" y="374"/>
      <point x="385" y="343" type="curve" smooth="yes"/>
      <point x="385" y="324"/>
      <point x="378" y="295"/>
      <point x="370" y="264" type="curve" smooth="yes"/>
      <point x="332" y="104" type="line" smooth="yes"/>
      <point x="322" y="69"/>
      <point x="317" y="51"/>
    </contour>
    <contour>
      <point x="145" y="0" type="line"/>
      <point x="157" y="65"/>
      <point x="168" y="128"/>
      <point x="182" y="194" type="curve" smooth="yes"/>
      <point x="210" y="324" type="line"/>
      <point x="233" y="439" type="line"/>
      <point x="220" y="449" type="line"/>
      <point x="60" y="402" type="line"/>
      <point x="57" y="374" type="line"/>
      <point x="168" y="366" type="line"/>
      <point x="148" y="380" type="line"/>
      <point x="67" y="0" type="line"/>
      <point x="77" y="-7" type="line"/>
    </contour>
    <contour>
      <point x="180" y="539" type="curve"/>
      <point x="204" y="529" type="line"/>
      <point x="216" y="582"/>
      <point x="241" y="606"/>
      <point x="265" y="606" type="curve" smooth="yes"/>
      <point x="294" y="606"/>
      <point x="312" y="583"/>
      <point x="331" y="562" type="curve" smooth="yes"/>
      <point x="346" y="545"/>
      <point x="366" y="529"/>
      <point x="400" y="529" type="curve" smooth="yes"/>
      <point x="448" y="529"/>
      <point x="485" y="566"/>
      <point x="502" y="647" type="curve"/>
      <point x="477" y="656" type="line"/>
      <point x="464" y="604"/>
      <point x="439" y="581"/>
      <point x="415" y="581" type="curve" smooth="yes"/>
      <point x="388" y="581"/>
      <point x="370" y="604"/>
      <point x="350" y="624" type="curve" smooth="yes"/>
      <point x="334" y="641"/>
      <point x="317" y="658"/>
      <point x="281" y="658" type="curve" smooth="yes"/>
      <point x="235" y="658"/>
      <point x="195" y="619"/>
    </contour>
  </outline>
</glyph>
<glyph name="odieresis" format="2">
  <advance width="453"/>
  <unicode hex="00F6"/>
  <anchor x="327" y="648" name="aboveLC"/>
  <anchor x="189" y="-20" name="belowLC"/>
  <anchor x="380" y="442" name="hornLC"/>
  <anchor x="258" y="0" name="ogonek"/>
  <outline>
    <contour>
      <point x="205" y="-11" type="curve" smooth="yes"/>
      <point x="336" y="-11"/>
      <point x="444" y="126"/>
      <point x="444" y="286" type="curve" smooth="yes"/>
      <point x="444" y="392"/>
      <point x="379" y="449"/>
      <point x="291" y="449" type="curve" smooth="yes"/>
      <point x="159" y="449"/>
      <point x="48" y="315"/>
      <point x="48" y="151" type="curve" smooth="yes"/>
      <point x="48" y="44"/>
      <point x="118" y="-11"/>
    </contour>
    <contour>
      <point x="215" y="26" type="curve" smooth="yes"/>
      <point x="166" y="26"/>
      <point x="130" y="63"/>
      <point x="130" y="158" type="curve" smooth="yes"/>
      <point x="130" y="294"/>
      <point x="195" y="411"/>
      <point x="281" y="411" type="curve" smooth="yes"/>
      <point x="329" y="411"/>
      <point x="363" y="374"/>
      <point x="363" y="277" type="curve" smooth="yes"/>
      <point x="363" y="153"/>
      <point x="303" y="26"/>
    </contour>
    <contour>
      <point x="221" y="571" type="curve" smooth="yes"/>
      <point x="251" y="571"/>
      <point x="276" y="594"/>
      <point x="276" y="627" type="curve" smooth="yes"/>
      <point x="276" y="652"/>
      <point x="256" y="669"/>
      <point x="231" y="669" type="curve" smooth="yes"/>
      <point x="204" y="669"/>
      <point x="178" y="647"/>
      <point x="178" y="614" type="curve" smooth="yes"/>
      <point x="178" y="587"/>
      <point x="198" y="571"/>
    </contour>
    <contour>
      <point x="402" y="571" type="curve" smooth="yes"/>
      <point x="432" y="571"/>
      <point x="457" y="594"/>
      <point x="457" y="627" type="curve" smooth="yes"/>
      <point x="457" y="652"/>
      <point x="437" y="669"/>
      <point x="413" y="669" type="curve" smooth="yes"/>
      <point x="386" y="669"/>
      <point x="359" y="647"/>
      <point x="359" y="614" type="curve" smooth="yes"/>
      <point x="359" y="587"/>
      <point x="380" y="571"/>
    </contour>
  </outline>
</glyph>
<glyph name="divide" format="2">
  <advance width="489"/>
  <unicode hex="00F7"/>
  <outline>
    <contour>
      <point x="259" y="66" type="curve" smooth="yes"/>
      <point x="292" y="66"/>
      <point x="319" y="89"/>
      <point x="319" y="123" type="curve" smooth="yes"/>
      <point x="319" y="158"/>
      <point x="292" y="181"/>
      <point x="259" y="181" type="curve" smooth="yes"/>
      <point x="227" y="181"/>
      <point x="199" y="158"/>
      <point x="199" y="123" type="curve" smooth="yes"/>
      <point x="199" y="89"/>
      <point x="227" y="66"/>
    </contour>
    <contour>
      <point x="259" y="424" type="curve" smooth="yes"/>
      <point x="292" y="424"/>
      <point x="319" y="448"/>
      <point x="319" y="482" type="curve" smooth="yes"/>
      <point x="319" y="517"/>
      <point x="292" y="539"/>
      <point x="259" y="539" type="curve" smooth="yes"/>
      <point x="227" y="539"/>
      <point x="199" y="517"/>
      <point x="199" y="482" type="curve" smooth="yes"/>
      <point x="199" y="448"/>
      <point x="227" y="424"/>
    </contour>
    <contour>
      <point x="464" y="276" type="line"/>
      <point x="464" y="328" type="line"/>
      <point x="54" y="328" type="line"/>
      <point x="54" y="276" type="line"/>
    </contour>
  </outline>
</glyph>
<glyph name="Scaron" format="2">
  <advance width="455"/>
  <unicode hex="0160"/>
  <anchor x="353" y="791" name="aboveUC"/>
  <anchor x="190" y="0" name="baseLC"/>
  <anchor x="194" y="-20" name="belowLC"/>
  <outline>
    <contour>
      <point x="30" y="27" type="line"/>
      <point x="69" y="1"/>
      <point x="138" y="-13"/>
      <point x="194" y="-13" type="curve" smooth="yes"/>
      <point x="319" y="-13"/>
      <point x="402" y="56"/>
      <point x="402" y="164" type="curve" smooth="yes"/>
      <point x="402" y="221"/>
      <point x="379" y="270"/>
      <point x="276" y="349" type="curve" smooth="yes"/>
      <point x="209" y="399"/>
      <point x="185" y="434"/>
      <point x="185" y="482" type="curve" smooth="yes"/>
      <point x="185" y="548"/>
      <point x="237" y="581"/>
      <point x="323" y="581" type="curve" smooth="yes"/>
      <point x="352" y="581"/>
      <point x="379" y="577"/>
      <point x="424" y="553" type="curve"/>
      <point x="382" y="587" type="line"/>
      <point x="389" y="458" type="line"/>
      <point x="446" y="458" type="line"/>
      <point x="467" y="586" type="line"/>
      <point x="416" y="617"/>
      <point x="364" y="629"/>
      <point x="312" y="629" type="curve" smooth="yes"/>
      <point x="194" y="629"/>
      <point x="109" y="557"/>
      <point x="109" y="459" type="curve" smooth="yes"/>
      <point x="109" y="401"/>
      <point x="134" y="347"/>
      <point x="229" y="276" type="curve" smooth="yes"/>
      <point x="310" y="214"/>
      <point x="322" y="181"/>
      <point x="322" y="140" type="curve" smooth="yes"/>
      <point x="322" y="78"/>
      <point x="279" y="33"/>
      <point x="190" y="33" type="curve" smooth="yes"/>
      <point x="148" y="33"/>
      <point x="103" y="42"/>
      <point x="69" y="62" type="curve"/>
      <point x="115" y="27" type="line"/>
      <point x="103" y="159" type="line"/>
      <point x="46" y="159" type="line"/>
    </contour>
    <contour>
      <point x="237" y="800" type="line"/>
      <point x="212" y="781" type="line"/>
      <point x="303" y="668" type="line"/>
      <point x="356" y="668" type="line"/>
      <point x="480" y="781" type="line"/>
      <point x="462" y="800" type="line"/>
      <point x="301" y="697" type="line"/>
      <point x="362" y="697" type="line"/>
    </contour>
  </outline>
</glyph>
<glyph name="Zcaron" format="2">
  <advance width="494"/>
  <unicode hex="017D"/>
  <anchor x="370" y="791" name="aboveUC"/>
  <anchor x="237" y="-20" name="belowLC"/>
  <outline>
    <contour>
      <point x="0" y="0" type="line"/>
      <point x="75" y="0" type="line"/>
      <point x="536" y="581" type="line"/>
      <point x="542" y="614" type="line"/>
      <point x="467" y="614" type="line"/>
      <point x="6" y="33" type="line"/>
    </contour>
    <contour>
      <point x="80" y="449" type="line"/>
      <point x="135" y="449" type="line"/>
      <point x="194" y="614" type="line"/>
      <point x="134" y="567" type="line"/>
      <point x="495" y="567" type="line"/>
      <point x="506" y="614" type="line"/>
      <point x="112" y="614" type="line"/>
    </contour>
    <contour>
      <point x="46" y="0" type="line"/>
      <point x="446" y="0" type="line"/>
      <point x="479" y="164" type="line"/>
      <point x="422" y="164" type="line"/>
      <point x="364" y="0" type="line"/>
      <point x="424" y="46" type="line"/>
      <point x="55" y="46" type="line"/>
    </contour>
    <contour>
      <point x="255" y="800" type="line"/>
      <point x="230" y="781" type="line"/>
      <point x="322" y="668" type="line"/>
      <point x="374" y="668" type="line"/>
      <point x="498" y="781" type="line"/>
      <point x="480" y="800" type="line"/>
      <point x="319" y="697" type="line"/>
      <point x="380" y="697" type="line"/>
    </contour>
  </outline>
</glyph>
<glyph name="zcaron" format="2">
  <advance width="428"/>
  <unicode hex="017E"/>
  <anchor x="340" y="683" name="aboveLC"/>
  <anchor x="158" y="-20" name="belowLC"/>
  <outline>
    <contour>
      <point x="264" y="-22" type="curve" smooth="yes"/>
      <point x="335" y="-22"/>
      <point x="414" y="48"/>
      <point x="414" y="117" type="curve" smooth="yes"/>
      <point x="414" y="141"/>
      <point x="402" y="165"/>
      <point x="381" y="172" type="curve"/>
      <point x="356" y="170"/>
      <point x="334" y="151"/>
      <point x="334" y="122" type="curve" smooth="yes"/>
      <point x="334" y="102"/>
      <point x="345" y="86"/>
      <point x="372" y="54" type="curve"/>
      <point x="387" y="83" type="line"/>
      <point x="361" y="61"/>
      <point x="333" y="47"/>
      <point x="297" y="47" type="curve" smooth="yes"/>
      <point x="254" y="47"/>
      <point x="199" y="63"/>
      <point x="118" y="126" type="curve"/>
      <point x="91" y="92" type="line"/>
      <point x="159" y="2"/>
      <point x="207" y="-22"/>
    </contour>
    <contour>
      <point x="69" y="0" type="line"/>
      <point x="106" y="82" type="line"/>
      <point x="192" y="163"/>
      <point x="284" y="234"/>
      <point x="371" y="322" type="curve" smooth="yes"/>
      <point x="420" y="370"/>
      <point x="451" y="413"/>
      <point x="461" y="438" type="curve"/>
      <point x="450" y="448" type="line"/>
      <point x="398" y="437" type="line"/>
      <point x="358" y="357" type="line"/>
      <point x="270" y="264"/>
      <point x="172" y="185"/>
      <point x="82" y="100" type="curve" smooth="yes"/>
      <point x="43" y="62"/>
      <point x="24" y="33"/>
      <point x="5" y="0" type="curve"/>
      <point x="12" y="-5" type="line"/>
    </contour>
    <contour>
      <point x="61" y="257" type="line"/>
      <point x="100" y="252" type="line"/>
      <point x="150" y="416" type="line"/>
      <point x="100" y="382" type="line"/>
      <point x="201" y="360"/>
      <point x="263" y="345"/>
      <point x="347" y="317" type="curve"/>
      <point x="386" y="367" type="line"/>
      <point x="302" y="403"/>
      <point x="231" y="426"/>
      <point x="148" y="449" type="curve"/>
      <point x="82" y="396" type="line"/>
    </contour>
    <contour>
      <point x="222" y="692" type="line"/>
      <point x="196" y="674" type="line"/>
      <point x="285" y="509" type="line"/>
      <point x="318" y="509" type="line"/>
      <point x="463" y="674" type="line"/>
      <point x="444" y="692" type="line"/>
      <point x="286" y="564" type="line"/>
      <point x="329" y="564" type="line"/>
    </contour>
  </outline>
</glyph>
<glyph name="circumflex" format="2">
  <advance width="287"/>
  <unicode hex="02C6"/>
  <anchor x="200" y="466" name="_aboveLC"/>
  <anchor x="245" y="677" name="aboveLC"/>
  <outline>
    <contour>
      <point x="327" y="502" type="line"/>
      <point x="353" y="521" type="line"/>
      <point x="261" y="684" type="line"/>
      <point x="227" y="684" type="line"/>
      <point x="83" y="522" type="line"/>
      <point x="102" y="502" type="line"/>
      <point x="258" y="634" type="line"/>
      <point x="211" y="634" type="line"/>
    </contour>
  </outline>
</glyph>
<glyph name="uni02CD" format="2">
  <advance width="536"/>
  <unicode hex="02CD"/>
  <outline>
    <contour>
      <point x="14" y="44" type="curve" smooth="yes"/>
      <point x="10" y="35"/>
      <point x="9" y="25"/>
      <point x="9" y="19" type="curve" smooth="yes"/>
      <point x="9" y="7"/>
      <point x="15" y="1"/>
      <point x="20" y="0" type="curve" smooth="yes"/>
      <point x="28" y="-2"/>
      <point x="36" y="-2"/>
      <point x="39" y="-2" type="curve" smooth="yes"/>
      <point x="80" y="-2"/>
      <point x="127" y="0"/>
      <point x="209" y="0" type="curve" smooth="yes"/>
      <point x="244" y="0"/>
      <point x="317" y="-2"/>
      <point x="354" y="-2" type="curve" smooth="yes"/>
      <point x="358" y="-2"/>
      <point x="376" y="-2"/>
      <point x="382" y="1" type="curve" smooth="yes"/>
      <point x="398" y="9"/>
      <point x="405" y="39"/>
      <point x="405" y="52" type="curve" smooth="yes"/>
      <point x="405" y="64"/>
      <point x="401" y="72"/>
      <point x="394" y="74" type="curve" smooth="yes"/>
      <point x="391" y="75"/>
      <point x="378" y="75"/>
      <point x="372" y="75" type="curve" smooth="yes"/>
      <point x="327" y="75"/>
      <point x="240" y="73"/>
      <point x="194" y="73" type="curve" smooth="yes"/>
      <point x="135" y="73"/>
      <point x="107" y="74"/>
      <point x="52" y="74" type="curve" smooth="yes"/>
      <point x="34" y="74"/>
      <point x="24" y="70"/>
    </contour>
  </outline>
</glyph>
<glyph name="ogonek" format="2">
  <advance width="368"/>
  <unicode hex="02DB"/>
  <anchor x="134" y="0" name="_ogonek"/>
  <outline>
    <contour>
      <point x="32" y="-149" type="curve" smooth="yes"/>
      <point x="32" y="-192"/>
      <point x="61" y="-219"/>
      <point x="114" y="-219" type="curve" smooth="yes"/>
      <point x="156" y="-219"/>
      <point x="196" y="-194"/>
      <point x="220" y="-168" type="curve"/>
      <point x="208" y="-150" type="line"/>
      <point x="188" y="-165"/>
      <point x="161" y="-176"/>
      <point x="138" y="-176" type="curve" smooth="yes"/>
      <point x="112" y="-176"/>
      <point x="92" y="-159"/>
      <point x="92" y="-124" type="curve" smooth="yes"/>
      <point x="92" y="-72"/>
      <point x="129" y="-27"/>
      <point x="170" y="11" type="curve"/>
      <point x="138" y="11" type="line"/>
      <point x="88" y="-35"/>
      <point x="32" y="-89"/>
    </contour>
  </outline>
</glyph>
<glyph name="hungarumlaut" format="2">
  <advance width="368"/>
  <unicode hex="02DD"/>
  <anchor x="207" y="467" name="_aboveLC"/>
  <anchor x="255" y="696" name="aboveLC"/>
  <outline>
    <contour>
      <point x="126" y="529" type="line"/>
      <point x="149" y="511" type="line"/>
      <point x="253" y="609" type="line" smooth="yes"/>
      <point x="276" y="631"/>
      <point x="284" y="651"/>
      <point x="284" y="666" type="curve" smooth="yes"/>
      <point x="284" y="684"/>
      <point x="270" y="696"/>
      <point x="251" y="696" type="curve" smooth="yes"/>
      <point x="236" y="696"/>
      <point x="217" y="685"/>
      <point x="199" y="654" type="curve" smooth="yes"/>
    </contour>
    <contour>
      <point x="257" y="529" type="line"/>
      <point x="279" y="511" type="line"/>
      <point x="384" y="609" type="line" smooth="yes"/>
      <point x="407" y="631"/>
      <point x="414" y="651"/>
      <point x="414" y="666" type="curve" smooth="yes"/>
      <point x="414" y="684"/>
      <point x="401" y="696"/>
      <point x="381" y="696" type="curve" smooth="yes"/>
      <point x="367" y="696"/>
      <point x="348" y="685"/>
      <point x="330" y="654" type="curve" smooth="yes"/>
    </contour>
  </outline>
</glyph>
<glyph name="ellipsis" format="2">
  <advance width="832"/>
  <unicode hex="2026"/>
  <outline>
    <contour>
      <point x="113" y="-10" type="curve" smooth="yes"/>
      <point x="149" y="-10"/>
      <point x="180" y="18"/>
      <point x="180" y="56" type="curve" smooth="yes"/>
      <point x="180" y="86"/>
      <point x="157" y="111"/>
      <point x="124" y="111" type="curve" smooth="yes"/>
      <point x="88" y="111"/>
      <point x="56" y="82"/>
      <point x="56" y="45" type="curve" smooth="yes"/>
      <point x="56" y="13"/>
      <point x="80" y="-10"/>
    </contour>
    <contour>
      <point x="391" y="-10" type="curve" smooth="yes"/>
      <point x="427" y="-10"/>
      <point x="458" y="18"/>
      <point x="458" y="56" type="curve" smooth="yes"/>
      <point x="458" y="86"/>
      <point x="435" y="111"/>
      <point x="402" y="111" type="curve" smooth="yes"/>
      <point x="365" y="111"/>
      <point x="333" y="82"/>
      <point x="333" y="45" type="curve" smooth="yes"/>
      <point x="333" y="13"/>
      <point x="357" y="-10"/>
    </contour>
    <contour>
      <point x="668" y="-10" type="curve" smooth="yes"/>
      <point x="704" y="-10"/>
      <point x="735" y="18"/>
      <point x="735" y="56" type="curve" smooth="yes"/>
      <point x="735" y="86"/>
      <point x="713" y="111"/>
      <point x="679" y="111" type="curve" smooth="yes"/>
      <point x="643" y="111"/>
      <point x="610" y="82"/>
      <point x="610" y="45" type="curve" smooth="yes"/>
      <point x="610" y="13"/>
      <point x="635" y="-10"/>
    </contour>
  </outline>
</glyph>
<glyph name="perthousand" format="2">
  <advance width="1121"/>
  <unicode hex="2030"/>
  <outline>
    <contour>
      <point x="212" y="-14" type="line"/>
      <point x="668" y="586" type="line"/>
      <point x="636" y="610" type="line"/>
      <point x="181" y="10" type="line"/>
    </contour>
    <contour>
      <point x="176" y="225" type="curve" smooth="yes"/>
      <point x="266" y="225"/>
      <point x="348" y="330"/>
      <point x="348" y="476" type="curve" smooth="yes"/>
      <point x="348" y="562"/>
      <point x="307" y="606"/>
      <point x="242" y="606" type="curve" smooth="yes"/>
      <point x="149" y="606"/>
      <point x="69" y="495"/>
      <point x="69" y="351" type="curve" smooth="yes"/>
      <point x="69" y="268"/>
      <point x="112" y="225"/>
    </contour>
    <contour>
      <point x="180" y="253" type="curve" smooth="yes"/>
      <point x="155" y="253"/>
      <point x="137" y="272"/>
      <point x="137" y="343" type="curve" smooth="yes"/>
      <point x="137" y="471"/>
      <point x="190" y="576"/>
      <point x="240" y="576" type="curve" smooth="yes"/>
      <point x="263" y="576"/>
      <point x="282" y="558"/>
      <point x="282" y="492" type="curve" smooth="yes"/>
      <point x="282" y="373"/>
      <point x="230" y="253"/>
    </contour>
    <contour>
      <point x="597" y="-7" type="curve" smooth="yes"/>
      <point x="687" y="-7"/>
      <point x="769" y="97"/>
      <point x="769" y="243" type="curve" smooth="yes"/>
      <point x="769" y="329"/>
      <point x="727" y="373"/>
      <point x="663" y="373" type="curve" smooth="yes"/>
      <point x="570" y="373"/>
      <point x="490" y="263"/>
      <point x="490" y="118" type="curve" smooth="yes"/>
      <point x="490" y="35"/>
      <point x="532" y="-7"/>
    </contour>
    <contour>
      <point x="600" y="20" type="curve" smooth="yes"/>
      <point x="575" y="20"/>
      <point x="557" y="39"/>
      <point x="557" y="110" type="curve" smooth="yes"/>
      <point x="557" y="238"/>
      <point x="610" y="344"/>
      <point x="660" y="344" type="curve" smooth="yes"/>
      <point x="683" y="344"/>
      <point x="702" y="325"/>
      <point x="702" y="259" type="curve" smooth="yes"/>
      <point x="702" y="140"/>
      <point x="651" y="20"/>
    </contour>
    <contour>
      <point x="908" y="-7" type="curve" smooth="yes"/>
      <point x="998" y="-7"/>
      <point x="1081" y="97"/>
      <point x="1081" y="243" type="curve" smooth="yes"/>
      <point x="1081" y="329"/>
      <point x="1039" y="373"/>
      <point x="975" y="373" type="curve" smooth="yes"/>
      <point x="882" y="373"/>
      <point x="802" y="263"/>
      <point x="802" y="118" type="curve" smooth="yes"/>
      <point x="802" y="35"/>
      <point x="843" y="-7"/>
    </contour>
    <contour>
      <point x="911" y="20" type="curve" smooth="yes"/>
      <point x="886" y="20"/>
      <point x="869" y="39"/>
      <point x="869" y="110" type="curve" smooth="yes"/>
      <point x="869" y="238"/>
      <point x="922" y="344"/>
      <point x="971" y="344" type="curve" smooth="yes"/>
      <point x="995" y="344"/>
      <point x="1014" y="325"/>
      <point x="1014" y="259" type="curve" smooth="yes"/>
      <point x="1014" y="140"/>
      <point x="963" y="20"/>
    </contour>
  </outline>
</glyph>
<glyph name="trademark" format="2">
  <advance width="685"/>
  <unicode hex="2122"/>
  <outline>
    <contour>
      <point x="100" y="538" type="line"/>
      <point x="135" y="538" type="line"/>
      <point x="161" y="614" type="line"/>
      <point x="126" y="591" type="line"/>
      <point x="342" y="591" type="line"/>
      <point x="315" y="614" type="line"/>
      <point x="312" y="538" type="line"/>
      <point x="346" y="538" type="line"/>
      <point x="360" y="614" type="line"/>
      <point x="115" y="614" type="line"/>
    </contour>
    <contour>
      <point x="116" y="344" type="line"/>
      <point x="259" y="344" type="line"/>
      <point x="264" y="367" type="line"/>
      <point x="202" y="372" type="line"/>
      <point x="184" y="372" type="line"/>
      <point x="121" y="367" type="line"/>
    </contour>
    <contour>
      <point x="156" y="344" type="line"/>
      <point x="220" y="344" type="line"/>
      <point x="270" y="614" type="line"/>
      <point x="206" y="614" type="line"/>
    </contour>
    <contour>
      <point x="328" y="344" type="line"/>
      <point x="433" y="344" type="line"/>
      <point x="437" y="367" type="line"/>
      <point x="393" y="372" type="line"/>
      <point x="378" y="372" type="line"/>
      <point x="333" y="367" type="line"/>
    </contour>
    <contour>
      <point x="368" y="344" type="line"/>
      <point x="394" y="344" type="line"/>
      <point x="455" y="614" type="line"/>
      <point x="431" y="614" type="line"/>
    </contour>
    <contour>
      <point x="565" y="344" type="line"/>
      <point x="699" y="344" type="line"/>
      <point x="702" y="367" type="line"/>
      <point x="643" y="373" type="line"/>
      <point x="630" y="373" type="line"/>
      <point x="569" y="367" type="line"/>
    </contour>
    <contour>
      <point x="600" y="344" type="line"/>
      <point x="665" y="344" type="line"/>
      <point x="703" y="614" type="line"/>
      <point x="656" y="614" type="line"/>
      <point x="634" y="581" type="line"/>
    </contour>
    <contour>
      <point x="662" y="586" type="line"/>
      <point x="677" y="586" type="line"/>
      <point x="736" y="592" type="line"/>
      <point x="739" y="614" type="line"/>
      <point x="667" y="614" type="line"/>
    </contour>
    <contour>
      <point x="487" y="344" type="line"/>
      <point x="511" y="344" type="line"/>
      <point x="670" y="614" type="line"/>
      <point x="642" y="614" type="line"/>
      <point x="530" y="425" type="line"/>
      <point x="489" y="614" type="line"/>
      <point x="397" y="614" type="line"/>
      <point x="392" y="592" type="line"/>
      <point x="430" y="588" type="line"/>
    </contour>
  </outline>
</glyph>
<glyph name="Delta" format="2">
  <advance width="557"/>
  <unicode hex="2206"/>
  <outline>
    <contour>
      <point x="9" y="0" type="line"/>
      <point x="500" y="0" type="line"/>
      <point x="511" y="61" type="line"/>
      <point x="396" y="614" type="line"/>
      <point x="339" y="614" type="line"/>
      <point x="21" y="61" type="line"/>
    </contour>
    <contour>
      <point x="63" y="43" type="line"/>
      <point x="339" y="548" type="line"/>
      <point x="324" y="551" type="line"/>
      <point x="427" y="40" type="line"/>
      <point x="447" y="64" type="line"/>
      <point x="49" y="64" type="line"/>
    </contour>
  </outline>
</glyph>
<glyph name="infinity" format="2">
  <advance width="734"/>
  <unicode hex="221E"/>
  <outline>
    <contour>
      <point x="366" y="265" type="curve" smooth="yes"/>
      <point x="413" y="206"/>
      <point x="468" y="148"/>
      <point x="551" y="148" type="curve" smooth="yes"/>
      <point x="639" y="148"/>
      <point x="698" y="217"/>
      <point x="698" y="307" type="curve" smooth="yes"/>
      <point x="698" y="394"/>
      <point x="640" y="455"/>
      <point x="563" y="455" type="curve" smooth="yes"/>
      <point x="501" y="455"/>
      <point x="443" y="418"/>
      <point x="390" y="323" type="curve"/>
      <point x="403" y="294" type="line"/>
      <point x="459" y="366"/>
      <point x="490" y="397"/>
      <point x="555" y="397" type="curve" smooth="yes"/>
      <point x="610" y="397"/>
      <point x="654" y="359"/>
      <point x="654" y="302" type="curve" smooth="yes"/>
      <point x="654" y="254"/>
      <point x="621" y="219"/>
      <point x="566" y="219" type="curve" smooth="yes"/>
      <point x="512" y="219"/>
      <point x="466" y="275"/>
      <point x="418" y="337" type="curve" smooth="yes"/>
      <point x="371" y="398"/>
      <point x="316" y="455"/>
      <point x="233" y="455" type="curve" smooth="yes"/>
      <point x="145" y="455"/>
      <point x="86" y="387"/>
      <point x="86" y="297" type="curve" smooth="yes"/>
      <point x="86" y="208"/>
      <point x="143" y="148"/>
      <point x="220" y="148" type="curve" smooth="yes"/>
      <point x="282" y="148"/>
      <point x="340" y="184"/>
      <point x="394" y="280" type="curve"/>
      <point x="380" y="309" type="line"/>
      <point x="325" y="237"/>
      <point x="294" y="206"/>
      <point x="228" y="206" type="curve" smooth="yes"/>
      <point x="173" y="206"/>
      <point x="130" y="244"/>
      <point x="130" y="300" type="curve" smooth="yes"/>
      <point x="130" y="348"/>
      <point x="163" y="383"/>
      <point x="218" y="383" type="curve" smooth="yes"/>
      <point x="272" y="383"/>
      <point x="318" y="329"/>
    </contour>
  </outline>
</glyph>
<glyph name="approxequal" format="2">
  <advance width="489"/>
  <unicode hex="2248"/>
  <outline>
    <contour>
      <point x="277" y="214" type="curve" smooth="yes"/>
      <point x="242" y="244"/>
      <point x="212" y="261"/>
      <point x="177" y="261" type="curve" smooth="yes"/>
      <point x="112" y="261"/>
      <point x="77" y="218"/>
      <point x="72" y="137" type="curve"/>
      <point x="117" y="129" type="line"/>
      <point x="125" y="191"/>
      <point x="148" y="209"/>
      <point x="172" y="209" type="curve" smooth="yes"/>
      <point x="195" y="209"/>
      <point x="215" y="199"/>
      <point x="243" y="172" type="curve" smooth="yes"/>
      <point x="278" y="142"/>
      <point x="308" y="126"/>
      <point x="344" y="126" type="curve" smooth="yes"/>
      <point x="408" y="126"/>
      <point x="444" y="168"/>
      <point x="448" y="250" type="curve"/>
      <point x="403" y="257" type="line"/>
      <point x="396" y="195"/>
      <point x="373" y="177"/>
      <point x="349" y="177" type="curve" smooth="yes"/>
      <point x="326" y="177"/>
      <point x="306" y="187"/>
    </contour>
    <contour>
      <point x="277" y="435" type="curve" smooth="yes"/>
      <point x="242" y="465"/>
      <point x="212" y="482"/>
      <point x="177" y="482" type="curve" smooth="yes"/>
      <point x="112" y="482"/>
      <point x="77" y="439"/>
      <point x="72" y="357" type="curve"/>
      <point x="117" y="350" type="line"/>
      <point x="125" y="412"/>
      <point x="148" y="430"/>
      <point x="172" y="430" type="curve" smooth="yes"/>
      <point x="195" y="430"/>
      <point x="215" y="420"/>
      <point x="243" y="393" type="curve" smooth="yes"/>
      <point x="278" y="363"/>
      <point x="308" y="346"/>
      <point x="344" y="346" type="curve" smooth="yes"/>
      <point x="408" y="346"/>
      <point x="444" y="389"/>
      <point x="448" y="471" type="curve"/>
      <point x="403" y="478" type="line"/>
      <point x="396" y="416"/>
      <point x="373" y="398"/>
      <point x="349" y="398" type="curve" smooth="yes"/>
      <point x="326" y="398"/>
      <point x="306" y="408"/>
    </contour>
  </outline>
</glyph>
<glyph name="uniA4D0" format="2">
  <advance width="481"/>
  <unicode hex="A4D0"/>
  <outline>
    <contour>
      <point x="227" y="244" type="curve" smooth="yes"/>
      <point x="388" y="244"/>
      <point x="472" y="312"/>
      <point x="472" y="401" type="curve" smooth="yes"/>
      <point x="472" y="476"/>
      <point x="408" y="538"/>
      <point x="262" y="538" type="curve" smooth="yes"/>
      <point x="190" y="538"/>
      <point x="134" y="518"/>
      <point x="101" y="500" type="curve" smooth="yes"/>
      <point x="89" y="493"/>
      <point x="82" y="488"/>
      <point x="82" y="477" type="curve" smooth="yes"/>
      <point x="82" y="466"/>
      <point x="85" y="454"/>
      <point x="91" y="445" type="curve" smooth="yes"/>
      <point x="94" y="440"/>
      <point x="102" y="434"/>
      <point x="108" y="434" type="curve" smooth="yes"/>
      <point x="113" y="434"/>
      <point x="119" y="435"/>
      <point x="125" y="438" type="curve" smooth="yes"/>
      <point x="146" y="450"/>
      <point x="191" y="473"/>
      <point x="246" y="473" type="curve" smooth="yes"/>
      <point x="349" y="473"/>
      <point x="397" y="444"/>
      <point x="397" y="395" type="curve" smooth="yes"/>
      <point x="397" y="334"/>
      <point x="346" y="299"/>
      <point x="240" y="299" type="curve" smooth="yes"/>
      <point x="212" y="299"/>
      <point x="181" y="300"/>
      <point x="155" y="303" type="curve"/>
      <point x="134" y="248" type="line"/>
      <point x="154" y="245"/>
      <point x="189" y="244"/>
    </contour>
    <contour>
      <point x="74" y="22" type="curve" smooth="yes"/>
      <point x="99" y="22"/>
      <point x="110" y="30"/>
      <point x="116" y="47" type="curve" smooth="yes"/>
      <point x="122" y="63"/>
      <point x="126" y="79"/>
      <point x="134" y="104" type="curve" smooth="yes"/>
      <point x="157" y="177"/>
      <point x="187" y="270"/>
      <point x="223" y="366" type="curve" smooth="yes"/>
      <point x="236" y="400"/>
      <point x="242" y="417"/>
      <point x="251" y="440" type="curve" smooth="yes"/>
      <point x="256" y="453"/>
      <point x="257" y="459"/>
      <point x="257" y="465" type="curve" smooth="yes"/>
      <point x="257" y="474"/>
      <point x="241" y="485"/>
      <point x="217" y="485" type="curve" smooth="yes"/>
      <point x="196" y="485"/>
      <point x="189" y="482"/>
      <point x="183" y="475" type="curve" smooth="yes"/>
      <point x="179" y="471"/>
      <point x="176" y="463"/>
      <point x="174" y="456" type="curve" smooth="yes"/>
      <point x="166" y="433"/>
      <point x="164" y="427"/>
      <point x="156" y="403" type="curve" smooth="yes"/>
      <point x="126" y="313"/>
      <point x="97" y="229"/>
      <point x="65" y="140" type="curve" smooth="yes"/>
      <point x="52" y="104"/>
      <point x="47" y="89"/>
      <point x="37" y="61" type="curve" smooth="yes"/>
      <point x="35" y="56"/>
      <point x="34" y="49"/>
      <point x="34" y="42" type="curve" smooth="yes"/>
      <point x="34" y="35"/>
      <point x="41" y="22"/>
    </contour>
    <contour>
      <point x="162" y="241" type="curve" smooth="yes"/>
      <point x="297" y="241"/>
      <point x="351" y="208"/>
      <point x="351" y="149" type="curve" smooth="yes"/>
      <point x="351" y="76"/>
      <point x="257" y="55"/>
      <point x="173" y="55" type="curve" smooth="yes"/>
      <point x="124" y="55"/>
      <point x="66" y="63"/>
      <point x="16" y="80" type="curve" smooth="yes"/>
      <point x="7" y="83"/>
      <point x="0" y="84"/>
      <point x="-6" y="84" type="curve" smooth="yes"/>
      <point x="-12" y="84"/>
      <point x="-19" y="77"/>
      <point x="-23" y="71" type="curve" smooth="yes"/>
      <point x="-29" y="63"/>
      <point x="-34" y="52"/>
      <point x="-34" y="38" type="curve" smooth="yes"/>
      <point x="-34" y="28"/>
      <point x="-30" y="22"/>
      <point x="-16" y="17" type="curve" smooth="yes"/>
      <point x="37" y="-1"/>
      <point x="94" y="-10"/>
      <point x="164" y="-10" type="curve" smooth="yes"/>
      <point x="307" y="-10"/>
      <point x="426" y="38"/>
      <point x="426" y="153" type="curve" smooth="yes"/>
      <point x="426" y="220"/>
      <point x="339" y="293"/>
      <point x="198" y="293" type="curve" smooth="yes"/>
      <point x="179" y="293"/>
      <point x="155" y="293"/>
      <point x="141" y="293" type="curve"/>
      <point x="119" y="240" type="line"/>
      <point x="133" y="241"/>
      <point x="150" y="241"/>
    </contour>
  </outline>
</glyph>
<glyph name="uniA4D1" format="2">
  <advance width="459"/>
  <unicode hex="A4D1"/>
  <outline>
    <contour>
      <point x="226" y="206" type="curve" smooth="yes"/>
      <point x="368" y="206"/>
      <point x="481" y="266"/>
      <point x="481" y="389" type="curve" smooth="yes"/>
      <point x="481" y="474"/>
      <point x="406" y="538"/>
      <point x="262" y="538" type="curve" smooth="yes"/>
      <point x="196" y="538"/>
      <point x="138" y="520"/>
      <point x="101" y="500" type="curve" smooth="yes"/>
      <point x="89" y="493"/>
      <point x="82" y="488"/>
      <point x="82" y="477" type="curve" smooth="yes"/>
      <point x="82" y="466"/>
      <point x="85" y="454"/>
      <point x="91" y="445" type="curve" smooth="yes"/>
      <point x="95" y="439"/>
      <point x="102" y="434"/>
      <point x="108" y="434" type="curve" smooth="yes"/>
      <point x="113" y="434"/>
      <point x="119" y="435"/>
      <point x="125" y="438" type="curve" smooth="yes"/>
      <point x="143" y="447"/>
      <point x="197" y="473"/>
      <point x="246" y="473" type="curve" smooth="yes"/>
      <point x="356" y="473"/>
      <point x="408" y="441"/>
      <point x="408" y="381" type="curve" smooth="yes"/>
      <point x="408" y="310"/>
      <point x="330" y="271"/>
      <point x="233" y="271" type="curve" smooth="yes"/>
      <point x="207" y="271"/>
      <point x="163" y="275"/>
      <point x="139" y="282" type="curve"/>
      <point x="117" y="220" type="line"/>
      <point x="145" y="212"/>
      <point x="202" y="206"/>
    </contour>
    <contour>
      <point x="223" y="366" type="curve" smooth="yes"/>
      <point x="239" y="409"/>
      <point x="238" y="405"/>
      <point x="251" y="440" type="curve" smooth="yes"/>
      <point x="256" y="453"/>
      <point x="257" y="459"/>
      <point x="257" y="465" type="curve" smooth="yes"/>
      <point x="257" y="474"/>
      <point x="241" y="485"/>
      <point x="217" y="485" type="curve" smooth="yes"/>
      <point x="196" y="485"/>
      <point x="189" y="482"/>
      <point x="183" y="475" type="curve" smooth="yes"/>
      <point x="179" y="471"/>
      <point x="176" y="463"/>
      <point x="174" y="456" type="curve" smooth="yes"/>
      <point x="166" y="433"/>
      <point x="164" y="427"/>
      <point x="156" y="403" type="curve" smooth="yes"/>
      <point x="126" y="313"/>
      <point x="97" y="229"/>
      <point x="65" y="140" type="curve" smooth="yes"/>
      <point x="52" y="104"/>
      <point x="38" y="68"/>
      <point x="25" y="30" type="curve" smooth="yes"/>
      <point x="23" y="24"/>
      <point x="21" y="18"/>
      <point x="21" y="11" type="curve" smooth="yes"/>
      <point x="21" y="3"/>
      <point x="28" y="-9"/>
      <point x="60" y="-9" type="curve" smooth="yes"/>
      <point x="92" y="-9"/>
      <point x="103" y="0"/>
      <point x="108" y="17" type="curve" smooth="yes"/>
      <point x="113" y="33"/>
      <point x="122" y="66"/>
      <point x="134" y="104" type="curve" smooth="yes"/>
      <point x="157" y="177"/>
      <point x="187" y="270"/>
    </contour>
  </outline>
</glyph>
<glyph name="uniA4D3" format="2">
  <advance width="517"/>
  <unicode hex="A4D3"/>
  <outline>
    <contour>
      <point x="164" y="-10" type="curve" smooth="yes"/>
      <point x="372" y="-10"/>
      <point x="501" y="130"/>
      <point x="501" y="321" type="curve" smooth="yes"/>
      <point x="501" y="452"/>
      <point x="393" y="538"/>
      <point x="262" y="538" type="curve" smooth="yes"/>
      <point x="196" y="538"/>
      <point x="138" y="520"/>
      <point x="101" y="500" type="curve" smooth="yes"/>
      <point x="89" y="493"/>
      <point x="82" y="488"/>
      <point x="82" y="477" type="curve" smooth="yes"/>
      <point x="82" y="466"/>
      <point x="85" y="454"/>
      <point x="91" y="445" type="curve" smooth="yes"/>
      <point x="95" y="439"/>
      <point x="102" y="434"/>
      <point x="108" y="434" type="curve" smooth="yes"/>
      <point x="113" y="434"/>
      <point x="119" y="435"/>
      <point x="125" y="438" type="curve" smooth="yes"/>
      <point x="143" y="447"/>
      <point x="197" y="473"/>
      <point x="246" y="473" type="curve" smooth="yes"/>
      <point x="351" y="473"/>
      <point x="428" y="422"/>
      <point x="428" y="312" type="curve" smooth="yes"/>
      <point x="428" y="163"/>
      <point x="329" y="55"/>
      <point x="173" y="55" type="curve" smooth="yes"/>
      <point x="124" y="55"/>
      <point x="66" y="61"/>
      <point x="16" y="75" type="curve" smooth="yes"/>
      <point x="7" y="77"/>
      <point x="1" y="78"/>
      <point x="-5" y="78" type="curve" smooth="yes"/>
      <point x="-11" y="78"/>
      <point x="-19" y="70"/>
      <point x="-23" y="64" type="curve" smooth="yes"/>
      <point x="-29" y="56"/>
      <point x="-34" y="46"/>
      <point x="-34" y="32" type="curve" smooth="yes"/>
      <point x="-34" y="21"/>
      <point x="-30" y="16"/>
      <point x="-16" y="12" type="curve" smooth="yes"/>
      <point x="37" y="-3"/>
      <point x="99" y="-10"/>
    </contour>
    <contour>
      <point x="74" y="22" type="curve" smooth="yes"/>
      <point x="99" y="22"/>
      <point x="110" y="30"/>
      <point x="116" y="47" type="curve" smooth="yes"/>
      <point x="122" y="63"/>
      <point x="126" y="79"/>
      <point x="134" y="104" type="curve" smooth="yes"/>
      <point x="157" y="177"/>
      <point x="187" y="270"/>
      <point x="223" y="366" type="curve" smooth="yes"/>
      <point x="239" y="409"/>
      <point x="239" y="408"/>
      <point x="251" y="440" type="curve" smooth="yes"/>
      <point x="256" y="453"/>
      <point x="257" y="459"/>
      <point x="257" y="465" type="curve" smooth="yes"/>
      <point x="257" y="474"/>
      <point x="241" y="485"/>
      <point x="217" y="485" type="curve" smooth="yes"/>
      <point x="196" y="485"/>
      <point x="189" y="482"/>
      <point x="183" y="475" type="curve" smooth="yes"/>
      <point x="179" y="471"/>
      <point x="176" y="463"/>
      <point x="174" y="456" type="curve" smooth="yes"/>
      <point x="166" y="433"/>
      <point x="164" y="427"/>
      <point x="156" y="403" type="curve" smooth="yes"/>
      <point x="126" y="313"/>
      <point x="97" y="229"/>
      <point x="65" y="140" type="curve" smooth="yes"/>
      <point x="52" y="104"/>
      <point x="47" y="89"/>
      <point x="37" y="61" type="curve" smooth="yes"/>
      <point x="35" y="56"/>
      <point x="34" y="49"/>
      <point x="34" y="42" type="curve" smooth="yes"/>
      <point x="34" y="35"/>
      <point x="41" y="22"/>
    </contour>
  </outline>
</glyph>
<glyph name="uniA4D4" format="2">
  <advance width="539"/>
  <unicode hex="A4D4"/>
  <outline>
    <contour>
      <point x="112" y="485" type="curve" smooth="yes"/>
      <point x="119" y="463"/>
      <point x="132" y="461"/>
      <point x="150" y="461" type="curve" smooth="yes"/>
      <point x="200" y="461"/>
      <point x="305" y="463"/>
      <point x="364" y="463" type="curve" smooth="yes"/>
      <point x="434" y="463"/>
      <point x="547" y="461"/>
      <point x="568" y="461" type="curve" smooth="yes"/>
      <point x="584" y="461"/>
      <point x="603" y="462"/>
      <point x="607" y="464" type="curve" smooth="yes"/>
      <point x="611" y="466"/>
      <point x="615" y="471"/>
      <point x="615" y="482" type="curve" smooth="yes"/>
      <point x="615" y="488"/>
      <point x="614" y="497"/>
      <point x="610" y="507" type="curve" smooth="yes"/>
      <point x="605" y="519"/>
      <point x="600" y="526"/>
      <point x="592" y="530" type="curve" smooth="yes"/>
      <point x="586" y="533"/>
      <point x="568" y="533"/>
      <point x="564" y="533" type="curve" smooth="yes"/>
      <point x="527" y="533"/>
      <point x="413" y="532"/>
      <point x="379" y="532" type="curve" smooth="yes"/>
      <point x="299" y="532"/>
      <point x="158" y="533"/>
      <point x="131" y="533" type="curve" smooth="yes"/>
      <point x="127" y="533"/>
      <point x="122" y="533"/>
      <point x="118" y="531" type="curve" smooth="yes"/>
      <point x="113" y="529"/>
      <point x="107" y="523"/>
      <point x="107" y="511" type="curve" smooth="yes"/>
      <point x="107" y="505"/>
      <point x="109" y="495"/>
    </contour>
    <contour>
      <point x="194" y="-9" type="curve" smooth="yes"/>
      <point x="226" y="-9"/>
      <point x="237" y="0"/>
      <point x="242" y="17" type="curve" smooth="yes"/>
      <point x="247" y="33"/>
      <point x="256" y="66"/>
      <point x="268" y="104" type="curve" smooth="yes"/>
      <point x="291" y="177"/>
      <point x="318" y="262"/>
      <point x="354" y="358" type="curve" smooth="yes"/>
      <point x="370" y="401"/>
      <point x="392" y="451"/>
      <point x="406" y="494" type="curve" smooth="yes"/>
      <point x="408" y="500"/>
      <point x="409" y="504"/>
      <point x="409" y="508" type="curve" smooth="yes"/>
      <point x="409" y="519"/>
      <point x="393" y="530"/>
      <point x="367" y="530" type="curve" smooth="yes"/>
      <point x="346" y="530"/>
      <point x="337" y="527"/>
      <point x="332" y="520" type="curve" smooth="yes"/>
      <point x="328" y="515"/>
      <point x="324" y="506"/>
      <point x="322" y="501" type="curve" smooth="yes"/>
      <point x="309" y="468"/>
      <point x="298" y="428"/>
      <point x="287" y="395" type="curve" smooth="yes"/>
      <point x="257" y="305"/>
      <point x="231" y="229"/>
      <point x="199" y="140" type="curve" smooth="yes"/>
      <point x="186" y="104"/>
      <point x="172" y="68"/>
      <point x="159" y="30" type="curve" smooth="yes"/>
      <point x="157" y="24"/>
      <point x="155" y="18"/>
      <point x="155" y="11" type="curve" smooth="yes"/>
      <point x="155" y="3"/>
      <point x="162" y="-9"/>
    </contour>
  </outline>
</glyph>
<glyph name="uniA4D5" format="2">
  <advance width="539"/>
  <unicode hex="A4D5"/>
  <outline>
    <contour>
      <point x="356" y="-4" type="curve" smooth="yes"/>
      <point x="393" y="-4"/>
      <point x="406" y="-6"/>
      <point x="444" y="-6" type="curve" smooth="yes"/>
      <point x="454" y="-6"/>
      <point x="464" y="0"/>
      <point x="464" y="14" type="curve" smooth="yes"/>
      <point x="464" y="28"/>
      <point x="459" y="41"/>
      <point x="454" y="49" type="curve" smooth="yes"/>
      <point x="449" y="57"/>
      <point x="440" y="61"/>
      <point x="425" y="63" type="curve" smooth="yes"/>
      <point x="399" y="66"/>
      <point x="380" y="67"/>
      <point x="330" y="67" type="curve" smooth="yes"/>
      <point x="287" y="67"/>
      <point x="73" y="63"/>
      <point x="46" y="63" type="curve" smooth="yes"/>
      <point x="30" y="63"/>
      <point x="13" y="64"/>
      <point x="-2" y="64" type="curve" smooth="yes"/>
      <point x="-14" y="64"/>
      <point x="-24" y="63"/>
      <point x="-30" y="59" type="curve" smooth="yes"/>
      <point x="-36" y="55"/>
      <point x="-40" y="43"/>
      <point x="-40" y="37" type="curve" smooth="yes"/>
      <point x="-40" y="7"/>
      <point x="-8" y="-8"/>
      <point x="29" y="-8" type="curve" smooth="yes"/>
      <point x="91" y="-8"/>
      <point x="292" y="-4"/>
    </contour>
    <contour>
      <point x="205" y="0" type="curve" smooth="yes"/>
      <point x="237" y="0"/>
      <point x="248" y="9"/>
      <point x="253" y="26" type="curve" smooth="yes"/>
      <point x="258" y="42"/>
      <point x="267" y="75"/>
      <point x="279" y="113" type="curve" smooth="yes"/>
      <point x="302" y="186"/>
      <point x="329" y="270"/>
      <point x="365" y="366" type="curve" smooth="yes"/>
      <point x="381" y="409"/>
      <point x="401" y="453"/>
      <point x="415" y="496" type="curve" smooth="yes"/>
      <point x="417" y="502"/>
      <point x="418" y="506"/>
      <point x="418" y="510" type="curve" smooth="yes"/>
      <point x="418" y="521"/>
      <point x="402" y="532"/>
      <point x="376" y="532" type="curve" smooth="yes"/>
      <point x="355" y="532"/>
      <point x="346" y="529"/>
      <point x="341" y="522" type="curve" smooth="yes"/>
      <point x="337" y="517"/>
      <point x="333" y="508"/>
      <point x="331" y="503" type="curve" smooth="yes"/>
      <point x="318" y="470"/>
      <point x="309" y="436"/>
      <point x="298" y="403" type="curve" smooth="yes"/>
      <point x="268" y="313"/>
      <point x="242" y="238"/>
      <point x="210" y="149" type="curve" smooth="yes"/>
      <point x="197" y="113"/>
      <point x="183" y="77"/>
      <point x="170" y="39" type="curve" smooth="yes"/>
      <point x="168" y="33"/>
      <point x="166" y="27"/>
      <point x="166" y="20" type="curve" smooth="yes"/>
      <point x="166" y="12"/>
      <point x="173" y="0"/>
    </contour>
  </outline>
</glyph>
<glyph name="uniA4D6" format="2">
  <advance width="521"/>
  <unicode hex="A4D6"/>
  <outline>
    <contour>
      <point x="346" y="538" type="curve" smooth="yes"/>
      <point x="169" y="538"/>
      <point x="52" y="330"/>
      <point x="52" y="161" type="curve" smooth="yes"/>
      <point x="52" y="58"/>
      <point x="109" y="-10"/>
      <point x="220" y="-10" type="curve" smooth="yes"/>
      <point x="330" y="-10"/>
      <point x="416" y="94"/>
      <point x="434" y="161" type="curve" smooth="yes"/>
      <point x="437" y="172"/>
      <point x="438" y="179"/>
      <point x="438" y="185" type="curve" smooth="yes"/>
      <point x="438" y="208"/>
      <point x="416" y="215"/>
      <point x="392" y="215" type="curve" smooth="yes"/>
      <point x="377" y="215"/>
      <point x="371" y="211"/>
      <point x="366" y="200" type="curve" smooth="yes"/>
      <point x="363" y="193"/>
      <point x="359" y="177"/>
      <point x="353" y="160" type="curve" smooth="yes"/>
      <point x="338" y="118"/>
      <point x="288" y="63"/>
      <point x="228" y="63" type="curve" smooth="yes"/>
      <point x="166" y="63"/>
      <point x="127" y="104"/>
      <point x="127" y="172" type="curve" smooth="yes"/>
      <point x="127" y="307"/>
      <point x="226" y="465"/>
      <point x="333" y="465" type="curve" smooth="yes"/>
      <point x="391" y="465"/>
      <point x="408" y="435"/>
      <point x="422" y="407" type="curve" smooth="yes"/>
      <point x="425" y="400"/>
      <point x="431" y="396"/>
      <point x="439" y="396" type="curve" smooth="yes"/>
      <point x="454" y="396"/>
      <point x="493" y="416"/>
      <point x="493" y="432" type="curve" smooth="yes"/>
      <point x="493" y="445"/>
      <point x="477" y="472"/>
      <point x="458" y="492" type="curve" smooth="yes"/>
      <point x="437" y="514"/>
      <point x="401" y="538"/>
    </contour>
    <contour>
      <point x="496" y="204" type="curve" smooth="yes"/>
      <point x="500" y="213"/>
      <point x="502" y="223"/>
      <point x="502" y="229" type="curve" smooth="yes"/>
      <point x="502" y="243"/>
      <point x="496" y="250"/>
      <point x="472" y="250" type="curve" smooth="yes"/>
      <point x="446" y="250"/>
      <point x="432" y="249"/>
      <point x="389" y="249" type="curve" smooth="yes"/>
      <point x="370" y="249"/>
      <point x="350" y="250"/>
      <point x="324" y="250" type="curve" smooth="yes"/>
      <point x="319" y="250"/>
      <point x="301" y="250"/>
      <point x="295" y="247" type="curve" smooth="yes"/>
      <point x="288" y="244"/>
      <point x="283" y="237"/>
      <point x="276" y="219" type="curve" smooth="yes"/>
      <point x="274" y="214"/>
      <point x="271" y="203"/>
      <point x="271" y="198" type="curve" smooth="yes"/>
      <point x="271" y="184"/>
      <point x="282" y="179"/>
      <point x="305" y="179" type="curve" smooth="yes"/>
      <point x="341" y="179"/>
      <point x="374" y="181"/>
      <point x="405" y="181" type="curve" smooth="yes"/>
      <point x="422" y="181"/>
      <point x="429" y="179"/>
      <point x="459" y="179" type="curve" smooth="yes"/>
      <point x="478" y="179"/>
      <point x="489" y="188"/>
    </contour>
  </outline>
</glyph>
<glyph name="uniA4D7" format="2">
  <advance width="504"/>
  <unicode hex="A4D7"/>
  <outline>
    <contour>
      <point x="60" y="-9" type="curve" smooth="yes"/>
      <point x="92" y="-9"/>
      <point x="103" y="0"/>
      <point x="108" y="17" type="curve" smooth="yes"/>
      <point x="113" y="33"/>
      <point x="122" y="66"/>
      <point x="134" y="104" type="curve" smooth="yes"/>
      <point x="157" y="177"/>
      <point x="187" y="270"/>
      <point x="223" y="366" type="curve" smooth="yes"/>
      <point x="239" y="409"/>
      <point x="259" y="453"/>
      <point x="273" y="496" type="curve" smooth="yes"/>
      <point x="275" y="502"/>
      <point x="276" y="506"/>
      <point x="276" y="510" type="curve" smooth="yes"/>
      <point x="276" y="521"/>
      <point x="260" y="532"/>
      <point x="234" y="532" type="curve" smooth="yes"/>
      <point x="213" y="532"/>
      <point x="204" y="529"/>
      <point x="199" y="522" type="curve" smooth="yes"/>
      <point x="195" y="517"/>
      <point x="191" y="508"/>
      <point x="189" y="503" type="curve" smooth="yes"/>
      <point x="176" y="470"/>
      <point x="167" y="436"/>
      <point x="156" y="403" type="curve" smooth="yes"/>
      <point x="126" y="313"/>
      <point x="97" y="229"/>
      <point x="65" y="140" type="curve" smooth="yes"/>
      <point x="52" y="104"/>
      <point x="38" y="68"/>
      <point x="25" y="30" type="curve" smooth="yes"/>
      <point x="23" y="24"/>
      <point x="21" y="18"/>
      <point x="21" y="11" type="curve" smooth="yes"/>
      <point x="21" y="3"/>
      <point x="28" y="-9"/>
    </contour>
    <contour>
      <point x="157" y="309" type="curve" smooth="yes"/>
      <point x="117" y="302"/>
      <point x="92" y="296"/>
      <point x="81" y="289" type="curve" smooth="yes"/>
      <point x="72" y="283"/>
      <point x="67" y="271"/>
      <point x="67" y="256" type="curve" smooth="yes"/>
      <point x="67" y="234"/>
      <point x="75" y="221"/>
      <point x="94" y="221" type="curve" smooth="yes"/>
      <point x="104" y="221"/>
      <point x="117" y="223"/>
      <point x="136" y="227" type="curve" smooth="yes"/>
      <point x="328" y="269"/>
      <point x="452" y="360"/>
      <point x="520" y="496" type="curve" smooth="yes"/>
      <point x="523" y="502"/>
      <point x="526" y="508"/>
      <point x="526" y="515" type="curve" smooth="yes"/>
      <point x="526" y="524"/>
      <point x="519" y="528"/>
      <point x="513" y="530" type="curve" smooth="yes"/>
      <point x="510" y="531"/>
      <point x="500" y="532"/>
      <point x="495" y="532" type="curve" smooth="yes"/>
      <point x="482" y="532"/>
      <point x="472" y="531"/>
      <point x="465" y="528" type="curve" smooth="yes"/>
      <point x="455" y="524"/>
      <point x="446" y="518"/>
      <point x="435" y="500" type="curve" smooth="yes"/>
      <point x="378" y="406"/>
      <point x="292" y="333"/>
    </contour>
    <contour>
      <point x="277" y="284" type="curve"/>
      <point x="212" y="248" type="line"/>
      <point x="264" y="188"/>
      <point x="308" y="121"/>
      <point x="326" y="51" type="curve" smooth="yes"/>
      <point x="332" y="27"/>
      <point x="337" y="9"/>
      <point x="342" y="2" type="curve" smooth="yes"/>
      <point x="349" y="-8"/>
      <point x="361" y="-9"/>
      <point x="378" y="-9" type="curve" smooth="yes"/>
      <point x="403" y="-9"/>
      <point x="419" y="-1"/>
      <point x="419" y="11" type="curve" smooth="yes"/>
      <point x="419" y="20"/>
      <point x="416" y="32"/>
      <point x="407" y="59" type="curve" smooth="yes"/>
      <point x="382" y="131"/>
      <point x="328" y="228"/>
    </contour>
  </outline>
</glyph>
<glyph name="uniA4D8" format="2">
  <advance width="518"/>
  <unicode hex="A4D8"/>
  <outline>
    <contour>
      <point x="304" y="257" type="curve" smooth="yes"/>
      <point x="321" y="244"/>
      <point x="336" y="233"/>
      <point x="354" y="224" type="curve" smooth="yes"/>
      <point x="364" y="219"/>
      <point x="405" y="206"/>
      <point x="418" y="206" type="curve" smooth="yes"/>
      <point x="435" y="206"/>
      <point x="448" y="221"/>
      <point x="448" y="241" type="curve" smooth="yes"/>
      <point x="448" y="256"/>
      <point x="446" y="264"/>
      <point x="425" y="272" type="curve" smooth="yes"/>
      <point x="415" y="276"/>
      <point x="397" y="280"/>
      <point x="380" y="289" type="curve" smooth="yes"/>
      <point x="289" y="339"/>
      <point x="255" y="414"/>
      <point x="240" y="477" type="curve" smooth="yes"/>
      <point x="233" y="506"/>
      <point x="230" y="517"/>
      <point x="225" y="522" type="curve" smooth="yes"/>
      <point x="219" y="528"/>
      <point x="206" y="532"/>
      <point x="190" y="532" type="curve" smooth="yes"/>
      <point x="165" y="532"/>
      <point x="152" y="527"/>
      <point x="152" y="506" type="curve" smooth="yes"/>
      <point x="152" y="443"/>
      <point x="214" y="328"/>
    </contour>
    <contour>
      <point x="331" y="251" type="curve"/>
      <point x="275" y="295" type="line"/>
      <point x="166" y="239"/>
      <point x="76" y="153"/>
      <point x="0" y="63" type="curve" smooth="yes"/>
      <point x="-20" y="39"/>
      <point x="-31" y="22"/>
      <point x="-31" y="11" type="curve" smooth="yes"/>
      <point x="-31" y="-3"/>
      <point x="-16" y="-9"/>
      <point x="9" y="-9" type="curve" smooth="yes"/>
      <point x="26" y="-9"/>
      <point x="35" y="-5"/>
      <point x="43" y="-1" type="curve" smooth="yes"/>
      <point x="56" y="6"/>
      <point x="67" y="19"/>
      <point x="84" y="41" type="curve" smooth="yes"/>
      <point x="145" y="122"/>
      <point x="221" y="186"/>
    </contour>
    <contour>
      <point x="306" y="-9" type="curve" smooth="yes"/>
      <point x="338" y="-9"/>
      <point x="349" y="0"/>
      <point x="354" y="17" type="curve" smooth="yes"/>
      <point x="359" y="33"/>
      <point x="368" y="66"/>
      <point x="380" y="104" type="curve" smooth="yes"/>
      <point x="403" y="177"/>
      <point x="433" y="270"/>
      <point x="469" y="366" type="curve" smooth="yes"/>
      <point x="485" y="409"/>
      <point x="505" y="453"/>
      <point x="519" y="496" type="curve" smooth="yes"/>
      <point x="521" y="502"/>
      <point x="522" y="506"/>
      <point x="522" y="510" type="curve" smooth="yes"/>
      <point x="522" y="521"/>
      <point x="506" y="532"/>
      <point x="480" y="532" type="curve" smooth="yes"/>
      <point x="459" y="532"/>
      <point x="450" y="529"/>
      <point x="445" y="522" type="curve" smooth="yes"/>
      <point x="441" y="517"/>
      <point x="437" y="508"/>
      <point x="435" y="503" type="curve" smooth="yes"/>
      <point x="422" y="470"/>
      <point x="413" y="436"/>
      <point x="402" y="403" type="curve" smooth="yes"/>
      <point x="372" y="313"/>
      <point x="343" y="229"/>
      <point x="311" y="140" type="curve" smooth="yes"/>
      <point x="298" y="104"/>
      <point x="284" y="68"/>
      <point x="271" y="30" type="curve" smooth="yes"/>
      <point x="269" y="24"/>
      <point x="267" y="18"/>
      <point x="267" y="11" type="curve" smooth="yes"/>
      <point x="267" y="3"/>
      <point x="274" y="-9"/>
    </contour>
  </outline>
</glyph>
<glyph name="uniA4DB" format="2">
  <advance width="466"/>
  <unicode hex="A4DB"/>
  <outline>
    <contour>
      <point x="448" y="368" type="curve" smooth="yes"/>
      <point x="448" y="482"/>
      <point x="377" y="538"/>
      <point x="285" y="538" type="curve" smooth="yes"/>
      <point x="223" y="538"/>
      <point x="175" y="511"/>
      <point x="146" y="488" type="curve" smooth="yes"/>
      <point x="123" y="469"/>
      <point x="117" y="459"/>
      <point x="117" y="448" type="curve" smooth="yes"/>
      <point x="117" y="431"/>
      <point x="142" y="404"/>
      <point x="156" y="404" type="curve" smooth="yes"/>
      <point x="166" y="404"/>
      <point x="179" y="415"/>
      <point x="196" y="430" type="curve" smooth="yes"/>
      <point x="211" y="443"/>
      <point x="243" y="465"/>
      <point x="279" y="465" type="curve" smooth="yes"/>
      <point x="333" y="465"/>
      <point x="373" y="433"/>
      <point x="373" y="357" type="curve" smooth="yes"/>
      <point x="373" y="225"/>
      <point x="273" y="63"/>
      <point x="166" y="63" type="curve" smooth="yes"/>
      <point x="120" y="63"/>
      <point x="98" y="95"/>
      <point x="87" y="127" type="curve" smooth="yes"/>
      <point x="81" y="144"/>
      <point x="73" y="151"/>
      <point x="64" y="151" type="curve" smooth="yes"/>
      <point x="44" y="151"/>
      <point x="14" y="132"/>
      <point x="14" y="111" type="curve" smooth="yes"/>
      <point x="14" y="87"/>
      <point x="27" y="58"/>
      <point x="50" y="33" type="curve" smooth="yes"/>
      <point x="71" y="10"/>
      <point x="110" y="-10"/>
      <point x="157" y="-10" type="curve" smooth="yes"/>
      <point x="331" y="-10"/>
      <point x="448" y="200"/>
    </contour>
  </outline>
</glyph>
<glyph name="uniA4DC" format="2">
  <advance width="519"/>
  <unicode hex="A4DC"/>
  <outline>
    <contour>
      <point x="129" y="492" type="curve" smooth="yes"/>
      <point x="138" y="464"/>
      <point x="150" y="461"/>
      <point x="168" y="461" type="curve" smooth="yes"/>
      <point x="185" y="461"/>
      <point x="219" y="461"/>
      <point x="258" y="461" type="curve" smooth="yes"/>
      <point x="287" y="461"/>
      <point x="326" y="462"/>
      <point x="359" y="462" type="curve" smooth="yes"/>
      <point x="404" y="462"/>
      <point x="452" y="460"/>
      <point x="497" y="460" type="curve" smooth="yes"/>
      <point x="503" y="460"/>
      <point x="519" y="460"/>
      <point x="522" y="461" type="curve" smooth="yes"/>
      <point x="531" y="464"/>
      <point x="534" y="469"/>
      <point x="534" y="480" type="curve" smooth="yes"/>
      <point x="534" y="485"/>
      <point x="532" y="492"/>
      <point x="530" y="499" type="curve" smooth="yes"/>
      <point x="525" y="517"/>
      <point x="515" y="526"/>
      <point x="507" y="529" type="curve" smooth="yes"/>
      <point x="500" y="532"/>
      <point x="483" y="533"/>
      <point x="478" y="533" type="curve" smooth="yes"/>
      <point x="459" y="533"/>
      <point x="371" y="532"/>
      <point x="323" y="532" type="curve" smooth="yes"/>
      <point x="265" y="532"/>
      <point x="195" y="533"/>
      <point x="155" y="533" type="curve" smooth="yes"/>
      <point x="149" y="533"/>
      <point x="142" y="533"/>
      <point x="136" y="531" type="curve" smooth="yes"/>
      <point x="131" y="529"/>
      <point x="125" y="523"/>
      <point x="125" y="511" type="curve" smooth="yes"/>
      <point x="125" y="506"/>
      <point x="126" y="501"/>
    </contour>
    <contour>
      <point x="9" y="21" type="curve" smooth="yes"/>
      <point x="17" y="-3"/>
      <point x="33" y="-7"/>
      <point x="51" y="-7" type="curve" smooth="yes"/>
      <point x="69" y="-7"/>
      <point x="102" y="-6"/>
      <point x="142" y="-6" type="curve" smooth="yes"/>
      <point x="171" y="-6"/>
      <point x="219" y="-5"/>
      <point x="252" y="-5" type="curve" smooth="yes"/>
      <point x="298" y="-5"/>
      <point x="355" y="-7"/>
      <point x="401" y="-7" type="curve" smooth="yes"/>
      <point x="407" y="-7"/>
      <point x="419" y="-6"/>
      <point x="422" y="-5" type="curve" smooth="yes"/>
      <point x="429" y="-3"/>
      <point x="434" y="4"/>
      <point x="434" y="14" type="curve" smooth="yes"/>
      <point x="434" y="19"/>
      <point x="433" y="29"/>
      <point x="428" y="42" type="curve" smooth="yes"/>
      <point x="423" y="54"/>
      <point x="418" y="59"/>
      <point x="411" y="62" type="curve" smooth="yes"/>
      <point x="404" y="65"/>
      <point x="387" y="65"/>
      <point x="382" y="65" type="curve" smooth="yes"/>
      <point x="346" y="65"/>
      <point x="302" y="65"/>
      <point x="268" y="65" type="curve" smooth="yes"/>
      <point x="222" y="65"/>
      <point x="191" y="64"/>
      <point x="155" y="64" type="curve" smooth="yes"/>
      <point x="117" y="64"/>
      <point x="78" y="64"/>
      <point x="38" y="64" type="curve" smooth="yes"/>
      <point x="32" y="64"/>
      <point x="22" y="63"/>
      <point x="19" y="62" type="curve" smooth="yes"/>
      <point x="14" y="60"/>
      <point x="5" y="56"/>
      <point x="5" y="44" type="curve" smooth="yes"/>
      <point x="5" y="39"/>
      <point x="6" y="30"/>
    </contour>
    <contour>
      <point x="43" y="5" type="curve" smooth="yes"/>
      <point x="50" y="5"/>
      <point x="60" y="11"/>
      <point x="68" y="17" type="curve" smooth="yes"/>
      <point x="151" y="79"/>
      <point x="473" y="410"/>
      <point x="506" y="442" type="curve" smooth="yes"/>
      <point x="533" y="469"/>
      <point x="533" y="471"/>
      <point x="533" y="478" type="curve" smooth="yes"/>
      <point x="533" y="484"/>
      <point x="532" y="489"/>
      <point x="526" y="498" type="curve" smooth="yes"/>
      <point x="521" y="505"/>
      <point x="509" y="514"/>
      <point x="492" y="514" type="curve" smooth="yes"/>
      <point x="476" y="514"/>
      <point x="471" y="511"/>
      <point x="459" y="498" type="curve" smooth="yes"/>
      <point x="436" y="473"/>
      <point x="87" y="116"/>
      <point x="13" y="60" type="curve" smooth="yes"/>
      <point x="9" y="57"/>
      <point x="6" y="51"/>
      <point x="6" y="44" type="curve" smooth="yes"/>
      <point x="6" y="38"/>
      <point x="7" y="33"/>
      <point x="9" y="29" type="curve" smooth="yes"/>
      <point x="12" y="22"/>
      <point x="17" y="17"/>
      <point x="26" y="10" type="curve" smooth="yes"/>
      <point x="30" y="7"/>
      <point x="36" y="5"/>
    </contour>
  </outline>
</glyph>
<glyph name="uniA4DD" format="2">
  <advance width="476"/>
  <unicode hex="A4DD"/>
  <outline>
    <contour>
      <point x="79" y="-9" type="curve" smooth="yes"/>
      <point x="111" y="-9"/>
      <point x="122" y="0"/>
      <point x="127" y="17" type="curve" smooth="yes"/>
      <point x="132" y="33"/>
      <point x="141" y="66"/>
      <point x="153" y="104" type="curve" smooth="yes"/>
      <point x="176" y="177"/>
      <point x="205" y="266"/>
      <point x="240" y="362" type="curve" smooth="yes"/>
      <point x="256" y="405"/>
      <point x="273" y="450"/>
      <point x="289" y="493" type="curve" smooth="yes"/>
      <point x="291" y="499"/>
      <point x="291" y="502"/>
      <point x="291" y="506" type="curve" smooth="yes"/>
      <point x="291" y="517"/>
      <point x="276" y="528"/>
      <point x="250" y="528" type="curve" smooth="yes"/>
      <point x="229" y="528"/>
      <point x="219" y="525"/>
      <point x="214" y="518" type="curve" smooth="yes"/>
      <point x="210" y="513"/>
      <point x="206" y="505"/>
      <point x="204" y="500" type="curve" smooth="yes"/>
      <point x="192" y="467"/>
      <point x="184" y="432"/>
      <point x="173" y="399" type="curve" smooth="yes"/>
      <point x="143" y="309"/>
      <point x="116" y="228"/>
      <point x="84" y="140" type="curve" smooth="yes"/>
      <point x="71" y="104"/>
      <point x="56" y="68"/>
      <point x="43" y="30" type="curve" smooth="yes"/>
      <point x="41" y="24"/>
      <point x="39" y="18"/>
      <point x="39" y="11" type="curve" smooth="yes"/>
      <point x="39" y="3"/>
      <point x="47" y="-9"/>
    </contour>
    <contour>
      <point x="410" y="269" type="curve" smooth="yes"/>
      <point x="403" y="282"/>
      <point x="394" y="287"/>
      <point x="364" y="287" type="curve" smooth="yes"/>
      <point x="327" y="287"/>
      <point x="287" y="286"/>
      <point x="253" y="286" type="curve" smooth="yes"/>
      <point x="208" y="286"/>
      <point x="176" y="288"/>
      <point x="133" y="288" type="curve" smooth="yes"/>
      <point x="104" y="288"/>
      <point x="87" y="280"/>
      <point x="87" y="260" type="curve" smooth="yes"/>
      <point x="87" y="230"/>
      <point x="99" y="223"/>
      <point x="106" y="220" type="curve" smooth="yes"/>
      <point x="112" y="217"/>
      <point x="133" y="217"/>
      <point x="138" y="217" type="curve" smooth="yes"/>
      <point x="174" y="217"/>
      <point x="203" y="218"/>
      <point x="238" y="218" type="curve" smooth="yes"/>
      <point x="295" y="218"/>
      <point x="336" y="217"/>
      <point x="356" y="217" type="curve" smooth="yes"/>
      <point x="388" y="217"/>
      <point x="403" y="219"/>
      <point x="410" y="230" type="curve" smooth="yes"/>
      <point x="414" y="236"/>
      <point x="415" y="242"/>
      <point x="415" y="250" type="curve" smooth="yes"/>
      <point x="415" y="258"/>
      <point x="413" y="263"/>
    </contour>
    <contour>
      <point x="227" y="529" type="curve" smooth="yes"/>
      <point x="190" y="529"/>
      <point x="187" y="531"/>
      <point x="149" y="531" type="curve" smooth="yes"/>
      <point x="139" y="531"/>
      <point x="129" y="525"/>
      <point x="129" y="511" type="curve" smooth="yes"/>
      <point x="129" y="495"/>
      <point x="133" y="487"/>
      <point x="139" y="479" type="curve" smooth="yes"/>
      <point x="145" y="471"/>
      <point x="153" y="466"/>
      <point x="168" y="464" type="curve" smooth="yes"/>
      <point x="194" y="461"/>
      <point x="203" y="461"/>
      <point x="243" y="461" type="curve" smooth="yes"/>
      <point x="286" y="461"/>
      <point x="420" y="462"/>
      <point x="447" y="462" type="curve" smooth="yes"/>
      <point x="463" y="462"/>
      <point x="480" y="461"/>
      <point x="495" y="461" type="curve" smooth="yes"/>
      <point x="507" y="461"/>
      <point x="517" y="462"/>
      <point x="523" y="466" type="curve" smooth="yes"/>
      <point x="529" y="470"/>
      <point x="533" y="479"/>
      <point x="533" y="488" type="curve" smooth="yes"/>
      <point x="533" y="518"/>
      <point x="501" y="532"/>
      <point x="464" y="532" type="curve" smooth="yes"/>
      <point x="402" y="532"/>
      <point x="291" y="529"/>
    </contour>
  </outline>
</glyph>
<glyph name="uniA4DE" format="2">
  <advance width="482"/>
  <unicode hex="A4DE"/>
  <outline>
    <contour>
      <point x="270" y="-5" type="curve" smooth="yes"/>
      <point x="302" y="-5"/>
      <point x="313" y="5"/>
      <point x="318" y="22" type="curve" smooth="yes"/>
      <point x="323" y="38"/>
      <point x="331" y="66"/>
      <point x="343" y="104" type="curve" smooth="yes"/>
      <point x="366" y="177"/>
      <point x="396" y="270"/>
      <point x="432" y="366" type="curve" smooth="yes"/>
      <point x="448" y="409"/>
      <point x="468" y="453"/>
      <point x="482" y="496" type="curve" smooth="yes"/>
      <point x="484" y="502"/>
      <point x="485" y="506"/>
      <point x="485" y="510" type="curve" smooth="yes"/>
      <point x="485" y="521"/>
      <point x="469" y="532"/>
      <point x="443" y="532" type="curve" smooth="yes"/>
      <point x="422" y="532"/>
      <point x="413" y="529"/>
      <point x="408" y="522" type="curve" smooth="yes"/>
      <point x="404" y="517"/>
      <point x="400" y="508"/>
      <point x="398" y="503" type="curve" smooth="yes"/>
      <point x="385" y="470"/>
      <point x="376" y="436"/>
      <point x="365" y="403" type="curve" smooth="yes"/>
      <point x="335" y="313"/>
      <point x="306" y="229"/>
      <point x="274" y="140" type="curve" smooth="yes"/>
      <point x="261" y="104"/>
      <point x="248" y="73"/>
      <point x="235" y="35" type="curve" smooth="yes"/>
      <point x="233" y="29"/>
      <point x="231" y="23"/>
      <point x="231" y="16" type="curve" smooth="yes"/>
      <point x="231" y="8"/>
      <point x="238" y="-5"/>
    </contour>
    <contour>
      <point x="104" y="259" type="curve" smooth="yes"/>
      <point x="112" y="246"/>
      <point x="130" y="241"/>
      <point x="150" y="241" type="curve" smooth="yes"/>
      <point x="187" y="241"/>
      <point x="227" y="240"/>
      <point x="261" y="240" type="curve" smooth="yes"/>
      <point x="306" y="240"/>
      <point x="333" y="238"/>
      <point x="376" y="238" type="curve" smooth="yes"/>
      <point x="410" y="238"/>
      <point x="432" y="253"/>
      <point x="432" y="282" type="curve" smooth="yes"/>
      <point x="432" y="295"/>
      <point x="421" y="302"/>
      <point x="417" y="304" type="curve" smooth="yes"/>
      <point x="407" y="310"/>
      <point x="381" y="310"/>
      <point x="376" y="310" type="curve" smooth="yes"/>
      <point x="340" y="310"/>
      <point x="311" y="309"/>
      <point x="276" y="309" type="curve" smooth="yes"/>
      <point x="219" y="309"/>
      <point x="178" y="310"/>
      <point x="158" y="310" type="curve" smooth="yes"/>
      <point x="126" y="310"/>
      <point x="111" y="306"/>
      <point x="104" y="297" type="curve" smooth="yes"/>
      <point x="100" y="291"/>
      <point x="99" y="285"/>
      <point x="99" y="276" type="curve" smooth="yes"/>
      <point x="99" y="268"/>
      <point x="100" y="265"/>
    </contour>
    <contour>
      <point x="77" y="61" type="curve" smooth="yes"/>
      <point x="40" y="61"/>
      <point x="37" y="63"/>
      <point x="-1" y="63" type="curve" smooth="yes"/>
      <point x="-11" y="63"/>
      <point x="-21" y="57"/>
      <point x="-21" y="40" type="curve" smooth="yes"/>
      <point x="-21" y="27"/>
      <point x="-6" y="9"/>
      <point x="4" y="4" type="curve" smooth="yes"/>
      <point x="20" y="-5"/>
      <point x="55" y="-9"/>
      <point x="95" y="-9" type="curve" smooth="yes"/>
      <point x="138" y="-9"/>
      <point x="265" y="-6"/>
      <point x="292" y="-6" type="curve" smooth="yes"/>
      <point x="308" y="-6"/>
      <point x="325" y="-7"/>
      <point x="340" y="-7" type="curve" smooth="yes"/>
      <point x="352" y="-7"/>
      <point x="362" y="-6"/>
      <point x="368" y="-2" type="curve" smooth="yes"/>
      <point x="374" y="2"/>
      <point x="378" y="11"/>
      <point x="378" y="17" type="curve" smooth="yes"/>
      <point x="378" y="47"/>
      <point x="346" y="62"/>
      <point x="309" y="62" type="curve" smooth="yes"/>
      <point x="247" y="62"/>
      <point x="141" y="61"/>
    </contour>
  </outline>
</glyph>
<glyph name="uniA4DF" format="2">
  <advance width="683"/>
  <unicode hex="A4DF"/>
  <outline>
    <contour>
      <point x="354" y="183" type="curve" smooth="yes"/>
      <point x="354" y="193"/>
      <point x="353" y="202"/>
      <point x="351" y="212" type="curve" smooth="yes"/>
      <point x="330" y="317"/>
      <point x="299" y="416"/>
      <point x="290" y="473" type="curve" smooth="yes"/>
      <point x="287" y="492"/>
      <point x="285" y="505"/>
      <point x="284" y="512" type="curve" smooth="yes"/>
      <point x="282" y="525"/>
      <point x="266" y="529"/>
      <point x="245" y="529" type="curve" smooth="yes"/>
      <point x="232" y="529"/>
      <point x="229" y="528"/>
      <point x="223" y="524" type="curve" smooth="yes"/>
      <point x="219" y="521"/>
      <point x="217" y="513"/>
      <point x="217" y="500" type="curve" smooth="yes"/>
      <point x="217" y="488"/>
      <point x="220" y="473"/>
      <point x="223" y="458" type="curve" smooth="yes"/>
      <point x="232" y="413"/>
      <point x="269" y="278"/>
      <point x="288" y="179" type="curve" smooth="yes"/>
      <point x="291" y="163"/>
      <point x="306" y="160"/>
      <point x="317" y="160" type="curve" smooth="yes"/>
      <point x="330" y="160"/>
      <point x="337" y="163"/>
      <point x="343" y="167" type="curve" smooth="yes"/>
      <point x="347" y="170"/>
      <point x="354" y="176"/>
    </contour>
    <contour>
      <point x="588" y="506" type="curve" smooth="yes"/>
      <point x="541" y="452"/>
      <point x="396" y="322"/>
      <point x="312" y="220" type="curve" smooth="yes"/>
      <point x="303" y="209"/>
      <point x="297" y="198"/>
      <point x="295" y="194" type="curve" smooth="yes"/>
      <point x="292" y="188"/>
      <point x="291" y="184"/>
      <point x="291" y="179" type="curve" smooth="yes"/>
      <point x="291" y="175"/>
      <point x="292" y="170"/>
      <point x="294" y="168" type="curve" smooth="yes"/>
      <point x="299" y="163"/>
      <point x="303" y="160"/>
      <point x="314" y="160" type="curve" smooth="yes"/>
      <point x="332" y="160"/>
      <point x="345" y="161"/>
      <point x="357" y="173" type="curve" smooth="yes"/>
      <point x="361" y="177"/>
      <point x="366" y="182"/>
      <point x="370" y="187" type="curve" smooth="yes"/>
      <point x="437" y="271"/>
      <point x="598" y="408"/>
      <point x="636" y="491" type="curve" smooth="yes"/>
      <point x="642" y="504"/>
      <point x="644" y="511"/>
      <point x="644" y="517" type="curve" smooth="yes"/>
      <point x="644" y="523"/>
      <point x="639" y="531"/>
      <point x="627" y="531" type="curve" smooth="yes"/>
      <point x="616" y="531"/>
      <point x="611" y="529"/>
      <point x="608" y="527" type="curve" smooth="yes"/>
      <point x="603" y="523"/>
      <point x="595" y="514"/>
    </contour>
    <contour>
      <point x="59" y="-9" type="curve" smooth="yes"/>
      <point x="91" y="-9"/>
      <point x="101" y="0"/>
      <point x="107" y="17" type="curve" smooth="yes"/>
      <point x="113" y="33"/>
      <point x="122" y="66"/>
      <point x="135" y="104" type="curve" smooth="yes"/>
      <point x="160" y="177"/>
      <point x="192" y="270"/>
      <point x="232" y="366" type="curve" smooth="yes"/>
      <point x="250" y="409"/>
      <point x="268" y="455"/>
      <point x="282" y="498" type="curve" smooth="yes"/>
      <point x="283" y="501"/>
      <point x="284" y="509"/>
      <point x="284" y="512" type="curve" smooth="yes"/>
      <point x="284" y="523"/>
      <point x="270" y="534"/>
      <point x="244" y="534" type="curve" smooth="yes"/>
      <point x="223" y="534"/>
      <point x="215" y="531"/>
      <point x="210" y="524" type="curve" smooth="yes"/>
      <point x="206" y="519"/>
      <point x="202" y="510"/>
      <point x="200" y="505" type="curve" smooth="yes"/>
      <point x="187" y="472"/>
      <point x="177" y="436"/>
      <point x="165" y="403" type="curve" smooth="yes"/>
      <point x="131" y="313"/>
      <point x="99" y="229"/>
      <point x="65" y="140" type="curve" smooth="yes"/>
      <point x="51" y="104"/>
      <point x="38" y="68"/>
      <point x="25" y="30" type="curve" smooth="yes"/>
      <point x="23" y="24"/>
      <point x="21" y="18"/>
      <point x="21" y="11" type="curve" smooth="yes"/>
      <point x="21" y="3"/>
      <point x="27" y="-9"/>
    </contour>
    <contour>
      <point x="476" y="-9" type="curve" smooth="yes"/>
      <point x="510" y="-9"/>
      <point x="521" y="0"/>
      <point x="526" y="17" type="curve" smooth="yes"/>
      <point x="531" y="33"/>
      <point x="541" y="66"/>
      <point x="553" y="104" type="curve" smooth="yes"/>
      <point x="576" y="177"/>
      <point x="605" y="271"/>
      <point x="635" y="366" type="curve" smooth="yes"/>
      <point x="649" y="409"/>
      <point x="667" y="455"/>
      <point x="681" y="498" type="curve" smooth="yes"/>
      <point x="683" y="504"/>
      <point x="684" y="509"/>
      <point x="684" y="512" type="curve" smooth="yes"/>
      <point x="684" y="523"/>
      <point x="668" y="534"/>
      <point x="641" y="534" type="curve" smooth="yes"/>
      <point x="620" y="534"/>
      <point x="612" y="531"/>
      <point x="608" y="527" type="curve" smooth="yes"/>
      <point x="605" y="524"/>
      <point x="600" y="503"/>
      <point x="599" y="498" type="curve" smooth="yes"/>
      <point x="590" y="465"/>
      <point x="581" y="435"/>
      <point x="571" y="403" type="curve" smooth="yes"/>
      <point x="543" y="313"/>
      <point x="515" y="229"/>
      <point x="483" y="140" type="curve" smooth="yes"/>
      <point x="470" y="104"/>
      <point x="457" y="68"/>
      <point x="444" y="30" type="curve" smooth="yes"/>
      <point x="442" y="24"/>
      <point x="440" y="18"/>
      <point x="440" y="11" type="curve" smooth="yes"/>
      <point x="440" y="3"/>
      <point x="446" y="-9"/>
    </contour>
  </outline>
</glyph>
<glyph name="uniA4E0" format="2">
  <advance width="562"/>
  <unicode hex="A4E0"/>
  <outline>
    <contour>
      <point x="41" y="-9" type="curve" smooth="yes"/>
      <point x="71" y="-9"/>
      <point x="82" y="0"/>
      <point x="87" y="17" type="curve" smooth="yes"/>
      <point x="92" y="33"/>
      <point x="103" y="66"/>
      <point x="116" y="104" type="curve" smooth="yes"/>
      <point x="141" y="176"/>
      <point x="169" y="270"/>
      <point x="205" y="366" type="curve" smooth="yes"/>
      <point x="221" y="409"/>
      <point x="241" y="455"/>
      <point x="255" y="498" type="curve" smooth="yes"/>
      <point x="257" y="504"/>
      <point x="260" y="509"/>
      <point x="260" y="512" type="curve" smooth="yes"/>
      <point x="260" y="521"/>
      <point x="249" y="534"/>
      <point x="218" y="534" type="curve" smooth="yes"/>
      <point x="196" y="534"/>
      <point x="188" y="530"/>
      <point x="183" y="524" type="curve" smooth="yes"/>
      <point x="179" y="519"/>
      <point x="174" y="510"/>
      <point x="172" y="505" type="curve" smooth="yes"/>
      <point x="159" y="472"/>
      <point x="150" y="436"/>
      <point x="139" y="403" type="curve" smooth="yes"/>
      <point x="109" y="313"/>
      <point x="80" y="229"/>
      <point x="48" y="140" type="curve" smooth="yes"/>
      <point x="35" y="104"/>
      <point x="20" y="67"/>
      <point x="6" y="30" type="curve" smooth="yes"/>
      <point x="4" y="24"/>
      <point x="2" y="18"/>
      <point x="2" y="11" type="curve" smooth="yes"/>
      <point x="2" y="3"/>
      <point x="9" y="-9"/>
    </contour>
    <contour>
      <point x="371" y="-9" type="curve" smooth="yes"/>
      <point x="403" y="-9"/>
      <point x="414" y="0"/>
      <point x="419" y="17" type="curve" smooth="yes"/>
      <point x="423" y="32"/>
      <point x="433" y="66"/>
      <point x="446" y="104" type="curve" smooth="yes"/>
      <point x="472" y="177"/>
      <point x="503" y="270"/>
      <point x="539" y="366" type="curve" smooth="yes"/>
      <point x="555" y="409"/>
      <point x="574" y="453"/>
      <point x="588" y="496" type="curve" smooth="yes"/>
      <point x="590" y="502"/>
      <point x="591" y="507"/>
      <point x="591" y="510" type="curve" smooth="yes"/>
      <point x="591" y="521"/>
      <point x="575" y="532"/>
      <point x="549" y="532" type="curve" smooth="yes"/>
      <point x="528" y="532"/>
      <point x="522" y="529"/>
      <point x="516" y="522" type="curve" smooth="yes"/>
      <point x="512" y="517"/>
      <point x="508" y="508"/>
      <point x="506" y="503" type="curve" smooth="yes"/>
      <point x="493" y="470"/>
      <point x="484" y="436"/>
      <point x="473" y="403" type="curve" smooth="yes"/>
      <point x="443" y="313"/>
      <point x="413" y="229"/>
      <point x="378" y="140" type="curve" smooth="yes"/>
      <point x="364" y="104"/>
      <point x="351" y="68"/>
      <point x="338" y="30" type="curve" smooth="yes"/>
      <point x="336" y="24"/>
      <point x="334" y="18"/>
      <point x="334" y="11" type="curve" smooth="yes"/>
      <point x="334" y="5"/>
      <point x="338" y="-9"/>
    </contour>
    <contour>
      <point x="403" y="16" type="curve" smooth="yes"/>
      <point x="403" y="25"/>
      <point x="402" y="34"/>
      <point x="400" y="44" type="curve" smooth="yes"/>
      <point x="379" y="150"/>
      <point x="286" y="417"/>
      <point x="271" y="473" type="curve" smooth="yes"/>
      <point x="266" y="492"/>
      <point x="263" y="505"/>
      <point x="262" y="512" type="curve" smooth="yes"/>
      <point x="260" y="525"/>
      <point x="243" y="529"/>
      <point x="222" y="529" type="curve" smooth="yes"/>
      <point x="210" y="529"/>
      <point x="204" y="528"/>
      <point x="199" y="524" type="curve" smooth="yes"/>
      <point x="195" y="521"/>
      <point x="192" y="513"/>
      <point x="192" y="500" type="curve" smooth="yes"/>
      <point x="192" y="488"/>
      <point x="194" y="474"/>
      <point x="198" y="458" type="curve" smooth="yes"/>
      <point x="209" y="415"/>
      <point x="316" y="110"/>
      <point x="334" y="11" type="curve" smooth="yes"/>
      <point x="336" y="0"/>
      <point x="346" y="-8"/>
      <point x="367" y="-8" type="curve" smooth="yes"/>
      <point x="377" y="-8"/>
      <point x="387" y="-5"/>
      <point x="392" y="-1" type="curve" smooth="yes"/>
      <point x="396" y="2"/>
      <point x="403" y="9"/>
    </contour>
  </outline>
</glyph>
<glyph name="uniA4E1" format="2">
  <advance width="469"/>
  <unicode hex="A4E1"/>
  <outline>
    <contour>
      <point x="229" y="382" type="curve" smooth="yes"/>
      <point x="245" y="425"/>
      <point x="258" y="453"/>
      <point x="272" y="496" type="curve" smooth="yes"/>
      <point x="274" y="502"/>
      <point x="275" y="511"/>
      <point x="275" y="514" type="curve" smooth="yes"/>
      <point x="275" y="525"/>
      <point x="259" y="532"/>
      <point x="233" y="532" type="curve" smooth="yes"/>
      <point x="212" y="532"/>
      <point x="204" y="529"/>
      <point x="198" y="522" type="curve" smooth="yes"/>
      <point x="194" y="517"/>
      <point x="190" y="508"/>
      <point x="188" y="503" type="curve" smooth="yes"/>
      <point x="175" y="470"/>
      <point x="166" y="436"/>
      <point x="155" y="403" type="curve" smooth="yes"/>
      <point x="131" y="329"/>
      <point x="101" y="251"/>
      <point x="68" y="156" type="curve" smooth="yes"/>
      <point x="57" y="124"/>
      <point x="34" y="57"/>
      <point x="34" y="42" type="curve" smooth="yes"/>
      <point x="34" y="14"/>
      <point x="52" y="2"/>
      <point x="78" y="-3" type="curve" smooth="yes"/>
      <point x="100" y="-7"/>
      <point x="129" y="-8"/>
      <point x="153" y="-8" type="curve" smooth="yes"/>
      <point x="189" y="-8"/>
      <point x="266" y="-4"/>
      <point x="293" y="-4" type="curve" smooth="yes"/>
      <point x="314" y="-4"/>
      <point x="327" y="-5"/>
      <point x="339" y="-5" type="curve" smooth="yes"/>
      <point x="376" y="-5"/>
      <point x="389" y="3"/>
      <point x="389" y="19" type="curve" smooth="yes"/>
      <point x="389" y="25"/>
      <point x="388" y="33"/>
      <point x="385" y="39" type="curve" smooth="yes"/>
      <point x="376" y="57"/>
      <point x="364" y="68"/>
      <point x="318" y="68" type="curve" smooth="yes"/>
      <point x="286" y="68"/>
      <point x="213" y="64"/>
      <point x="162" y="64" type="curve" smooth="yes"/>
      <point x="157" y="64"/>
      <point x="149" y="64"/>
      <point x="139" y="65" type="curve" smooth="yes"/>
      <point x="127" y="66"/>
      <point x="126" y="71"/>
      <point x="126" y="77" type="curve" smooth="yes"/>
      <point x="126" y="84"/>
      <point x="132" y="103"/>
      <point x="137" y="118" type="curve" smooth="yes"/>
      <point x="167" y="208"/>
      <point x="196" y="293"/>
    </contour>
  </outline>
</glyph>
<glyph name="uniA4E2" format="2">
  <advance width="438"/>
  <unicode hex="A4E2"/>
  <outline>
    <contour>
      <point x="275" y="538" type="curve" smooth="yes"/>
      <point x="164" y="538"/>
      <point x="108" y="459"/>
      <point x="108" y="393" type="curve" smooth="yes"/>
      <point x="108" y="327"/>
      <point x="165" y="280"/>
      <point x="216" y="245" type="curve" smooth="yes"/>
      <point x="264" y="212"/>
      <point x="305" y="183"/>
      <point x="305" y="143" type="curve" smooth="yes"/>
      <point x="305" y="98"/>
      <point x="267" y="65"/>
      <point x="216" y="65" type="curve" smooth="yes"/>
      <point x="168" y="65"/>
      <point x="136" y="82"/>
      <point x="98" y="120" type="curve" smooth="yes"/>
      <point x="88" y="130"/>
      <point x="81" y="141"/>
      <point x="74" y="148" type="curve" smooth="yes"/>
      <point x="69" y="153"/>
      <point x="63" y="159"/>
      <point x="54" y="159" type="curve" smooth="yes"/>
      <point x="36" y="159"/>
      <point x="13" y="131"/>
      <point x="13" y="113" type="curve" smooth="yes"/>
      <point x="13" y="100"/>
      <point x="32" y="75"/>
      <point x="43" y="63" type="curve" smooth="yes"/>
      <point x="78" y="25"/>
      <point x="140" y="-8"/>
      <point x="205" y="-8" type="curve" smooth="yes"/>
      <point x="299" y="-8"/>
      <point x="380" y="52"/>
      <point x="380" y="146" type="curve" smooth="yes"/>
      <point x="380" y="220"/>
      <point x="319" y="263"/>
      <point x="268" y="298" type="curve" smooth="yes"/>
      <point x="220" y="331"/>
      <point x="183" y="363"/>
      <point x="183" y="398" type="curve" smooth="yes"/>
      <point x="183" y="432"/>
      <point x="221" y="465"/>
      <point x="266" y="465" type="curve" smooth="yes"/>
      <point x="309" y="465"/>
      <point x="344" y="447"/>
      <point x="370" y="407" type="curve" smooth="yes"/>
      <point x="374" y="400"/>
      <point x="381" y="394"/>
      <point x="389" y="394" type="curve" smooth="yes"/>
      <point x="404" y="394"/>
      <point x="433" y="425"/>
      <point x="433" y="441" type="curve" smooth="yes"/>
      <point x="433" y="452"/>
      <point x="413" y="479"/>
      <point x="390" y="498" type="curve" smooth="yes"/>
      <point x="368" y="516"/>
      <point x="326" y="538"/>
    </contour>
  </outline>
</glyph>
<glyph name="uniA4E3" format="2">
  <advance width="510"/>
  <unicode hex="A4E3"/>
  <outline>
    <contour>
      <point x="389" y="-9" type="curve" smooth="yes"/>
      <point x="414" y="-9"/>
      <point x="430" y="-2"/>
      <point x="430" y="9" type="curve" smooth="yes"/>
      <point x="430" y="18"/>
      <point x="428" y="32"/>
      <point x="418" y="59" type="curve" smooth="yes"/>
      <point x="391" y="131"/>
      <point x="338" y="229"/>
      <point x="288" y="284" type="curve"/>
      <point x="225" y="248" type="line"/>
      <point x="278" y="188"/>
      <point x="310" y="122"/>
      <point x="337" y="51" type="curve" smooth="yes"/>
      <point x="346" y="27"/>
      <point x="346" y="9"/>
      <point x="354" y="0" type="curve" smooth="yes"/>
      <point x="360" y="-7"/>
      <point x="372" y="-9"/>
    </contour>
    <contour>
      <point x="85" y="-9" type="curve" smooth="yes"/>
      <point x="117" y="-9"/>
      <point x="128" y="0"/>
      <point x="133" y="17" type="curve" smooth="yes"/>
      <point x="138" y="33"/>
      <point x="147" y="66"/>
      <point x="159" y="104" type="curve" smooth="yes"/>
      <point x="182" y="177"/>
      <point x="212" y="270"/>
      <point x="248" y="366" type="curve" smooth="yes"/>
      <point x="264" y="409"/>
      <point x="264" y="408"/>
      <point x="276" y="440" type="curve" smooth="yes"/>
      <point x="281" y="453"/>
      <point x="282" y="459"/>
      <point x="282" y="465" type="curve" smooth="yes"/>
      <point x="282" y="474"/>
      <point x="266" y="485"/>
      <point x="242" y="485" type="curve" smooth="yes"/>
      <point x="221" y="485"/>
      <point x="214" y="482"/>
      <point x="208" y="475" type="curve" smooth="yes"/>
      <point x="204" y="471"/>
      <point x="201" y="463"/>
      <point x="199" y="456" type="curve" smooth="yes"/>
      <point x="191" y="433"/>
      <point x="189" y="427"/>
      <point x="181" y="403" type="curve" smooth="yes"/>
      <point x="151" y="313"/>
      <point x="122" y="229"/>
      <point x="90" y="140" type="curve" smooth="yes"/>
      <point x="77" y="104"/>
      <point x="63" y="68"/>
      <point x="50" y="30" type="curve" smooth="yes"/>
      <point x="48" y="24"/>
      <point x="46" y="18"/>
      <point x="46" y="11" type="curve" smooth="yes"/>
      <point x="46" y="3"/>
      <point x="53" y="-9"/>
    </contour>
    <contour>
      <point x="158" y="232" type="line"/>
      <point x="195" y="227"/>
      <point x="214" y="226"/>
      <point x="252" y="226" type="curve" smooth="yes"/>
      <point x="401" y="226"/>
      <point x="497" y="292"/>
      <point x="497" y="401" type="curve" smooth="yes"/>
      <point x="497" y="481"/>
      <point x="423" y="538"/>
      <point x="287" y="538" type="curve" smooth="yes"/>
      <point x="215" y="538"/>
      <point x="159" y="518"/>
      <point x="126" y="500" type="curve" smooth="yes"/>
      <point x="114" y="493"/>
      <point x="107" y="488"/>
      <point x="107" y="477" type="curve" smooth="yes"/>
      <point x="107" y="466"/>
      <point x="110" y="454"/>
      <point x="116" y="445" type="curve" smooth="yes"/>
      <point x="119" y="440"/>
      <point x="127" y="434"/>
      <point x="133" y="434" type="curve" smooth="yes"/>
      <point x="138" y="434"/>
      <point x="144" y="435"/>
      <point x="150" y="438" type="curve" smooth="yes"/>
      <point x="171" y="450"/>
      <point x="216" y="473"/>
      <point x="271" y="473" type="curve" smooth="yes"/>
      <point x="373" y="473"/>
      <point x="422" y="442"/>
      <point x="422" y="395" type="curve" smooth="yes"/>
      <point x="422" y="328"/>
      <point x="350" y="292"/>
      <point x="265" y="292" type="curve" smooth="yes"/>
      <point x="237" y="292"/>
      <point x="213" y="293"/>
      <point x="180" y="295" type="curve"/>
    </contour>
  </outline>
</glyph>
<glyph name="uniA4E5" format="2">
  <advance width="502"/>
  <unicode hex="A4E5"/>
  <outline>
    <contour>
      <point x="87" y="74" type="curve" smooth="yes"/>
      <point x="136" y="169"/>
      <point x="230" y="311"/>
      <point x="271" y="366" type="curve" smooth="yes"/>
      <point x="304" y="411"/>
      <point x="319" y="430"/>
      <point x="328" y="430" type="curve" smooth="yes"/>
      <point x="335" y="430"/>
      <point x="341" y="408"/>
      <point x="341" y="371" type="curve" smooth="yes"/>
      <point x="341" y="282"/>
      <point x="340" y="119"/>
      <point x="337" y="60" type="curve" smooth="yes"/>
      <point x="336" y="31"/>
      <point x="336" y="24"/>
      <point x="336" y="19" type="curve" smooth="yes"/>
      <point x="336" y="0"/>
      <point x="347" y="-9"/>
      <point x="372" y="-9" type="curve" smooth="yes"/>
      <point x="404" y="-9"/>
      <point x="413" y="1"/>
      <point x="414" y="41" type="curve" smooth="yes"/>
      <point x="417" y="125"/>
      <point x="418" y="199"/>
      <point x="418" y="260" type="curve" smooth="yes"/>
      <point x="418" y="312"/>
      <point x="417" y="351"/>
      <point x="415" y="387" type="curve" smooth="yes"/>
      <point x="409" y="501"/>
      <point x="394" y="534"/>
      <point x="365" y="534" type="curve" smooth="yes"/>
      <point x="321" y="534"/>
      <point x="271" y="484"/>
      <point x="208" y="400" type="curve" smooth="yes"/>
      <point x="150" y="323"/>
      <point x="77" y="216"/>
      <point x="-6" y="71" type="curve" smooth="yes"/>
      <point x="-21" y="45"/>
      <point x="-33" y="22"/>
      <point x="-33" y="12" type="curve" smooth="yes"/>
      <point x="-33" y="0"/>
      <point x="-28" y="-9"/>
      <point x="2" y="-9" type="curve" smooth="yes"/>
      <point x="28" y="-9"/>
      <point x="43" y="-5"/>
      <point x="56" y="17" type="curve" smooth="yes"/>
      <point x="63" y="29"/>
      <point x="73" y="47"/>
    </contour>
  </outline>
</glyph>
<glyph name="uniA4E6" format="2">
  <advance width="503"/>
  <unicode hex="A4E6"/>
  <outline>
    <contour>
      <point x="451" y="449" type="curve" smooth="yes"/>
      <point x="402" y="354"/>
      <point x="309" y="214"/>
      <point x="268" y="159" type="curve" smooth="yes"/>
      <point x="235" y="114"/>
      <point x="219" y="95"/>
      <point x="210" y="95" type="curve" smooth="yes"/>
      <point x="203" y="95"/>
      <point x="196" y="117"/>
      <point x="196" y="154" type="curve" smooth="yes"/>
      <point x="196" y="243"/>
      <point x="200" y="404"/>
      <point x="202" y="463" type="curve" smooth="yes"/>
      <point x="203" y="492"/>
      <point x="203" y="499"/>
      <point x="203" y="504" type="curve" smooth="yes"/>
      <point x="203" y="523"/>
      <point x="192" y="532"/>
      <point x="167" y="532" type="curve" smooth="yes"/>
      <point x="135" y="532"/>
      <point x="125" y="522"/>
      <point x="124" y="482" type="curve" smooth="yes"/>
      <point x="122" y="398"/>
      <point x="121" y="330"/>
      <point x="121" y="269" type="curve" smooth="yes"/>
      <point x="121" y="217"/>
      <point x="121" y="174"/>
      <point x="122" y="138" type="curve" smooth="yes"/>
      <point x="125" y="24"/>
      <point x="144" y="-10"/>
      <point x="173" y="-10" type="curve" smooth="yes"/>
      <point x="217" y="-10"/>
      <point x="268" y="41"/>
      <point x="331" y="125" type="curve" smooth="yes"/>
      <point x="389" y="202"/>
      <point x="460" y="306"/>
      <point x="543" y="451" type="curve" smooth="yes"/>
      <point x="558" y="477"/>
      <point x="571" y="501"/>
      <point x="571" y="511" type="curve" smooth="yes"/>
      <point x="571" y="523"/>
      <point x="566" y="532"/>
      <point x="536" y="532" type="curve" smooth="yes"/>
      <point x="510" y="532"/>
      <point x="495" y="528"/>
      <point x="482" y="506" type="curve" smooth="yes"/>
      <point x="475" y="494"/>
      <point x="465" y="476"/>
    </contour>
  </outline>
</glyph>
<glyph name="uniA4E7" format="2">
  <advance width="587"/>
  <unicode hex="A4E7"/>
  <outline>
    <contour>
      <point x="163" y="272" type="curve" smooth="yes"/>
      <point x="163" y="248"/>
      <point x="183" y="232"/>
      <point x="207" y="232" type="curve" smooth="yes"/>
      <point x="247" y="232"/>
      <point x="356" y="236"/>
      <point x="402" y="236" type="curve" smooth="yes"/>
      <point x="439" y="236"/>
      <point x="461" y="234"/>
      <point x="504" y="234" type="curve" smooth="yes"/>
      <point x="530" y="234"/>
      <point x="552" y="244"/>
      <point x="552" y="271" type="curve" smooth="yes"/>
      <point x="552" y="296"/>
      <point x="525" y="306"/>
      <point x="489" y="306" type="curve" smooth="yes"/>
      <point x="453" y="306"/>
      <point x="434" y="304"/>
      <point x="399" y="304" type="curve" smooth="yes"/>
      <point x="341" y="304"/>
      <point x="259" y="300"/>
      <point x="219" y="300" type="curve" smooth="yes"/>
      <point x="190" y="300"/>
      <point x="163" y="295"/>
    </contour>
    <contour>
      <point x="60" y="-9" type="curve" smooth="yes"/>
      <point x="92" y="-9"/>
      <point x="103" y="0"/>
      <point x="108" y="17" type="curve" smooth="yes"/>
      <point x="113" y="33"/>
      <point x="122" y="66"/>
      <point x="134" y="104" type="curve" smooth="yes"/>
      <point x="157" y="177"/>
      <point x="187" y="270"/>
      <point x="223" y="366" type="curve" smooth="yes"/>
      <point x="239" y="409"/>
      <point x="259" y="453"/>
      <point x="273" y="496" type="curve" smooth="yes"/>
      <point x="275" y="502"/>
      <point x="276" y="506"/>
      <point x="276" y="510" type="curve" smooth="yes"/>
      <point x="276" y="521"/>
      <point x="260" y="532"/>
      <point x="234" y="532" type="curve" smooth="yes"/>
      <point x="213" y="532"/>
      <point x="204" y="529"/>
      <point x="199" y="522" type="curve" smooth="yes"/>
      <point x="195" y="517"/>
      <point x="191" y="508"/>
      <point x="189" y="503" type="curve" smooth="yes"/>
      <point x="176" y="470"/>
      <point x="167" y="436"/>
      <point x="156" y="403" type="curve" smooth="yes"/>
      <point x="126" y="313"/>
      <point x="97" y="229"/>
      <point x="65" y="140" type="curve" smooth="yes"/>
      <point x="52" y="104"/>
      <point x="38" y="68"/>
      <point x="25" y="30" type="curve" smooth="yes"/>
      <point x="23" y="24"/>
      <point x="21" y="18"/>
      <point x="21" y="11" type="curve" smooth="yes"/>
      <point x="21" y="3"/>
      <point x="28" y="-9"/>
    </contour>
    <contour>
      <point x="384" y="-9" type="curve" smooth="yes"/>
      <point x="416" y="-9"/>
      <point x="427" y="0"/>
      <point x="432" y="17" type="curve" smooth="yes"/>
      <point x="437" y="33"/>
      <point x="446" y="66"/>
      <point x="458" y="104" type="curve" smooth="yes"/>
      <point x="481" y="177"/>
      <point x="511" y="270"/>
      <point x="547" y="366" type="curve" smooth="yes"/>
      <point x="563" y="409"/>
      <point x="583" y="453"/>
      <point x="597" y="496" type="curve" smooth="yes"/>
      <point x="599" y="502"/>
      <point x="600" y="506"/>
      <point x="600" y="510" type="curve" smooth="yes"/>
      <point x="600" y="521"/>
      <point x="584" y="532"/>
      <point x="558" y="532" type="curve" smooth="yes"/>
      <point x="537" y="532"/>
      <point x="528" y="529"/>
      <point x="523" y="522" type="curve" smooth="yes"/>
      <point x="519" y="517"/>
      <point x="515" y="508"/>
      <point x="513" y="503" type="curve" smooth="yes"/>
      <point x="500" y="470"/>
      <point x="491" y="436"/>
      <point x="480" y="403" type="curve" smooth="yes"/>
      <point x="450" y="313"/>
      <point x="421" y="229"/>
      <point x="389" y="140" type="curve" smooth="yes"/>
      <point x="376" y="104"/>
      <point x="362" y="68"/>
      <point x="349" y="30" type="curve" smooth="yes"/>
      <point x="347" y="24"/>
      <point x="345" y="18"/>
      <point x="345" y="11" type="curve" smooth="yes"/>
      <point x="345" y="3"/>
      <point x="352" y="-9"/>
    </contour>
  </outline>
</glyph>
